<?xml version="1.0" encoding="utf-8"?>
<!-- Generator: Adobe Illustrator 23.0.4, SVG Export Plug-In . SVG Version: 6.00 Build 0)  -->
<svg version="1.1" id="Layer_1" xmlns="http://www.w3.org/2000/svg" xmlns:xlink="http://www.w3.org/1999/xlink" x="0px" y="0px"
	 viewBox="0 0 425.9 595.3" style="enable-background:new 0 0 425.9 595.3;" xml:space="preserve">
<style type="text/css">
	.st0{fill-rule:evenodd;clip-rule:evenodd;fill:#E56A70;}
	.st1{fill:#013233;}
	.st2{fill:none;}
	.st3{fill:#E54A52;stroke:#000000;stroke-width:5.6693;stroke-miterlimit:10;}
	.st4{fill-rule:evenodd;clip-rule:evenodd;fill:#FFE19E;stroke:#000000;stroke-width:5.6693;stroke-miterlimit:10;}
	.st5{fill:#FFD985;stroke:#000000;stroke-width:5.6693;stroke-miterlimit:10;}
	.st6{fill:#ED1E27;stroke:#000000;stroke-width:5.6693;stroke-miterlimit:10;}
	.st7{fill:#5063AE;stroke:#000000;stroke-width:5.6693;stroke-miterlimit:10;}
	.st8{fill:none;stroke:#000000;stroke-width:5.6693;stroke-miterlimit:10;}
	.st9{fill-rule:evenodd;clip-rule:evenodd;fill:#ED1E27;stroke:#000000;stroke-width:5.6693;stroke-miterlimit:10;}
	.st10{fill-rule:evenodd;clip-rule:evenodd;fill:#5063AE;stroke:#000000;stroke-width:5.6693;stroke-miterlimit:10;}
	.st11{fill-rule:evenodd;clip-rule:evenodd;stroke:#000000;stroke-miterlimit:10;}
	.st12{fill-rule:evenodd;clip-rule:evenodd;fill:#FFE19E;stroke:#000000;stroke-width:4.7525;stroke-miterlimit:10;}
	.st13{fill-rule:evenodd;clip-rule:evenodd;fill:#FFDF98;}
	.st14{fill-rule:evenodd;clip-rule:evenodd;fill:#FFFFFF;}
	.st15{fill-rule:evenodd;clip-rule:evenodd;}
	.st16{fill-rule:evenodd;clip-rule:evenodd;fill:#E2CB98;}
</style>
<g id="img">
	<path class="st3" d="M205.6,91.9l74.5,29h134.7v439c0,12-9.7,21.7-21.7,21.7H32.9c-12,0-21.7-9.7-21.7-21.7v-468H205.6z"/>
	<path class="st4" d="M61,354.4h191.6c1.9,0,3.6,1.7,3.6,3.6v52.4c0,2.1-1.7,3.8-3.6,3.8H61c-1.9,0-3.6-1.7-3.6-3.8V358
		C57.5,356.1,59.2,354.4,61,354.4L61,354.4z"/>
	<path class="st4" d="M66.4,157h297.4c6.6,0,11.8,6.2,11.8,13.8v153.3c0,7.6-5.2,13.8-11.8,13.8H66.4c-6.7,0-11.8-6.2-11.8-13.8
		V170.8C54.5,163.2,59.7,157,66.4,157L66.4,157z"/>
	<path class="st10" d="M284.9,386h35c3.1,0,5.7,2.5,5.7,5.6l0,0c0,3.1-2.5,5.6-5.7,5.6h-35c-3.1,0-5.7-2.5-5.7-5.6l0,0
		C279.3,388.5,281.8,386,284.9,386L284.9,386z"/>
	<path class="st10" d="M347.4,386h35c3.1,0,5.6,2.5,5.6,5.6l0,0c0,3.1-2.5,5.6-5.6,5.6h-35c-3.1,0-5.7-2.5-5.7-5.6l0,0
		C341.7,388.5,344.2,386,347.4,386L347.4,386z"/>
	<g>
		<g>
			<path class="st13" d="M233.9,29.3c0.1,0,0.1,0,0.2,0c0.1-0.1,0.2,0,0.2-0.1l0,0c0.1-0.1,0.2,0,0.2-0.1l0,0c0.1-0.1,0.2,0,0.2-0.1
				l0,0c0.1-0.1,0.2,0,0.2-0.1l0,0c0.1-0.1,0.2,0,0.2-0.1l0,0c0.1-0.1,0.2,0,0.2-0.1l0,0c0.1-0.1,0.1,0,0.2-0.1l0,0
				c0.1-0.1,0.1,0,0.2-0.1l0,0c0.1-0.1,0.1,0,0.2-0.1l0,0c0.1-0.1,0.1,0,0.2-0.1l0,0c0.1-0.1,0.1,0,0.2-0.1l0,0
				c0.1-0.1,0.1,0,0.2-0.1l0,0l0,0c0.1,0,0.1,0,0.2,0l0,0l0,0c0.1,0,0.1,0,0.2,0l0,0l0,0c0.3,0,0.6,0,0.9-0.2l0,0l0,0l0,0
				c0.1,0,0.1,0,0.1,0l0,0l0,0c0.1,0,0.2,0,0.2-0.1l0,0l0,0l0,0c0.1,0,0.2,0,0.2-0.1l0,0l0,0l0,0c0.1,0,0.2,0,0.2-0.1l0,0l0,0l0,0
				c0.1,0,0.2,0,0.2-0.1l0,0l0,0l0,0c0.1,0,0.2,0,0.2-0.1l0,0l0,0l0,0c0.1,0,0.2,0,0.2-0.1l0,0l0,0l0,0c0.1,0,0.2,0,0.2-0.1l0,0
				c0.2-0.1,0.3-0.1,0.5-0.2c0.9-0.3,1.8-0.5,2.7-0.8c0.7-0.2,1.4-0.4,2-0.5c0.2,0,0.2-0.1,0.2-0.3c-0.1-0.1,0-0.2-0.1-0.2l0,0
				c0-0.1,0-0.1-0.1-0.1l0,0c-0.1-0.1-0.1-0.2-0.2-0.3l0,0c0-0.1,0-0.1-0.1-0.1l0,0c0,0,0-0.1-0.1-0.1c0,0,0,0,0-0.1s0-0.1-0.1-0.2
				l0,0c0,0,0-0.1-0.1-0.1l0,0c-0.1-0.2-0.2-0.3-0.3-0.5c-0.6-1.2-1.1-2.4-1.7-3.6c-0.1-0.2-0.2-0.3-0.3-0.5c-0.6,0.5-1.2,1-1.8,1.5
				c-0.2,0.1-0.3,0.3-0.5,0.4c-0.6,0.5-1.2,1-1.9,1.5l0,0c-0.1,0-0.1,0.1-0.2,0.1l0,0l-0.1,0.1l0,0l-0.1,0.1l0,0c0,0-0.1,0-0.1,0.1
				l0,0l0,0l0,0c-0.1,0-0.1,0-0.1,0.1l0,0l0,0l0,0c-0.1,0-0.1,0.1-0.2,0.1l0,0l-0.1,0.1l0,0l-0.1,0.1l0,0c-0.1,0-0.1,0-0.1,0.1l0,0
				c-0.1,0-0.2,0.2-0.3,0.2l0,0l-0.1,0.1l0,0l-0.1,0.1l0,0c-0.1,0-0.1,0-0.1,0.1l0,0c-0.1,0-0.2,0.2-0.3,0.2l0,0l-0.1,0.1l0,0
				l-0.1,0.1l0,0l0,0l0,0c-0.2,0-0.2,0.2-0.4,0.3l0,0l-0.1,0.1l0,0l-0.1,0.1l0,0c-0.1,0-0.1,0-0.1,0.1l0,0l0,0l0,0
				c-0.1,0-0.1,0.1-0.2,0.1l0,0l-0.1,0.1l0,0l-0.1,0.1l0,0c0,0-0.1,0-0.1,0.1l0,0l0,0c0,0-0.1,0-0.1,0.1l0,0l0,0l0,0
				c-0.1,0-0.1,0.1-0.2,0.1l0,0l-0.1,0.1l0,0l-0.1,0.1c-0.4,0.4-0.8,0.7-1.2,1c-0.5,0.4-0.5,0.4-0.3,1
				C233.2,29.5,233.2,29.5,233.9,29.3z"/>
			<path class="st13" d="M193.7,42.9c-0.1-0.2-0.2-0.4-0.4-0.5c-0.2-0.3-0.4-0.5-0.6-0.8c-2-2.4-4.6-3.5-7.6-3.7
				c-2.3-0.1-4.5,0.4-6.6,1.4c-0.2,0.1-0.4,0.2-0.6,0.3c-0.7,0.2-1.2,0.6-1.7,1l-0.1,0.1l0,0c-0.6,0.3-1,0.7-1.5,1.2
				c-1.5,1.5-2.7,3.2-3.5,5.1c-0.8,2.3-1,4.7-0.2,7.1c0.1,0.3,0.2,0.7,0.5,0.9l0,0l0,0l0,0c0,0,0,0.1,0.1,0.1l0,0
				c0.1,0.1,0,0.2,0.1,0.2l0,0l0,0l0,0c0,0.1,0,0.1,0.1,0.1l0,0c0,0,0,0.1,0.1,0.1l0,0c0.1,0.1,0.1,0.2,0.2,0.3l0,0
				c0,0.1,0,0.1,0.1,0.1c0.1,0.1,0.1,0.2,0.2,0.3c1.5,2.2,3.5,3.5,6,4.1c2,0.5,3.9,0.4,5.9-0.1c1.5-0.4,3-1,4.3-1.9
				c0.2,0,0.4-0.3,0.6-0.4c0.3-0.2,0.7-0.3,0.9-0.6c2.2-1.8,3.7-4,4.6-6.7c0.1-0.3,0.1-0.6,0.2-0.9c0,0,0-0.1,0.1-0.1
				c0.4-2.4,0.2-4.7-0.9-6.8C193.7,43,193.7,43,193.7,42.9z"/>
			<path class="st13" d="M227.5,61.8c0.1-0.4,0.2-0.4-0.3-0.6c-2.2-0.7-4.2-1.8-6-3.3c-0.8-0.7-1.5-1.4-2.1-2.2c0-0.1,0-0.1-0.1-0.1
				l0,0c0-0.1,0-0.1-0.1-0.1l0,0l0,0l0,0c0-0.1,0-0.1-0.1-0.1l0,0l0,0l0,0c-0.1-0.2-0.2-0.5-0.3-0.7c-0.6-1-1.1-2-1.5-3.1
				c-0.1-0.3-0.3-0.5-0.6-0.6c-2-1.3-4.1-2.6-6.1-3.9c-0.1,0-0.1-0.1-0.2-0.1c0,0-0.1,0-0.1-0.1l-0.1-0.1c0,0-0.1,0-0.1-0.1
				c-0.1,0-0.1-0.1-0.2-0.1c0,0-0.1,0-0.1-0.1c-0.1,0-0.1-0.1-0.2-0.1c-0.1-0.1-0.2-0.1-0.3-0.2c-0.1,0-0.1-0.1-0.2-0.1
				c0,0,0,0-0.1,0c0,0,0,0-0.1,0s-0.1-0.1-0.2-0.1c-0.1,0-0.1-0.1-0.1-0.1s-0.1,0-0.1-0.1l-0.1-0.1l-0.1-0.1c-0.1,0-0.1-0.1-0.1-0.1
				c-0.1-0.1-0.2-0.1-0.3-0.2c-0.1,0-0.1-0.1-0.1-0.1l0,0c1.4-1,2.8-2.1,4.2-3.1c2-1.4,3.9-2.8,5.9-4.2c0.4-0.3,0.8-0.5,1.1-0.9l0,0
				c0.3-0.2,0.7-0.4,1-0.6c0.2-0.3,0.5-0.4,0.7-0.6c0-0.1-0.1-0.2-0.2-0.4c-0.9-1.2-1.7-2.4-2.6-3.6c-0.5-0.7-1.1-1.4-1.5-2.2
				c-0.1-0.2-0.2-0.3-0.3-0.4l0,0l-0.1-0.1l0,0l-0.1-0.1l0,0l-0.1-0.1l0,0l-0.1-0.1l0,0l-0.1-0.1l0,0l-0.1-0.1l0,0l-0.1-0.1l0,0
				l-0.1-0.1l0,0l-0.1-0.1l0,0c0,0,0-0.1-0.1-0.1l0,0c0,0,0-0.1-0.1-0.1l0,0c0-0.1,0-0.1-0.1-0.1l0,0c-0.2-0.3-0.5-0.6-0.7-0.9
				c-0.5,0.4-0.8,0.8-1.3,1.1h-0.1l-0.1,0.1l0,0c0,0-0.1,0-0.1,0.1l0,0c0,0,0,0.1-0.1,0.1c0,0,0,0,0,0.1c0,0,0,0-0.1,0
				c0,0,0,0-0.1,0c0,0-0.1,0-0.1,0.1l-0.1,0.1l-0.1,0.1l0,0c0,0-0.1,0-0.1,0.1l-0.1,0.1c-0.1,0.1-0.2,0.1-0.2,0.2
				c-2.5,2.4-5,4.8-7.6,7.2c0-0.1,0-0.2,0.1-0.4c0.2-1.6,0.4-3.1,0.6-4.7c0.2-1.1,0.2-2.2,0.5-3.2c-0.1-0.4,0.1-0.8,0.1-1.2
				c0.1-0.5,0.1-1.1,0.2-1.7c-1.1,0.1-2,0.2-3,0.3c-1.2,0.1-2.3,0.3-3.5,0.3c0,0,0,0-0.1,0c-0.1,0.1-0.2,0-0.3,0l0,0
				c-0.1,0.1-0.2,0-0.3,0c0,0,0,0-0.1,0s-0.2,0-0.3,0h-0.1c-0.1,0.1-0.2,0-0.3,0l0,0c-0.1,0.1-0.2,0-0.3,0c0,0,0,0-0.1,0
				s-0.2,0-0.2,0h-0.1c-0.1,0.1-0.2,0-0.3,0l0,0c-0.1,0.1-0.2,0-0.3,0c0,0,0,0-0.1,0s-0.2,0-0.2,0h-0.1c-0.1,0.1-0.2,0-0.3,0l0,0
				c-0.1,0.1-0.2,0-0.3,0c-0.3,0.1-0.8-0.1-1,0.2c-0.2,0.3-0.2,0.6-0.2,1h-0.1c-0.3,0.5-0.3,1-0.3,1.5c0,0.4,0.2,0.5,0.5,0.5
				c0.6,0,1.3-0.1,1.9-0.1c0.7,0,0.7,0,0.6,0.7c-0.1,0.9-0.3,1.8-0.2,2.8c0,0.1,0,0.2,0,0.4c0.1,0.3-0.1,0.6-0.1,0.9
				c0,0.1,0,0.2,0,0.3c0.1,0.3-0.1,0.6-0.1,0.9c0,0.3,0,0.6-0.1,0.9c-0.2,1.4-0.3,2.8-0.5,4.1c0,0.4,0,0.7,0.2,1
				c0.4,0.5,0.7,1.1,0.9,1.8c0,0.2,0,0.4,0.1,0.6c0.6,1.7,0.9,3.4,0.7,5.2c-0.1,0.9-0.1,1.8-0.4,2.7c-0.5,2.1-1.5,4-2.9,5.7
				c-0.5,0.6-0.9,1.3-0.7,2.1c0,0.1,0,0.1,0,0.2c-0.1,1.4-0.3,2.7-0.4,4c0,0.4,0,0.4,0.3,0.4c0.7,0,1.5,0.1,2.2,0.1
				c0.9,0,1.9,0.1,2.8,0.1c0.4,0.1,0.8,0,1.2,0.1c0.3,0,0.4-0.1,0.5-0.4c0.1-0.6,0.2-1.1,0.3-1.7c0.7-3.9,1.5-7.7,2.2-11.6
				c0.2,0,0.3,0.2,0.5,0.3c4.4,3.3,8.7,6.7,13,10c0.4,0.3,0.8,0.6,1.2,0.9c0.1,0.2,0.2,0.3,0.4,0.4c2.2,1.7,4.3,3.3,6.5,5
				c0.2,0.1,0.3,0.3,0.6,0.3l0,0c0.4,0.4,0.9,0.7,1.3,1.1c0.3,0,0.2-0.2,0.3-0.4C226.7,66.1,227.1,63.9,227.5,61.8z"/>
			<path class="st13" d="M321.5,57.8C321.4,57.9,321.4,57.8,321.5,57.8c-0.2-0.1-0.3-0.1-0.4-0.2c0,0,0,0-0.1,0
				c-0.1-0.1-0.3-0.1-0.4-0.2h-0.1c-0.1,0-0.1,0-0.2,0c-1.5-0.6-3-1.3-4.5-1.9c-0.7-0.3-1.5-0.7-2.2-1c-0.4-0.2-0.4-0.2-0.6,0.3
				c-0.1,0.2-0.2,0.5-0.3,0.7c0,0,0,0.1-0.1,0.1c0,0.1,0,0.2-0.1,0.3c0,0,0,0.1-0.1,0.1c0,0.1,0,0.1,0,0.2c-0.2,0.3-0.3,0.7-0.5,1
				c-0.2,0.1-0.3,0.4-0.4,0.6c-1.5,3.2-3,6.5-4.4,9.7c-0.3,0.7-0.6,1.4-1,2.1c0-0.1,0-0.3,0-0.4c-0.1-4.2-0.2-8.4-0.2-12.5
				c0-0.2,0-0.4-0.1-0.6c0-0.1,0-0.1,0-0.2c0-0.1,0-0.2,0-0.2c0-0.1,0-0.1,0-0.2c-0.1-0.1,0-0.2,0-0.3s0-0.1,0-0.2
				c-0.1-0.1,0-0.2,0-0.3c0-0.2-0.1-0.5,0-0.7c0-0.1,0-0.2,0-0.4v-0.1c-0.1-0.1,0-0.2,0-0.3s0-0.1,0-0.2c-0.1-0.1,0-0.2,0-0.3
				s0-0.1,0-0.2c0-0.1,0-0.2,0-0.3s0-0.1,0-0.2c0-0.1,0-0.2,0-0.4v-0.1c-0.1-0.1,0.1-0.3,0-0.4l0,0l0,0c0-0.2-0.3-0.1-0.4-0.2h-0.1
				c-0.1-0.1-0.3,0-0.4-0.2h-0.1c-0.1-0.1-0.3,0-0.4-0.2h-0.1c-0.1-0.1-0.3,0-0.4-0.2h-0.1c-0.1-0.1-0.3,0-0.4-0.2h-0.1
				c-0.1-0.1-0.3,0-0.4-0.2h-0.1c-1.1-0.4-2.1-0.9-3.2-1.3c-1.6-0.6-3.2-1.3-4.8-2c-0.2-0.1-0.3,0-0.4,0.2c-0.1,0.5-0.3,1.1-0.4,1.6
				c0,0.1-0.1,0.2-0.1,0.3c-0.2,0.1-0.2,0.3-0.3,0.5c0,0.2-0.1,0.4,0,0.5c0.5,0.4,1.2,0.6,1.8,0.9c0.3,0.2,0.5,0.4,0.4,0.8
				c-0.3,0.8-0.5,1.6-0.7,2.3c0,0.1,0,0.1-0.1,0.2c-0.1,0.3,0,0.7-0.2,1c-0.1,0.5-0.3,1-0.4,1.5c-0.1,0.2-0.1,0.4,0.1,0.7
				c0.2,0.3,0.4,0.6,0.6,1c0.5,1,1,2,1.2,3.2c-0.1,0.1,0,0.3,0,0.4c0.6,3.2,0,6.2-1.6,9l-0.1,0.1c0,0.1-0.1,0.2-0.1,0.3
				c-0.2,0.4-0.4,0.7-0.7,1.1c-1.3,1.8-2.9,3.3-4.7,4.5c-0.5,0.3-0.9,0.6-1.1,1.2c-0.3,1.3-0.8,2.6-1.1,3.9c-0.1,0.4,0,0.6,0.4,0.8
				c0.6,0.2,1.3,0.4,1.9,0.7c0.8,0.3,1.6,0.6,2.4,0.9c0.2,0.1,0.4,0.2,0.6,0.1l0,0c0.2,0.2,0.5,0.2,0.8,0.3c0.2,0.1,0.3,0.2,0.5,0
				c0-0.1,0-0.1,0-0.2c0.3-0.3,0.4-0.7,0.5-1.1c0.5-1.4,1.1-2.8,1.6-4.2c0.9-2.3,1.7-4.5,2.6-6.8c0.4-1.2,0.9-2.3,1.3-3.5
				c0,0.1,0,0.2-0.1,0.3c-0.6,3.3-1.1,6.6-1.7,9.9c0,0.1,0,0.2-0.1,0.3c0,0.1,0,0.3-0.1,0.4c-0.4,2.7-0.8,5.3-1.3,8
				c-0.2,0.8-0.2,1.6-0.3,2.3c0,0.2-0.1,0.5,0,0.7c0.5,0.2,1,0.5,1.5,0.8c1.1,0.5,2.1,1.1,3.2,1.6c0.3,0.2,0.7,0.4,1.1,0.6
				c0.2-0.4,0.4-0.7,0.7-1.1c0.1-0.2,0.1-0.3,0.2-0.5c0.5-1,1.1-1.9,1.6-2.9c0.4-0.7,0.8-1.4,1.2-2.1c0.1-0.1,0.1-0.2,0.2-0.3v-0.1
				c0.1-0.1,0.1-0.1,0.1-0.2l0,0c0-0.1,0.1-0.2,0.1-0.3c0.6-1.1,1.2-2.2,1.8-3.3c0.5-0.8,0.9-1.7,1.4-2.5c0.1-0.1,0.1-0.2,0.1-0.2
				l0,0l0,0c0.1-0.1,0-0.2,0.2-0.3c0.1-0.1,0.1-0.2,0.2-0.3l0,0c0.1-0.1,0.1-0.2,0.2-0.3c0-0.1,0.1-0.2,0.1-0.3
				c0.8-1.5,1.7-3,2.5-4.5c0.5-0.8,0.9-1.7,1.4-2.5c0-0.1,0.1-0.2,0.1-0.3c0.9-1.5,1.7-3.1,2.6-4.6c0.4-0.8,0.8-1.5,1.3-2.2
				c0-0.1,0.1-0.2,0.1-0.3c0.6-1.1,1.2-2.2,1.8-3.2c0.5-0.9,1.1-1.9,1.6-2.8C321.6,58,321.6,57.9,321.5,57.8z M299.9,67.5
				L299.9,67.5L299.9,67.5L299.9,67.5z"/>
			<path class="st13" d="M272.8,78.4c-0.1-0.2,0.1-0.4,0-0.6v-0.1c0.2-0.7,0.2-0.8-0.4-1.3c-1.3-0.9-2.3-2.1-3.1-3.4l-0.1-0.1
				l-0.1-0.1c-1.4-2.7-2-5.5-1.3-8.5c0.5-2.5,1.6-4.7,3.2-6.7c0.3-0.3,0.6-0.6,0.8-1c0,0,0-0.1,0.1-0.1c0,0,0-0.1,0.1-0.1l0,0
				l0.1-0.1l0,0l0,0l0,0c0.1,0,0.1-0.1,0.1-0.1c0.3-0.4,0.6-0.6,1-0.9c0.3-0.2,0.4-0.5,0.4-0.8c0-1.7,0.1-3.3,0.2-5
				c0-0.9,0-1.7,0.1-2.6c0-0.1,0-0.2,0-0.2c0.1-1.5,0.1-3.1,0.2-4.6c0-0.8,0-1.7,0.1-2.5c-0.1-0.3,0-0.6,0-1c0-0.2-0.1-0.3-0.3-0.4
				c-0.6-0.1-1.3-0.2-1.9-0.4c-1.1-0.2-2.2-0.4-3.4-0.6c-0.5-0.1-0.4-0.1-0.6,0.3c-0.1,0.2-0.1,0.5-0.3,0.7l-0.1,0.1
				c0,0.1,0,0.2,0,0.2s-0.1,0-0.1,0.1c-0.1,0.1-0.1,0.1-0.1,0.2c0,0.1-0.1,0.3-0.2,0.4c0,0,0,0.1-0.1,0.1c0,0.2-0.1,0.3-0.2,0.5
				c-0.2,0.5-0.4,1.1-0.6,1.6c-1,2.6-2,5.2-3,7.8l0,0c0.1-2.7,0.1-5.5,0.1-8.2c0-0.1,0-0.2-0.1-0.3c-0.1-0.8,0-1.5,0-2.3
				c0-0.2,0.1-0.4-0.1-0.5c-0.2,0-0.4,0-0.6-0.1c-2.4-0.5-4.8-0.9-7.2-1.4c-0.1,0-0.2,0-0.3-0.1c-0.2,0-0.3,0-0.3,0.2
				c-0.2,0.4-0.3,0.9-0.5,1.3h-0.1c-0.2,0.2-0.2,0.4-0.3,0.6c-0.3,0.8-0.6,1.7-0.9,2.5c0,0.1-0.1,0.1-0.1,0.2c0,0.1-0.1,0.3-0.2,0.4
				c0,0.1-0.1,0.1-0.1,0.2c0,0.2-0.1,0.3-0.2,0.4c-0.4,1.1-0.8,2.2-1.2,3.3c0,0,0,0.1-0.1,0.1c-0.1,0.2-0.1,0.4-0.2,0.6
				c-0.3,0.8-0.6,1.6-0.9,2.4c-0.4,1.2-1,2.4-1.3,3.6c0,0.3,0.3,0.5,0.4,0.8c0.5,0.6,0.9,1.2,1.4,1.8c0.2,0.2,0.2,0.4-0.1,0.5
				c-1.1,0.7-2.2,1.5-3.3,2.2c-0.5,0.3-0.8,0.7-1,1.3c-0.1,0.2,0,0.4-0.1,0.6c0,0.1-0.1,0.3-0.1,0.4c-0.4,1-0.8,2.1-1.2,3.1
				c-0.2,0.6-0.4,1.2-0.7,1.7c-0.3,0.4,0.1,0.5,0.3,0.5c1.3,0.5,2.6,1,3.9,1.5c0.7,0.3,1.5,0.6,2.2,0.8c0.1,0,0.2,0,0.2,0
				c0.3,0.1,0.7,0.2,1,0.4c0.3,0.1,0.3,0.1,0.4-0.2c0.2-0.7,0.5-1.3,0.7-2c0.3-0.8,0.5-1.5,0.9-2.3c0-0.1,0.1-0.3,0.1-0.4
				c0.3-0.7,0.5-1.5,0.8-2.2c0.6-1.5,1.1-3.1,1.7-4.6c0.2,0.2,0.2,0.4,0.3,0.7c0.6,2.4,1.2,4.8,1.8,7.2c0.1,0.3,0.1,0.5,0.2,0.8
				c0.2,0.5,0.2,1,0.5,1.4l0,0c0.1,0.4,0.2,0.8,0.3,1.3c0.2-0.1,0.2-0.3,0.3-0.4c0.5-0.8,1-1.7,1.6-2.5c0-0.2,0.1-0.3,0.2-0.4
				c0.5-0.8,0.9-1.5,1.4-2.2c0.4-0.7,0.9-1.3,1.2-2l0,0c0.1,0,0,0.1,0,0.2c0,0.2,0,0.3,0,0.5c-0.1,1.5-0.1,3-0.2,4.5
				c-0.1,2.3-0.2,4.6-0.3,6.8c0,0.7-0.2,1.3,0,2c0,0.4,0,0.9,0,1.3c0,0.5,0,0.5,0.4,0.6c1,0.4,2,0.7,3,1.1s2.1,0.7,3.1,1.1
				c0.5,0.3,1,0.3,1.5,0.6c0.1,0.1,0.3,0.1,0.4,0.2h0.1c0.2-0.1,0.1-0.3,0.1-0.5C272.8,78.5,272.8,78.4,272.8,78.4z"/>
			<path class="st13" d="M175,31.1c0-0.5,0-0.9,0-1.4c-0.1-0.1,0-0.2-0.1-0.3l0,0c0-0.1-0.1-0.2-0.1-0.3c-0.4-2-1.3-3.7-2.6-5.2
				c-0.4-0.5-0.9-0.9-1.3-1.4c0-0.1-0.1-0.1-0.2-0.2l0,0c0-0.1-0.1-0.1-0.2-0.1l-0.1-0.1l0,0c0-0.1-0.1-0.1-0.2-0.2l0,0l0,0l0,0
				c0-0.1-0.1-0.1-0.2-0.1l0,0l-0.1-0.1l0,0c0-0.1-0.1-0.1-0.2-0.2l0,0l0,0l0,0c0-0.1-0.1-0.1-0.2-0.1l0,0c0-0.1-0.1-0.1-0.2-0.1
				l0,0l0,0l0,0c0-0.1-0.1-0.1-0.2-0.1l0,0c0-0.1-0.1-0.1-0.2-0.1c0,0,0,0-0.1,0c0-0.1-0.1-0.1-0.2-0.1l0,0
				c-0.1-0.1-0.1-0.1-0.2-0.1h-0.1c-0.1-0.1-0.1-0.1-0.2-0.1l0,0l0,0l0,0c-0.1-0.1-0.2-0.1-0.3-0.2l0,0c-0.8-0.4-1.7-0.8-2.6-1.1
				c-3.2-1.2-6.5-1.7-9.9-1.8c-1.1,0-2.1,0-3.2,0H152c-0.1,0.1-0.2,0-0.3,0h-0.1c-0.1,0.1-0.2,0-0.3,0c0,0,0,0-0.1,0s-0.2,0-0.3,0
				h-0.1c-0.1,0.1-0.2,0-0.3,0l0,0c-0.1,0.1-0.2,0-0.3,0c0,0,0,0-0.1,0s-0.2,0-0.2,0h-0.1c-0.1,0-0.2,0-0.2,0h-0.1
				c-0.1,0-0.2,0-0.2,0c-0.1,0-0.2,0-0.2,0.1c-3.6,0.5-7.1,1.4-10.5,2.6c-0.1,0-0.2,0.1-0.3,0.1l0,0c0,0-0.1,0-0.1,0.1
				c0,0,0,0-0.1,0s-0.1,0-0.2,0.1c0.1,0.2,0.1,0.5,0.2,0.7l0,0c0.1,0.2,0.1,0.4,0.2,0.6c0.3,0.9,0.7,1.9,1,2.8l0,0v0.1V25
				c0,0.1,0,0.1,0,0.2v0.1c0,0.1,0,0.2,0.1,0.2c0.6,1.6,1.1,3.2,1.7,4.7c0.2,0.6,0.3,0.6,0.9,0.5c0.2,0,0.4-0.1,0.5-0.1
				c0.8-0.2,1.6-0.4,2.4-0.7c0.3-0.1,0.5-0.1,0.6,0.3c0.2,1.1,0.5,2.3,0.8,3.4c0.6,2.6,1.2,5.2,1.8,7.8s1.3,5.2,1.8,7.9
				c0,0.2,0.1,0.4,0.3,0.6c0.1,0.1,0.1,0.3,0.1,0.4c0.6,2.4,1.1,4.7,1.7,7.1c0.1,0.5,0.3,1,0.3,1.5c0.1,0.1,0.1,0.3,0.1,0.4
				c0.3,1.5,0.7,2.9,1,4.4c0.1,0.5,0.3,1,0.3,1.5c0.1,0.1,0.1,0.3,0.3,0.2c0.1,0,0.2,0,0.2,0c0.2-0.1,0.4-0.1,0.5-0.1
				c1.6-0.2,3.1-0.4,4.7-0.6c0.6-0.1,1.1-0.1,1.7-0.2c0.2,0,0.3-0.1,0.3-0.3c0-0.1,0-0.3,0-0.4c0-0.8-0.1-1.6-0.1-2.4
				c-0.1-0.1,0-0.2,0-0.3V61c0-0.1,0-0.2-0.1-0.2c-0.1-1.4-0.2-2.7-0.3-4.1c-0.1-0.9-0.2-1.7-0.1-2.6c-0.1-0.1,0-0.2,0-0.2
				c-0.2-2.4-0.3-4.8-0.5-7.3c1-0.5,2.1-0.9,3.1-1.4c0.9-0.3,1.6-0.8,2.4-1.2c0.6-0.4,1.2-0.7,1.7-1.3c0.2,0,0.3-0.1,0.5-0.3
				c1.1-0.9,2.2-1.9,3.1-3c0.3-0.4,0.6-0.7,0.8-1.2c0,0,0-0.1,0.1-0.1c0,0,0-0.1,0.1-0.1c0,0,0-0.1,0.1-0.1c0,0,0-0.1,0.1-0.1
				c0.1-0.2,0.3-0.4,0.4-0.6C174.1,35.5,174.9,33.4,175,31.1z"/>
			<path class="st13" d="M293.9,62.6c-0.1-0.8-0.2-1.7-0.7-2.4c-0.4-0.9-0.9-1.7-1.6-2.5c-2-2.2-4.5-3.2-7.4-3.3
				c-2.7-0.1-5.2,0.7-7.5,2.2c-0.3,0.2-0.6,0.3-0.8,0.6h-0.1c-0.1,0-0.2,0-0.2,0.1c-0.1,0-0.1,0.1-0.2,0.1l-0.1,0.1
				c-0.1,0.1-0.1,0.1-0.2,0.2c-2.6,2.2-4.2,4.9-4.6,8.3c0,0.2,0,0.4,0,0.7c0,2.5,0.7,4.7,2.4,6.5c0.1,0.2,0.3,0.3,0.5,0.4
				c0,0,0.1,0,0.1,0.1c1.5,1.4,3.4,2.2,5.4,2.5c0.8,0.1,1.6,0.1,2.4,0.1c0.9,0.1,1.7-0.1,2.5-0.3h0.1c0.7-0.2,1.4-0.5,2.1-0.8
				c0.5-0.3,1.1-0.5,1.6-0.9c0.2,0,0.3-0.1,0.5-0.2c1.6-1.1,2.9-2.5,4-4.1C293.5,67.5,294.1,65.1,293.9,62.6z"/>
			<path class="st13" d="M244,52C244,51.9,244,51.9,244,52c-0.1-0.1-0.1-0.2-0.2-0.2l-0.1-0.1l0,0l-0.1-0.1l0,0c-0.8-1-1.5-2-2.3-3
				c-0.6,0.5-1.2,0.9-1.8,1.3l0,0c-0.3,0-0.5,0.1-0.7,0.3l-0.1,0.1l-0.1,0.1c-1.4,0.6-2.8,0.8-4.3,0.8c-0.6,0-1.1,0-1.6-0.2
				c1-0.7,1.9-1.4,2.9-2.1c2.2-1.6,4.4-3.2,6.6-4.8c0.2-0.2,0.5-0.3,0.7-0.5l0.1-0.1c0.2-0.3,0.6-0.4,0.8-0.8
				c0.7-0.4,1.3-0.9,1.9-1.4c-0.1-0.1,0-0.2-0.1-0.2l0,0l0,0l0,0c0-0.1,0-0.1-0.1-0.1l0,0l0,0l0,0c0-0.1,0-0.1-0.1-0.1l0,0
				c0-0.1,0-0.1-0.1-0.1l0,0c0-0.1,0-0.1-0.1-0.1l0,0c0,0,0-0.1-0.1-0.1l0,0l-0.1-0.1l0,0l-0.1-0.1l0,0l-0.1-0.1l0,0l-0.1-0.1l0,0
				l-0.1-0.1l0,0l-0.1-0.1l0,0c-0.1-0.2-0.3-0.3-0.4-0.5c-1.1-1.3-2.4-2.4-3.9-3.2c-2.1-1.1-4.3-1.6-6.6-1.6c-2.7,0-5.4,0.5-7.8,1.8
				c-0.5,0.3-1,0.6-1.4,1c-0.2,0.1-0.4,0.2-0.5,0.3c-0.5,0.2-0.9,0.6-1.2,1c-2.3,2.4-3.2,5.3-3.2,8.5c0,2.3,0.7,4.5,2.1,6.3
				c0.5,0.6,0.9,1.3,1.7,1.7c0.1,0.1,0.2,0.1,0.3,0.2c1.7,1.5,3.8,2.4,6,2.9s4.4,0.5,6.7,0.2c1-0.1,2-0.3,3.1-0.5
				c0.2-0.1,0.4,0,0.5-0.1c1.5-0.4,2.8-1,4.1-1.6c0.1-0.1,0.2-0.1,0.2-0.2c0,0,0,0,0-0.1c0.7-0.3,1.3-0.8,1.9-1.2
				C245.4,53.8,244.7,52.9,244,52z"/>
		</g>
		<g>
			<path class="st14" d="M229.1,43.2c0.3-0.3,0.6-0.7,1-0.9c1.2-0.3,2.4-0.2,3.4,0.5v0.1c-0.4,0.4-0.9,0.7-1.3,1.1
				c-1.2,0.9-2.3,1.8-3.5,2.7c-0.3-0.6-0.2-1.2-0.2-1.8C228.5,44.3,228.8,43.8,229.1,43.2z"/>
			<path class="st14" d="M233.6,42.8C233.6,42.9,233.6,42.9,233.6,42.8C233.6,42.9,233.5,42.9,233.6,42.8L233.6,42.8
				C233.5,42.8,233.5,42.8,233.6,42.8z"/>
			<path class="st14" d="M162.2,37.6c0-0.9-0.2-1.8-0.3-2.8c-0.1-0.8-0.2-1.5-0.2-2.3c0.1-0.1,0.3,0,0.4,0c1.2,0.4,1.9,1.4,1.8,2.7
				c-0.1,0.8-0.1,1.6-0.6,2.2c-0.1,0.2-0.3,0.3-0.2,0.6c-0.2,0.2-0.5,0.4-0.8,0.5C162.3,38.2,162.3,37.9,162.2,37.6z"/>
		</g>
		<g>
			<path class="st15" d="M326.1,56.6c-0.1,0-0.2-0.1-0.3-0.1c-4.6-2.1-9.2-4.2-13.8-6.3c-0.1,0-0.2-0.1-0.3,0
				c-0.3,0.5-0.5,1.1-0.8,1.6c-0.2,0.4-0.3,0.7-0.5,1.1c-0.1,0.3-0.2,0.5-0.4,0.8c0,0.1-0.1,0.2-0.1,0.3c0,0,0,0.1-0.1,0.1
				c-0.1,0.2-0.2,0.4-0.2,0.6c0,0.1-0.1,0.2-0.1,0.3c0,0,0,0.1-0.1,0.1c0,0.1,0,0.1-0.1,0.2v0.1c-0.1,0,0-0.1,0-0.1v-0.1
				c0-0.1,0-0.2,0-0.3s0-0.1,0-0.2c0-0.1,0-0.2,0-0.3s0-0.1,0-0.2c0-0.1,0-0.2,0-0.3s0-0.2,0-0.3c0-0.5-0.1-1,0-1.5
				c0-0.3,0-0.7-0.1-1l0,0c0,0,0.1,0,0.1-0.1c-0.1,0-0.1-0.1-0.2-0.1c0-0.1,0-0.1,0-0.2c0.1-0.4,0-0.8,0-1.3c0-0.3-0.1-0.5-0.4-0.6
				c-4.9-2.1-9.8-4.2-14.7-6.3c-0.7-0.3-1.3-0.6-2-0.8c-0.4,0.6-0.4,1.3-0.5,2c0,0.2,0,0.5-0.1,0.7c-0.2,1-0.4,2-0.6,3.1
				c0,0.1,0,0.3,0.1,0.4c-0.1,0.4-0.2,0.8-0.2,1.2c-0.1,0.6-0.2,1.1-0.3,1.7c0,0.3-0.2,0.6-0.1,0.9c0.5,0.5,1.1,0.6,1.7,0.9
				c0.1,0,0.2,0,0.3,0l0,0c-0.1,0.2,0.2,0.2,0.2,0.4c0,0.4-0.2,0.7-0.3,1.1c0,0.2-0.2,0.3-0.4,0.1c-0.4-0.3-0.8-0.5-1.1-0.8
				c-3.6-2.6-9.6-2.1-13.5-0.4c-0.1,0-0.2,0.1-0.3,0.1c0-1.1,0.1-2.3,0.1-3.4c0-0.8,0.1-1.6,0.1-2.4c0-0.2,0-0.3,0-0.5
				c0.1-1.7,0.1-3.3,0.2-5c0-0.8,0.1-1.6,0-2.4c0.1-1.1,0.1-2.2,0.1-3.3c0-0.4,0-0.4-0.4-0.5c-3.7-0.7-7.4-1.4-11.1-2.1
				c-0.1,0-0.3-0.1-0.4,0c-0.3,0.3-0.4,0.7-0.5,1.1c-0.2,0.6-0.3,0.6-0.9,0.5c-0.7-0.1-1.4-0.3-2.2-0.4c-0.2,0.1-0.4,0-0.6,0
				c-2.1-0.4-4.2-0.8-6.2-1.2c-0.9-0.2-1.8-0.3-2.7-0.5c-0.1,0-0.2,0-0.2,0c0.1,0,0.1,0.1,0.1,0.1c0,0.1-0.1,0.1-0.1,0.2
				c0,0.1-0.1,0.1-0.1,0.2c0,0.1-0.1,0.3-0.1,0.4c0,0.1-0.1,0.2-0.1,0.3s-0.1,0.3-0.1,0.4c0,0.1,0,0.1,0,0.2l0,0
				c0,0.1-0.1,0.1-0.1,0.2c-0.1,0.3-0.2,0.6-0.4,0.9c-0.2,0.8-0.5,1.6-0.8,2.4c-0.1,0.4-0.2,0.8-0.5,1.2c0,0.2-0.1,0.4-0.1,0.6
				c-0.2,0.3-0.3,0.7-0.5,1.1c-0.2-0.3-0.4-0.6-0.5-0.9l0,0l0,0l0,0c-0.3-0.9-0.8-1.7-1.4-2.4c-0.2,0-0.3-0.2-0.4-0.4
				c-1.3-1.7-2.9-3-4.7-4.1c-1.1-0.6-2.2-1.1-3.4-1.4c-0.4-0.2-0.8-0.2-1.2-0.3c-0.1,0-0.2-0.1-0.1-0.2c0.1,0,0.2,0,0.2-0.1
				c0.1,0,0.2,0,0.2-0.1c0.1,0,0.2,0,0.2-0.1l0,0c0.1,0,0.2,0,0.2-0.1l0,0c0,0,0.1-0.1,0.2-0.1l0,0l0,0l0.1-0.1l0,0
				c0,0-0.1,0-0.1,0.1c0.1,0,0.1,0,0.1,0c0.1,0,0.2,0,0.2-0.1c0.1,0,0.2,0,0.2-0.1c0.1,0,0.2,0,0.2-0.1c0.1,0,0.2,0,0.2-0.1
				c0.1,0,0.2,0,0.2-0.1l0,0c0.1,0,0.1-0.1,0.2-0.1l0,0l0,0l0.1-0.1l0,0c0,0-0.1,0-0.1,0.1c0.1,0,0.1,0,0.1,0c0.1,0,0.2,0,0.2-0.1
				c0.1,0,0.2,0,0.2-0.1c0.1,0,0.2,0,0.2-0.1c0.1,0,0.2,0,0.2-0.1l0,0c0.1,0,0.2,0,0.2-0.1l0,0c0.1,0,0.1-0.1,0.2-0.1l0,0l0,0
				l0.1-0.1l0,0c-0.1,0-0.1,0-0.1,0.1c0.1,0,0.1,0,0.1,0c0.1,0,0.2,0,0.2-0.1c0.1,0,0.2,0,0.2-0.1c0.1,0,0.2,0,0.2-0.1
				c0.1,0,0.2,0,0.2-0.1l0,0l0,0l0,0l0,0l0,0l0,0c0.1,0,0.2,0,0.2-0.1l0,0c0,0,0.1-0.1,0.2-0.1l0,0l0,0l0.1-0.1l0,0
				c-0.1,0-0.1,0-0.1,0.1c0.1,0,0.1,0,0.1,0c0.1,0,0.2,0,0.2-0.1c0.1,0,0.2,0,0.2-0.1c0.1,0,0.2,0,0.2-0.1c0.1,0,0.2,0,0.2-0.1
				c0.3,0,0.5-0.1,0.8-0.3l0,0c0.1,0,0.2,0,0.2-0.1l0,0c0.1,0,0.2,0,0.3-0.1c1.1-0.3,2.2-0.7,3.2-1c0.1,0,0.2-0.1,0.2-0.1
				c0.1,0,0.2-0.1,0.1-0.3c-0.4-0.8-0.7-1.7-1.1-2.5c0-0.2-0.1-0.4-0.2-0.5c-1.2-2.9-2.5-5.8-3.7-8.8c-0.1-0.2-0.2-0.3-0.2-0.5H243
				v0.1c-0.1,0-0.2,0-0.2,0.1c0,0,0,0,0.1,0l0,0c-0.8,0.6-1.6,1.2-2.4,1.8l-0.1,0.1c0,0,0,0-0.1,0l-0.1,0.1c0,0,0,0-0.1,0l-0.1,0.1
				l-0.1,0.1c-0.4,0.3-0.8,0.6-1.1,0.9c-0.3,0.2-0.4,0.4-0.7,0.6l-0.1,0.1c0,0,0,0-0.1,0c0,0-0.1,0-0.1,0.1c0,0,0,0-0.1,0
				c0,0-0.1,0-0.1,0.1l-0.1,0.1c-0.3,0.3-0.7,0.5-1,0.8c-0.4,0.3-0.7,0.6-1.1,0.8c-0.3,0.2-0.6,0.5-0.9,0.7c0,0-0.1,0-0.1,0.1
				l-0.1,0.1c-0.3,0.3-0.7,0.6-1.1,0.9c-0.2,0.2-0.6,0.4-0.8,0.6l-0.1,0.1l0,0l-0.1,0.1c0,0-0.1,0-0.1,0.1c-0.1,0.1-0.4,0.2-0.4,0.4
				c-0.3,0.1-0.4,0.4-0.7,0.5c-0.3,0.3-0.5,0.5-0.9,0.7c0,0.1-0.1,0.2-0.1,0.2c-0.4,0.2-0.7,0.5-1.1,0.8c-0.7,0.5-1.3,1-2,1.5
				c-0.1,0.1-0.1,0.2-0.2,0.3c-0.1,0.5,0.3,0.9,0.5,1.3c0.1,0.2,0.2,0.6,0.5,0.7l0,0c-0.1,0.1,0,0.2,0,0.3c0,0.2,0.1,0.3,0.2,0.4
				c0.2,0.3,0.2,0.5-0.2,0.6c-0.7,0.1-1.3,0.4-2,0.6h-0.1h-0.1c-0.2,0.1-0.5,0.1-0.8,0.3c0,0.1-0.2,0.2-0.3,0.2
				c-0.2,0.1-0.4,0.1-0.6,0.2c-0.6,0.1-1.2,0.3-1.7,0.5c-0.2,0-0.3-0.1-0.4-0.3c-0.3-0.3-0.5-0.7-0.8-1c-0.8-1-1.5-2-2.3-2.9
				c0,0,0-0.1-0.1-0.1l0,0c0-0.1-0.1-0.1-0.1-0.2l0,0c-0.1,0-0.1-0.1-0.1-0.1l-0.1-0.1l0,0l-0.1-0.1l0,0l-0.1-0.1l0,0l-0.1-0.1l0,0
				c0,0,0-0.1-0.1-0.1c-1.6-2.1-3.3-4.3-4.9-6.4c-0.1-0.1-0.1-0.2-0.3-0.2c-0.3,0.3-0.6,0.6-0.8,0.9c0,0.1-0.1,0.1-0.1,0.2l-0.1,0.1
				l-0.1,0.1l-0.1,0.1c-0.1,0.2-0.2,0.3-0.4,0.5c-0.1,0.2-0.2,0.3-0.4,0.4l-0.1,0.1l-0.1,0.1c-0.1,0.2-0.2,0.3-0.4,0.5
				c0,0.1-0.1,0.1-0.1,0.2l-0.1,0.1c-0.1,0.2-0.2,0.3-0.4,0.5s-0.4,0.4-0.5,0.6c0,0.1-0.1,0.1-0.1,0.2l-0.1,0.1
				c-0.1,0.2-0.2,0.3-0.3,0.5c-0.2,0-0.3,0.2-0.3,0.4v0.1H208c-0.2,0-0.3,0.3-0.5,0.3c-0.1-0.1-0.1-0.2-0.1-0.3c0,0,0-0.1,0.1-0.1
				c0.3-0.9,0.3-1.8,0.5-2.7c0-0.2,0-0.3,0.1-0.4c0-0.1,0.1-0.1,0.1-0.2v-0.1c-0.1-0.2,0-0.4,0-0.6c0.1-0.6,0.2-1.2,0.4-1.8
				c-0.2,0-0.4,0-0.6,0c-4.3,0.5-8.7,1-13,1.6c-1.8,0.2-3.6,0.4-5.3,0.7c0,0.1,0,0.1,0,0.2c0,0.2,0,0.3,0,0.5s-0.1,0.4-0.1,0.7
				c0.1,0.1,0,0.3,0,0.4c-0.1,0.6-0.2,1.1-0.3,1.7c0.1,0.2,0,0.3,0,0.5c-0.1,0.5-0.2,1-0.3,1.4c0.1,0.2,0,0.3,0,0.5
				c-0.1,0.5-0.2,1.1-0.3,1.6c0.1,0.1,0.1,0.2,0,0.3l-0.1,0.1c-0.2,0.4-0.2,0.9-0.3,1.4c0,0.2,0,0.4,0.2,0.5c0.3,0.1,0.6,0,0.9,0
				c0.6,0,1.2-0.1,1.8-0.1c0.3,0,0.2,0.3,0.2,0.5c-0.1,1.2-0.2,2.4-0.3,3.7c0,0.3-0.2,0.3-0.4,0.2c-0.1-0.1-0.2-0.1-0.3-0.2
				l-0.1-0.1c-0.4-0.2-0.7-0.4-1.1-0.6c-0.5-0.2-0.9-0.4-1.3-0.6c-0.1,0.2-0.2,0.1-0.3,0.1c-1.5-0.5-3.1-0.7-4.7-0.7
				c-2.2,0-4.3,0.5-6.3,1.3c-0.1,0.1-0.2,0.2-0.4,0.1c0-0.1,0-0.2,0.1-0.3c0.5-1.3,0.9-2.6,1-3.9c0.1-0.9,0.2-1.8,0-2.7
				c0-0.1,0-0.2,0-0.4c-0.2-1.9-0.8-3.6-1.8-5.3c-0.6-1-1.2-2-2-2.8V21c-1.4-1.4-2.8-2.8-4.6-3.8c-2-1.2-4.3-1.9-6.5-2.5
				c-2.4-0.6-4.9-0.9-7.4-1c-3.2-0.1-6.3,0.2-9.5,0.8c-1.2,0.2-2.5,0.4-3.7,0.8c-0.3,0-0.6,0.1-0.9,0.2c-2.9,0.7-5.6,1.9-8.3,2.9
				c-0.1,0-0.1,0.1-0.2,0.1c0.3,0.2,0.2,0.6,0.4,0.8c0,0.2,0.1,0.4,0.2,0.6V20c0,0.1,0.1,0.3,0.1,0.4s0,0.2,0.1,0.2l0,0
				c0.2,0.4,0.4,0.9,0.5,1.3c0.1,0.2,0.2,0.4,0.3,0.6c0.2,0.4,0.2,0.8,0.4,1.1c0,0.1,0,0.1,0,0.2c0.3,0.5,0.5,1.1,0.6,1.7
				c0.3,0.5,0.4,1,0.5,1.6c0.2,0.4,0.4,0.8,0.5,1.3c0,0.1,0,0.2,0.1,0.2l0,0c0.3,0.5,0.4,1.1,0.6,1.7c0.2,0.4,0.3,0.7,0.4,1.1
				c0,0.1,0,0.2,0.1,0.2l0,0h0.1c0,0.2,0.1,0.3,0.1,0.5c0.1,0.4,0.3,0.7,0.3,1c0.3,0.5,0.4,1.1,0.6,1.7c0.9-0.2,1.8-0.4,2.7-0.7
				c0.1,0,0.2,0,0.3-0.1c0.1,0,0.2,0,0.2-0.1c0.1,0,0.1,0,0.2,0c0.1-0.1,0.1-0.1,0.2-0.1c0.1,0.4,0.2,0.7,0.3,1.1
				c0.2,0.8,0.4,1.6,0.5,2.4c0.2,0.7,0.4,1.4,0.5,2.2c0.1,0.5,0.3,1,0.4,1.5v0.1v0.1c0,0,0,0.1,0.1,0.1l0,0v0.1c0,0.1,0,0.2,0.1,0.2
				c0.2,0.5,0.3,0.9,0.3,1.4c0.2,0.9,0.5,1.8,0.6,2.7l0,0c0,0.1,0,0.2,0.1,0.2c0,0.1,0.1,0.1,0.1,0.2c0.2,0.9,0.4,1.8,0.6,2.7v0.1
				l0,0c0,0.1,0,0.2,0,0.2l0,0l0,0c0,0.1,0,0.2,0.1,0.2c0.2,0.6,0.3,1.1,0.4,1.7l0,0c0,0.1,0,0.2,0.1,0.2v0.1c0,0.1,0,0.1,0.1,0.1
				c0.1,0.4,0.3,0.8,0.3,1.3l0,0c0,0.1,0,0.2,0.1,0.2c0.2,0.4,0.2,0.9,0.4,1.4c0.2,0.9,0.4,1.9,0.7,2.8c0,0.5,0.2,1.1,0.3,1.6
				c0.3,1.4,0.6,2.7,1,4.1c0,0.1,0,0.2,0.1,0.2l0,0c0,0.1,0,0.2,0.1,0.2v0.1c0,0,0,0.1,0.1,0.1v0.1l0.1,0.1v0.1c0,0.1,0,0.2,0.1,0.2
				l0,0c0,0.1,0,0.2,0.1,0.2l0,0c0,0.5,0.2,1.1,0.3,1.6c0.2,1,0.5,1.9,0.7,2.9c0.1,0.2,0.2,0.3,0.4,0.3c0.7-0.1,1.4-0.2,2.2-0.3
				c1.4-0.2,2.9-0.3,4.3-0.5c1-0.1,2-0.2,3-0.4c0.1,0,0.1,0,0.2,0h0.1c0.1,0,0.1,0,0.2,0l0,0h0.1c0.1,0,0.1,0,0.2,0
				c0.1,0,0.2,0,0.2,0h0.1c0.1,0,0.2,0,0.2,0c0.1,0,0.1,0,0.2,0c0.1,0,0.1,0,0.1,0c0.1,0,0.1,0,0.2,0c0.1,0,0.1,0,0.1,0
				c0.1,0,0.1,0,0.2,0c0.1,0,0.1,0,0.1,0c0.1,0,0.2,0,0.3,0s0.2,0.1,0.3,0c0.1,0,0.2,0.1,0.3,0l0,0c0.2,0.1,0.4-0.1,0.6,0.1
				c0.3,0,0.4-0.2,0.3-0.5c-0.1-1-0.1-2-0.2-2.9c-0.1-0.7,0-1.4-0.2-2.1c0-0.1,0-0.2,0-0.3v-0.1c0-0.1,0-0.2,0-0.3
				c-0.1-1.5-0.2-2.9-0.3-4.4c0-0.2,0-0.3,0.1-0.5l0,0c0,0,0,0,0-0.1s0-0.1,0-0.2c0-0.3,0-0.6,0-1c0-0.1,0-0.2,0-0.3s0-0.2,0-0.2
				c0-0.1,0-0.3-0.2-0.3c0.2-0.1,0.1-0.3,0.1-0.5c0-0.5,0-0.9-0.1-1.4c-0.1-0.6-0.1-1.1-0.1-1.7c0-0.6-0.1-1.2-0.1-1.8
				c0-0.3,0.1-0.5,0.3-0.6c1-0.4,1.9-1,2.8-1.5c-0.4,0.9-0.3,1.9-0.5,2.8c0,0.1,0,0.1,0,0.1c0,0.2,0,0.3,0,0.5c0,0.5,0,0.9,0,1.4V52
				c0,0.1,0,0.2,0,0.3c0,0.4,0.1,0.9,0.2,1.3c0,0.2,0,0.4,0.2,0.4c0,0,0,0-0.1,0.1c0,0,0,0.1,0,0.2c0,0.1,0,0.2,0.1,0.3
				c0.2,0.8,0.5,1.5,0.9,2.2c0.5,1,1.2,1.9,1.9,2.8c1,1.1,2.2,2,3.5,2.7c0,0,0.1,0,0.1,0.1c0.1,0,0.2,0.1,0.4,0.2
				c1.3,0.6,2.6,1,4,1.2c0.6,0,1.2,0.1,1.8,0.1c1.9,0,3.8-0.2,5.6-0.8h0.1c0,0,0,0,0,0.1c0.1,0,0.2-0.1,0.2-0.1
				c0.1,0,0.2-0.1,0.3-0.2c0,0,0.1,0,0.1-0.1c0.2-0.1,0.4-0.1,0.6-0.2c0.3-0.1,0.6-0.3,0.9-0.4c0,0,0.1,0,0.1-0.1c0,0,0.1,0,0.1-0.1
				c0.2-0.2,0.5-0.3,0.8-0.4c0.1,0,0.1-0.1,0.2-0.1c0.1-0.1,0.3-0.2,0.4-0.1c0.1,0.1,0.1,0.3,0,0.4c-0.1,0.5-0.1,1.1-0.2,1.6
				c-0.1,1-0.2,2-0.3,3c0,0.4,0.1,0.6,0.5,0.7c4.1,0.2,8.1,0.4,12.2,0.5c0.1,0,0.2,0,0.2-0.1c0.2-0.1,0.2-0.3,0.2-0.5
				c0.5-2.5,1-4.9,1.4-7.4c0.2-0.1,0.2-0.4,0.2-0.5c0.1-0.7,0.3-1.3,0.4-2c0.1-0.6,0.1-0.6,0.6-0.2c1.6,1.2,3.2,2.4,4.8,3.6
				c0.2,0.1,0.3,0.3,0.5,0.3c0.1,0,0.1,0,0.2,0c0.5,0.4,1,0.8,1.5,1.1V62c0.1,0,0.1,0,0.2,0c0.1,0.2,0.3,0.3,0.5,0.4
				c1.8,1.4,3.6,2.7,5.4,4.1c0.1,0.1,0.3,0.2,0.4,0.4c0.2,0,0.3,0.2,0.4,0.3c1.3,1,2.7,2.1,4,3.1c0.3,0.2,0.7,0.4,0.9,0.7
				c0.1,0,0.2,0.1,0.2,0.1c1.4,1.1,2.8,2.1,4.2,3.2c0,0,0,0.1,0.1,0.1c0.2-0.1,0.1-0.3,0.2-0.5c0.6-2.9,1.1-5.8,1.7-8.8
				c0.1-0.5,0.2-1.1,0.3-1.6c0,0,0,0,0-0.1c0.1-0.2,0.1-0.4,0.1-0.6c0.1-0.3,0-0.7,0.3-0.9c0.3-0.1,0.5,0,0.8,0
				c3.4,0.2,6.7-0.3,9.9-1.3c0.2-0.1,0.3-0.1,0.5-0.2c0.1,0.1-0.1,0.2-0.1,0.3c0,0.1-0.1,0.1-0.1,0.2s-0.1,0.3-0.1,0.4
				s-0.1,0.1-0.1,0.2s-0.1,0.3-0.1,0.4s-0.1,0.1-0.1,0.2c0,0.2-0.1,0.3-0.2,0.5c0,0.1-0.1,0.1-0.1,0.2s-0.1,0.3-0.2,0.4
				c0,0.1,0,0.2,0,0.2l0,0v0.1c-0.4,1-0.7,2-1.1,3c-0.1,0.3,0.1,0.4,0.3,0.5c0.3,0.1,0.5,0.2,0.8,0.3c1.2,0.4,2.3,0.8,3.5,1.3
				c0.9,0.3,1.9,0.7,2.8,1c0.5,0.2,1,0.3,1.4,0.6c0.2,0.1,0.5,0.1,0.7,0.2c0.5,0.2,1,0.4,1.5,0.5c0.8,0.3,1.5,0.6,2.3,0.9
				c0.3,0.2,0.5,0.1,0.6-0.2c0.5-1.4,1-2.8,1.5-4.2c0.4,1.4,0.9,2.9,1.4,4.3c0.1,0.4,0.1,0.8,0.4,1.1c0.3,0.5,0.3,1.1,0.6,1.7
				c0.4-0.3,0.6-0.8,1-1.1c0.8-0.7,1.4-1.6,1.9-2.3c0,0.4-0.3,0.9,0,1.5l0,0c0,0-0.1,0-0.1,0.1c-0.2,0.4-0.1,0.8-0.2,1.2
				c-0.1,0.9-0.1,1.8-0.2,2.7c0,0.1,0,0.1,0,0.2c0,0.2,0,0.4-0.1,0.7c-0.1,0.5,0,0.9,0.6,1.1c4.8,1.8,9.6,3.6,14.3,5.5
				c0.2,0.1,0.4,0.2,0.7,0.1c0,0,0.1,0,0.1-0.1c0-1,0.1-2,0.1-3c0-0.2,0.1-0.3,0-0.5l0,0c0-0.1,0-0.1,0-0.2c0-0.2,0.1-0.3,0.3-0.3
				c-0.1,0-0.1,0-0.2,0c0,0,0-0.1,0.1-0.1c0-0.2,0-0.4,0.1-0.6c0-0.5,0.1-0.5,0.5-0.4c0.5,0.1,1,0.2,1.4,0.3c0.2,0,0.4,0.1,0.6-0.1
				c0.8,0.2,1.6,0.1,2.5,0.1s1.8-0.2,2.8-0.4c0.2-0.1,0.4-0.2,0.6-0.1c0,0.3-0.1,0.5-0.2,0.8c-0.3,0.9-0.6,1.7-0.8,2.6
				c-0.3,0.7-0.5,1.5-0.7,2.2c0.1,0,0.2,0.1,0.3,0.1c0,0.1,0.1,0.1,0.2,0.1c0.7,0.2,1.4,0.5,2.1,0.7c1,0.3,2.1,0.7,3.1,1.1
				c0.8,0.3,1.7,0.6,2.5,0.9c0.6,0.2,1.2,0.5,1.9,0.6c0.1,0.1,0.2,0.1,0.3,0.2c0,0.1,0,0.1,0,0.2s0,0.2-0.1,0.3c0,0.1,0,0.2-0.1,0.3
				V89l0,0c0,0,0,0-0.1,0c-0.2,0.2-0.2,0.4-0.2,0.6c-0.1,0.6-0.1,1.2-0.3,1.8c-0.1,0.3-0.2,0.7-0.1,1c0.1,0.3,0.4,0.3,0.6,0.5
				c2.5,1.4,4.9,2.7,7.4,4c0.8,0.4,1.6,1,2.4,1.2c0.2,0,0.2-0.1,0.2-0.2c0.2-0.4,0.5-0.8,0.7-1.2c0.6-1.1,1.2-2.3,1.9-3.4
				c0.1,0,0.1-0.1,0.1-0.2c0,0,0,0,0-0.1c0.6-1,1.2-2,1.7-3c0.4-0.8,0.9-1.5,1.3-2.3c0.1,0,0.1-0.1,0.1-0.2c0,0,0,0,0-0.1
				c0.6-1,1.1-2,1.7-3c0.4-0.7,0.8-1.4,1.1-2.1c0.1,0,0.1-0.1,0.1-0.2c0,0,0,0,0-0.1c0.1,0,0.1-0.1,0.1-0.2l0,0c0,0,0,0,0-0.1
				c0.1,0,0.1-0.1,0.1-0.2c0,0,0,0,0-0.1c0.1-0.1,0.1-0.2,0.2-0.3c0.1-0.1,0.1-0.2,0.2-0.3c0.1-0.1,0.2-0.3,0.3-0.4
				c1-1.8,2-3.6,3.1-5.5c0.4-0.7,0.8-1.3,1.1-2.1c0.1-0.1,0.2-0.3,0.3-0.4c0.8-1.4,1.6-2.9,2.4-4.3c0.4-0.8,0.9-1.5,1.3-2.3
				c0.1,0,0.1-0.1,0.1-0.2v-0.1c0.1-0.1,0.2-0.3,0.3-0.4c1-1.8,2-3.6,3-5.4c0.2-0.3,0.4-0.6,0.5-0.9c0.4-0.5,0.6-1,0.9-1.5
				C326.2,56.8,326.2,56.7,326.1,56.6z M320.2,65L320.2,65L320.2,65z M305.1,49.2C305.1,49.2,305.1,49.3,305.1,49.2
				C305.1,49.3,305.1,49.2,305.1,49.2L305.1,49.2z M275.4,57.4L275.4,57.4L275.4,57.4L275.4,57.4C275.4,57.4,275.5,57.4,275.4,57.4
				C275.5,57.4,275.4,57.4,275.4,57.4L275.4,57.4z M248.3,44.1L248.3,44.1L248.3,44.1c0,0.1,0,0.2-0.1,0.3c0,0.1-0.1,0.1-0.1,0.2
				c-0.1,0.1-0.1,0.2-0.2,0.3c-0.2,0.6-0.4,1.1-0.6,1.7c-0.3,0.7-0.5,1.5-0.8,2.2c-0.5-0.7-1-1.3-1.5-1.9c-0.2-0.2-0.1-0.4,0.1-0.5
				c0.5-0.4,1.1-0.8,1.6-1.2c0.4-0.3,0.9-0.5,1.1-1C248,44.3,248.1,44.2,248.3,44.1z M238.9,23.2c0.6-0.5,1.2-1,1.8-1.5
				c0.4-0.4,0.9-0.7,1.3-1.1c0.3-0.3,0.4-0.2,0.6,0.1c0.5,1.2,1.1,2.3,1.7,3.5c0.1,0.2,0.1,0.4,0.4,0.5l0,0v0.1l0,0v0.1V25v0.1l0,0
				c0,0,0,0.1,0.1,0.1c0,0,0,0.1,0.1,0.1c0,0,0,0.1,0.1,0.1v0.1v0.1v0.1c0,0.1,0,0.1,0,0.2c-0.7,0.3-1.4,0.4-2.2,0.7
				c-0.9,0.2-1.8,0.5-2.6,0.7c-0.2,0.1-0.4,0.1-0.5,0.3h-0.1l0,0h-0.1h-0.1l0,0l0,0h-0.1l0,0l0,0l0,0h-0.1l0,0l0,0l0,0h-0.1l0,0l0,0
				l0,0H239c0,0,0,0-0.1,0l0,0c0,0,0,0-0.1,0h-0.1c-0.1,0-0.1,0-0.2,0h-0.1c0,0-0.1,0-0.1,0.1l0,0c-0.2,0-0.5,0.1-0.7,0.2l0,0h-0.1
				c-0.1,0-0.1,0-0.2,0h-0.1c0,0-0.1,0-0.2,0h-0.1h-0.1h-0.1h-0.1h-0.1h-0.1h-0.1h-0.1h-0.1H236h-0.1h-0.1h-0.1h-0.1h-0.1h-0.1h-0.1
				h-0.1h-0.1H235h-0.1c-0.1,0-0.1,0-0.2,0h-0.1c-0.1,0-0.2,0-0.2,0c-0.1,0-0.1,0-0.2,0c-0.3,0.1-0.6,0.1-0.8-0.3
				c-0.2-0.6-0.3-0.7,0.2-1c0.4-0.3,0.8-0.6,1.2-1l0.1-0.1l0,0l0.1-0.1l0.1-0.1l0.1-0.1l0,0c0,0,0.1,0,0.1-0.1l0,0
				c0,0,0.1,0,0.1-0.1l0,0c0,0,0.1,0,0.1-0.1l0,0c0,0,0.1,0,0.1-0.1c0,0,0,0,0.1-0.1c0,0,0-0.1,0.1-0.1l0,0c0,0,0.1,0,0.1-0.1l0,0
				c0,0,0.1,0,0.1-0.1l0,0c0,0,0.1,0,0.1-0.1l0.1-0.1l0,0c0.1-0.1,0.1-0.1,0.2-0.2c0,0,0,0,0.1,0c0,0,0.1,0,0.1-0.1l0,0
				c0,0,0.1,0,0.1-0.1l0.1-0.1l0.1-0.1l0,0c0,0,0.1,0,0.1-0.1l0,0c0,0,0.1,0,0.1-0.1l0,0c0,0,0.1,0,0.1-0.1l0.1-0.1l0.1-0.1l0,0
				c0,0,0.1,0,0.1-0.1l0,0c0,0,0.1,0,0.1-0.1l0,0c0,0,0.1,0,0.1-0.1c0,0,0.1,0,0.1-0.1c0,0,0-0.1,0.1-0.1l0,0l0,0l0,0l0,0l0,0
				c0,0,0.1,0,0.1-0.1l0,0c0,0,0.1,0,0.1-0.1l0,0c0,0,0.1,0,0.1-0.1c0,0,0.1,0,0.1-0.1c0,0,0-0.1,0.1-0.1l0,0
				C238.6,23.5,238.8,23.3,238.9,23.2z M214.5,46c0-0.1-0.1-0.2-0.2-0.2c-0.2-0.1-0.4-0.3-0.6-0.4c-0.5-0.3-0.5-0.3,0-0.7
				c0.5-0.3,1-0.7,1.5-1s0.9-0.6,1.5-1c-0.3,1-0.4,2-0.5,2.9c0,0.3-0.1,0.7,0.1,1c-0.2,0.2-0.3,0.2-0.6,0
				C215.3,46.4,215,46.1,214.5,46z M139.3,20.5c1.8-0.7,3.7-1.2,5.6-1.7c1.5-0.4,3-0.6,4.5-0.9c0.1,0,0.2-0.1,0.3-0.1h0.1
				c0.1,0,0.2,0,0.2,0h0.1c0.1,0,0.2,0,0.2,0h0.1c0.1,0,0.2,0,0.2,0h0.1c0.1,0,0.2,0,0.2,0h0.1c0.1,0,0.2,0,0.2,0h0.1
				c0.1,0,0.2,0,0.3,0h0.1c0.1,0,0.2,0,0.3,0l0,0c0,0,0,0,0.1,0c0.3,0.1,0.5,0.1,0.8,0.1c2.1-0.1,4.1,0,6.2,0.2
				c2.8,0.4,5.6,1.2,8.2,2.4c0.2,0.1,0.3,0.1,0.5,0.1l0,0l0,0c0,0,0.1,0,0.1,0.1l0,0c0,0,0.1,0,0.1,0.1c0,0,0.1,0,0.1,0.1l0.1,0.1
				c0,0,0.1,0,0.1,0.1l0.1,0.1c0,0,0.1,0,0.1,0.1l0.1,0.1c0,0,0.1,0,0.1,0.1c0,0,0.1,0,0.1,0.1c0,0,0.1,0,0.1,0.1l0.1,0.1
				c0,0,0.1,0,0.1,0.1c0,0,0.1,0,0.1,0.1c0,0,0.1,0,0.1,0.1c0,0,0.1,0,0.1,0.1c0,0,0.1,0,0.1,0.1l0,0l0,0l0,0l0,0c0,0,0,0.1,0.1,0.1
				c0,0,0,0,0.1,0.1l0.1,0.1c0,0,0,0,0.1,0.1c0,0,0,0,0.1,0.1l0,0c0,0,0,0.1,0.1,0.1c0,0,0,0,0.1,0.1l0.1,0.1c0,0,0,0.1,0.1,0.1
				c0,0.1,0.1,0.1,0.1,0.2c0.1,0.1,0.1,0.2,0.2,0.3c1.8,1.7,3,3.7,3.5,6.1c0,0.1,0,0.2,0.2,0.3l0,0c0,0.1,0,0.3,0,0.4
				c0,0.2,0,0.3,0,0.5c0.1,1.6-0.2,3-0.7,4.5c-0.4,1.1-1,2.1-1.6,3.2c0,0.1-0.1,0.1-0.1,0.2l-0.1,0.1c0,0.1-0.1,0.1-0.1,0.2l0,0
				c-0.1,0.1-0.2,0.2-0.2,0.2c-0.8,1-1.6,1.9-2.6,2.8c-0.5,0.5-1,1-1.7,1.3c-0.4,0.4-0.9,0.7-1.3,1c-0.8,0.5-1.6,1-2.4,1.5h-0.1
				c-1.1,0.4-2,0.9-3,1.3c-0.1,0-0.2,0.1-0.2,0.3c0,0.1,0,0.1,0,0.2c0.1,2.3,0.3,4.6,0.4,6.9c0,0.1,0,0.3,0.1,0.4l0,0
				c0,0.1,0,0.2,0,0.3c0.1,2.1,0.3,4.2,0.4,6.3c0,0.1,0,0.3,0.2,0.4l0,0c0,0-0.1,0-0.1,0.1s0,0.3,0,0.4c0,0.8,0.1,1.6,0.1,2.4
				c0,0.4-0.1,0.5-0.5,0.6c-0.5,0-0.9,0.1-1.4,0.1c-1.5,0.2-3.1,0.4-4.6,0.6c-0.2,0-0.5,0-0.6,0.2c-0.2-0.1-0.4-0.2-0.5-0.3
				c0.1-0.2,0-0.5,0-0.7c-0.4-1.7-0.8-3.4-1.2-5.1c0-0.2,0-0.4-0.3-0.4c0,0-0.1,0-0.1-0.1h0.1c0.1-0.3,0-0.5,0-0.8
				c-0.5-2-0.9-4-1.4-6c-0.2-0.8-0.3-1.6-0.6-2.3l0,0c0-0.1,0-0.3-0.1-0.4c-0.4-1.8-0.9-3.7-1.3-5.5c-0.2-0.8-0.3-1.7-0.6-2.5
				c0-0.2,0-0.3-0.1-0.5c-0.4-1.9-0.9-3.8-1.3-5.7c-0.1-0.5-0.3-1.1-0.4-1.6c-0.2-1.2-0.6-2.4-0.8-3.6c-0.1-0.3-0.1-0.3-0.4-0.2
				c-1.1,0.3-2.1,0.6-3.2,0.9c-0.5,0.1-0.4,0.2-0.6-0.3c-0.3-0.9-0.7-1.9-1-2.8c-0.3-0.7-0.5-1.4-0.8-2.1c0-0.1,0-0.2-0.1-0.2
				c0-0.1,0-0.2-0.1-0.2l0,0c0,0,0-0.1-0.1-0.1l0,0v0.1c0-0.1,0-0.1,0-0.1l0,0c0.1-0.2,0-0.4-0.1-0.6c-0.3-0.9-0.7-1.9-1-2.8
				c-0.1-0.2-0.2-0.4-0.2-0.6v-0.1c0,0,0,0,0.1-0.1c0,0,0.1,0,0.1-0.1l0,0C138.8,20.7,139.1,20.6,139.3,20.5z M183.8,60.3
				c-3,0.7-5.9,0.4-8.6-1.1c-1.3-0.7-2.3-1.8-3.2-3l-0.1-0.1l-0.1-0.1c-0.1-0.1-0.1-0.1-0.1-0.2v-0.1c0,0,0-0.1-0.1-0.1l0,0
				c0,0,0-0.1-0.1-0.1v-0.1c0-0.1,0-0.1-0.1-0.2c0,0,0-0.1-0.1-0.1l0,0c0-0.1-0.1-0.2-0.1-0.3c-0.7-1.7-0.9-3.4-0.6-5.2
				c0.1-0.8,0.4-1.7,0.6-2.5c0.2-0.5,0.4-0.9,0.7-1.4c1-1.9,2.4-3.5,4.2-4.8c0.1-0.2,0.3-0.2,0.4-0.3c0.4-0.3,0.9-0.6,1.3-0.9l0,0
				l0,0c0.3,0,0.5-0.2,0.8-0.3c2.9-1.3,5.9-1.8,9.1-0.9c2.1,0.6,3.8,1.8,5.1,3.5c0.1,0.2,0.2,0.3,0.4,0.4l0,0
				c0.1,0.2,0.2,0.3,0.3,0.4c0,0,0,0.1,0.1,0.1c0,0.1,0.1,0.2,0.1,0.2c0.6,1.2,0.9,2.6,1,4c0,0.9-0.1,1.8-0.2,2.7l0,0
				c-0.2,0.3-0.2,0.7-0.3,1c-0.1,0.1-0.1,0.2-0.2,0.4c-0.8,2.4-2.3,4.4-4.2,6.1c-0.3,0.2-0.6,0.5-0.9,0.7h-0.1
				c-0.3,0.1-0.5,0.3-0.7,0.4C186.8,59.4,185.3,60,183.8,60.3z M216.6,62.5L216.6,62.5L216.6,62.5z M224.6,67.5
				c-0.2-0.1-0.3-0.2-0.5-0.3c-2.2-1.7-4.4-3.4-6.6-5c-0.1-0.1-0.2-0.2-0.4-0.3l0,0c-0.1-0.3-0.3-0.4-0.6-0.6
				c-4.5-3.4-8.9-6.9-13.4-10.3c-0.1-0.1-0.3-0.2-0.5-0.3s-0.4-0.1-0.5,0.1c-0.1,0.3-0.2,0.6-0.2,0.8c-0.7,3.8-1.5,7.7-2.2,11.5
				c-0.1,0.3-0.2,0.7-0.3,1l0,0c-0.4-0.1-0.8-0.1-1.3-0.1c-1.4-0.1-2.8-0.2-4.2-0.2c-1,0-1-0.1-0.9-1.1c0.1-1.1,0.3-2.2,0.3-3.3
				c0-0.1,0-0.3-0.1-0.4c0-0.1,0-0.3,0-0.4c0-0.3,0.1-0.6,0.3-0.8c0.7-0.9,1.4-1.8,1.9-2.8c0.6-1.1,1.1-2.2,1.4-3.5
				c0.1-0.1,0.1-0.3,0.2-0.5c0.4-1.7,0.5-3.5,0.2-5.2c-0.2-1-0.4-2-0.9-2.9c0,0,0,0-0.1,0h0.1c0-0.7-0.4-1.1-0.7-1.6
				c-0.2-0.4-0.3-0.8-0.3-1.2c0.2-1,0.2-2,0.3-3c0.1-0.6,0.2-1.3,0.1-1.9c-0.1-0.3,0.1-0.6,0.1-0.9c0-0.1,0-0.2,0-0.3
				c0-0.3,0-0.5,0.1-0.8c0-0.1,0-0.3,0-0.4c0-0.1,0-0.1-0.1-0.2c0.2-1.1,0.3-2.3,0.4-3.4c-1.1,0.1-2.1,0.1-3.2,0.2
				c0.1-0.6,0.1-1.2,0.3-1.8c0.1-0.1,0.1-0.2,0.2-0.3c0-0.6,0.4-0.8,0.9-0.8c0.1,0,0.2-0.1,0.3-0.1h0.1c0.1,0,0.2,0,0.2,0h0.1
				c0.1,0,0.2,0,0.2,0h0.1c0.1,0,0.2,0,0.2,0h0.1c0.1,0,0.2,0,0.2,0h0.1c0.1,0,0.2,0,0.2,0h0.1c0.1,0,0.2,0,0.2,0h0.1
				c0.1,0,0.2,0,0.2,0h0.1c0.1,0,0.2,0,0.2,0h0.1c0.1,0,0.2,0,0.2,0h0.1c0.1,0,0.2,0,0.2,0s0,0,0.1,0l0,0c0.2,0.1,0.5,0.1,0.7,0
				c1.7-0.2,3.4-0.3,5.1-0.5c0.5-0.1,0.5,0,0.5,0.5c0,0.6-0.1,1.1-0.2,1.7c-0.1,0.3,0,0.3,0.1,0.4v0.1c-0.2,0.1-0.2,0.3-0.2,0.5
				c-0.1,0.5-0.1,1.1-0.2,1.6c-0.3,1.9-0.5,3.8-0.8,5.7c0,0.2-0.1,0.4,0.1,0.5c0.1-0.1,0.2-0.2,0.3-0.3c2.3-2.2,4.6-4.4,6.9-6.6
				c0.1-0.1,0.3-0.3,0.4-0.4c0.1-0.1,0.2-0.1,0.3-0.3c0.1,0,0.1,0,0.1-0.1l-0.1,0.1l0,0l0.1-0.1l0,0c0.1,0,0.1-0.1,0.2-0.2
				c0.1,0,0.1,0,0.1-0.1c-0.1,0-0.1,0-0.1,0.1l0,0l0,0l0,0l0,0c0-0.1,0.1-0.1,0.1-0.1l0.1-0.1l0,0c0,0,0,0,0-0.1
				c0.1,0,0.1-0.1,0.1-0.1l0.1-0.1l0,0c0.1,0,0.1-0.1,0.2-0.1c0.4-0.1,0.6-0.4,0.9-0.7c0.3-0.3,0.4-0.2,0.7,0
				c0.1,0.2,0.2,0.4,0.4,0.4l0,0c0,0,0,0,0,0.1c0,0,0,0.1,0.1,0.1l0,0c0,0,0,0.1,0.1,0.1l0,0c0,0,0,0.1,0.1,0.1l0,0
				c0,0,0,0.1,0.1,0.1l0,0c0,0,0,0.1,0.1,0.1l0,0c0,0,0,0.1,0.1,0.1l0,0c0,0,0,0.1,0.1,0.1l0,0c0,0,0,0.1,0.1,0.1l0,0
				c0,0,0,0.1,0.1,0.1l0,0c0,0,0,0.1,0.1,0.1l0,0c0,0,0,0.1,0.1,0.1l0.1,0.1c0.1,0.1,0.2,0.2,0.2,0.3c0.4,0.8,0.9,1.5,1.4,2.2
				c0.9,1.2,1.7,2.4,2.6,3.6c0.2,0.2,0.2,0.4-0.1,0.5c-0.1,0.1-0.3,0.2-0.3,0.4l0,0c-0.5,0-0.8,0.3-1,0.7c-0.1,0.1-0.1,0.1-0.2,0.2
				c-3.7,2.6-7.4,5.3-11,7.9c0,0.1,0,0.1,0.1,0.1c0,0,0,0.1,0.1,0.1c0.1,0.1,0.2,0.2,0.4,0.2c0,0,0,0.1,0.1,0.1s0.1,0.1,0.2,0.1
				l0.1,0.1h0.1c0,0,0,0.1,0.1,0.1c0.1,0.1,0.2,0.1,0.3,0.2h0.1c0,0,0,0.1,0.1,0.1c0,0-0.1,0-0.1-0.1l0,0c0,0,0,0.1,0.1,0.1
				c0.1,0.1,0.2,0.2,0.4,0.2c0,0.1,0.1,0.1,0.2,0.1l0,0l0,0c0,0.1,0.1,0.1,0.2,0.1l0,0l0,0c0,0.1,0.1,0.1,0.1,0.1l0,0l0,0
				c0,0.1,0,0.1,0.1,0.1c0.2,0.1,0.3,0.2,0.5,0.3c1.9,1.2,3.8,2.4,5.7,3.6c0.3,0.2,0.5,0.4,0.6,0.7c0.3,0.8,0.6,1.6,1.1,2.4
				c0.2,0.4,0.4,0.8,0.7,1.1c0,0,0,0,0,0.1c0,0,0,0.1,0.1,0.1c0,0,0,0,0,0.1c0,0,0,0.1,0.1,0.1c0,0,0,0,0,0.1c0,0,0,0.1,0.1,0.1
				c0.9,1.3,2,2.3,3.2,3.1c1.4,1,3,1.8,4.6,2.3c0.3,0.1,0.5,0.2,0.4,0.6c-0.5,2.2-0.8,4.5-1.4,6.8l0,0
				C225.7,68.1,225.2,67.8,224.6,67.5z M238.7,57.9c-1.3,0.3-2.6,0.5-3.9,0.5c-3.5,0.3-6.9-0.3-9.9-2.2c-0.5-0.3-1-0.8-1.5-1.1h-0.1
				c-0.1-0.1-0.2-0.2-0.3-0.3c-1.8-1.7-2.9-3.8-3.2-6.3c-0.1-0.4-0.1-0.9-0.1-1.3c0-0.3,0-0.6,0.1-1c0.1-2.6,1-4.9,2.6-6.9
				c0.5-0.6,1.1-1.2,1.7-1.7c0.3,0,0.5-0.2,0.7-0.3c0.5-0.3,0.9-0.7,1.4-0.9c3.6-1.9,7.5-2.3,11.4-1.3c2.7,0.7,4.9,2,6.7,4.2
				c0.2,0.2,0.3,0.4,0.6,0.4l0,0v0.1l0,0c0,0,0,0.1,0.1,0.1l0,0c0,0,0,0.1,0.1,0.1l0,0c0,0,0,0.1,0.1,0.1l0,0c0,0,0,0.1,0.1,0.1l0,0
				c0,0,0,0.1,0.1,0.1l0,0c0,0,0,0.1,0.1,0.1l0,0c0,0,0,0.1,0.1,0.1l0,0c0,0,0,0.1,0.1,0.1l0,0c0,0,0,0.1,0.1,0.1l0,0v0.1v0.1
				c0,0.1,0,0.1-0.1,0.1c-0.5,0.5-1.2,0.8-1.7,1.4c-0.3,0.2-0.6,0.5-0.9,0.7l0,0l0,0l0,0l0,0l0,0l0,0l0,0l0,0
				c-0.3,0.1-0.5,0.3-0.7,0.5c-0.1,0.1-0.2,0.1-0.3,0.2c-2.7,1.9-5.4,3.9-8.1,5.8c-0.4,0.3-0.8,0.6-1.2,0.9c0.1,0.3,0.4,0.3,0.6,0.3
				c0.7,0.1,1.4,0.1,2.1,0.1c1.2-0.1,2.4-0.2,3.4-0.9l0,0c0.1,0,0.1,0,0.1-0.1c0.2-0.1,0.4-0.2,0.6-0.3c0.6-0.1,1-0.5,1.5-0.9
				c0.2-0.2,0.4-0.2,0.6,0.1c0.3,0.6,0.8,1,1.1,1.5c0.2,0.3,0.4,0.7,0.9,0.9c0,0,0,0,0,0.1c0,0,0,0,0,0.1c0,0,0,0.1,0.1,0.1
				c0,0.1,0.1,0.1,0.1,0.2c0,0.1,0.1,0.1,0.1,0.2c0.5,0.7,1,1.4,1.6,2.1c0.4,0.5,0.4,0.4-0.1,0.8c-0.4,0.3-1,0.5-1.4,0.9
				c-1.3,0.8-2.7,1.3-4.1,1.7c-0.2,0.1-0.4,0.1-0.6,0.2c-0.1,0-0.1,0-0.2-0.1C239,57.8,238.9,57.8,238.7,57.9z M272.7,78.8
				c-0.1,0-0.1,0-0.2,0c-0.1,0-0.3-0.1-0.4-0.2c-0.4-0.3-1-0.3-1.4-0.6c-1.9-0.7-3.8-1.4-5.7-2c-0.7-0.2-0.7-0.2-0.7-1
				c0-0.3,0-0.6,0-0.9c0-0.1-0.1-0.1-0.1-0.2s0-0.2,0-0.3c0.1-2,0.2-4,0.2-6c0-0.8,0.1-1.7,0.1-2.5c0.1-0.6,0.1-1.2,0.1-1.9
				c0.1-1.1,0.1-2.3,0.2-3.4c0-0.1,0-0.2-0.2-0.1l0,0c-0.1,0.1-0.2,0.2-0.3,0.4c-0.9,1.3-1.7,2.7-2.5,4c-0.1,0.1-0.2,0.3-0.1,0.4
				c-0.4,0.3-0.6,0.8-0.8,1.1c-0.3,0.5-0.7,1-1,1.6c-0.2-0.4-0.2-0.7-0.4-1c0-0.2-0.1-0.3-0.1-0.5c-0.2-0.6-0.3-1.2-0.5-1.7
				c0-0.1,0-0.2,0-0.2c-0.6-2.5-1.3-5-1.9-7.5c0-0.1-0.1-0.3-0.1-0.4c-0.2,0.2-0.3,0.4-0.4,0.6c-0.8,2.1-1.5,4.2-2.3,6.4
				c-0.1,0.2-0.1,0.3-0.1,0.5l0,0c-0.2,0.1-0.2,0.4-0.3,0.6c-0.4,1.1-0.8,2.3-1.2,3.4c-0.1,0.2-0.2,0.5-0.5,0.4
				c-0.3-0.2-0.7-0.2-1.1-0.3c-1-0.3-2-0.7-3-1.1c-1.1-0.4-2.2-0.8-3.3-1.2c-0.2-0.1-0.3-0.1-0.2-0.3l0,0l0,0
				c0.3-0.1,0.3-0.3,0.3-0.5c0.3-0.8,0.6-1.7,0.9-2.5c0.3-0.7,0.6-1.4,0.8-2.2c0-0.1,0-0.1,0-0.2c0.1-0.2,0.2-0.5,0.3-0.7
				c0.1-0.3,0.2-0.5,0.5-0.6c1.3-0.9,2.5-1.7,3.8-2.6c0.2-0.1,0.3-0.2,0.1-0.4c-0.7-0.9-1.3-1.7-2-2.6c0-0.1,0-0.2,0.1-0.2
				c0.5-1.2,0.9-2.4,1.4-3.7c0.3-0.8,0.6-1.5,0.8-2.3c0.2-0.2,0.2-0.4,0.2-0.6l0,0c0.2-0.4,0.3-0.8,0.5-1.2c0.3-0.8,0.6-1.5,0.8-2.3
				c0.1-0.1,0.1-0.3,0.2-0.4c0-0.1,0-0.1,0.1-0.2c0.1-0.1,0.1-0.3,0.2-0.4c0-0.1,0-0.1,0.1-0.2c0-0.1,0.1-0.1,0.1-0.2
				c0.4-1,0.7-1.9,1.1-2.9c0.2-0.2,0.3-0.5,0.4-0.8c0.2-0.6,0.3-0.7,0.9-0.5c2.4,0.5,4.9,0.9,7.3,1.4c0.2,0,0.2,0.2,0.2,0.4
				c-0.1,0.6,0,1.2-0.1,1.9c0,0.1,0,0.3,0.1,0.4l0,0l0,0c-0.1,0.5,0,0.9,0,1.4c0,2.5,0,4.9-0.1,7.4c0,0.1-0.1,0.2,0,0.3
				c0.1-0.2,0.2-0.3,0.2-0.5c0.1-0.2,0.1-0.3,0.2-0.5c0.7-1.8,1.4-3.5,2-5.3c0.3-0.7,0.6-1.3,0.7-2c0.3-0.5,0.5-1.1,0.6-1.6
				c0.1-0.1,0.2-0.3,0.2-0.5c0,0,0,0,0-0.1c0.1-0.1,0.1-0.3,0.2-0.4c0-0.1,0-0.1,0.1-0.2l0.1-0.1c0-0.1,0-0.2,0-0.3v-0.1v-0.1
				c0,0,0.1,0,0.1,0.1c0.1-0.1,0.1-0.2,0.2-0.3c0.3-0.7,0.3-0.7,1.1-0.5c1.4,0.3,2.7,0.5,4.1,0.8c0.9,0.2,0.9,0.2,0.8,0.9
				c0,0.1,0,0.2,0.1,0.3c0.1,0,0.1,0,0.1,0s0,0,0,0.1c-0.2,0.2-0.2,0.4-0.2,0.6c-0.1,2.1-0.2,4.2-0.2,6.3c0,0.1,0,0.3,0,0.4l0,0
				c0,0.2-0.1,0.4-0.1,0.7c-0.1,2.2-0.2,4.5-0.2,6.7c0,0.4-0.1,0.8-0.5,1.1c-0.3,0.2-0.6,0.4-0.8,0.7c0,0.1-0.1,0.1-0.1,0.2
				c0,0,0,0-0.1,0.1l-0.1,0.1c0,0,0,0-0.1,0.1l-0.1,0.1c0,0,0,0,0,0.1c-0.1,0.1-0.1,0.1-0.2,0.2c-1,1-1.8,2.2-2.5,3.4
				c-0.7,1.3-1.3,2.7-1.5,4.1c-0.4,1.9-0.3,3.9,0.2,5.8c0.3,1,0.6,2,1.3,2.9l0,0l0.1,0.1c0.7,1.3,1.7,2.4,2.9,3.3
				c0.4,0.3,0.8,0.6,0.6,1.2c0,0,0,0,0,0.1c0,0,0,0,0,0.1c0,0.2,0,0.4-0.1,0.5c0,0.1,0,0.1,0,0.2C272.7,78.6,272.8,78.7,272.7,78.8z
				 M280.6,75.9c-2.6,0-4.9-0.7-6.9-2.4c-0.1-0.1-0.2-0.2-0.4-0.2h-0.1l-0.1-0.1c-1.4-1.4-2.2-3.1-2.5-5.1c-0.1-0.7-0.1-1.5-0.1-2.2
				c0-0.1,0.1-0.2,0.1-0.3c0.3-2.2,1.2-4.1,2.6-5.9c0.6-0.8,1.4-1.5,2.1-2.1c0.1,0,0.1-0.1,0.2-0.1l0,0c0.1,0,0.1,0,0.1-0.1h-0.1
				h0.1c0.1,0,0.2-0.1,0.2-0.1l0,0c0.1,0,0.1,0,0.2,0c0.6-0.3,1.1-0.7,1.6-1c3.2-1.7,6.5-2.2,10-1.1c1.9,0.6,3.4,1.7,4.5,3.4
				c0.4,0.6,0.6,1.2,1.1,1.7c0,0,0,0,0.1,0l0,0c0.9,2.4,0.8,4.8-0.2,7.2c-0.3,0.8-0.7,1.5-1.1,2.2c-0.1,0.1-0.1,0.1-0.2,0.2
				c-0.8,1.2-1.8,2.2-2.9,3.1c-0.4,0.3-0.8,0.7-1.3,0.9c-0.6,0.4-1.2,0.7-1.9,1c-0.6,0.3-1.2,0.4-1.8,0.7l0,0l0,0l0,0l0,0l0,0l0,0
				c-0.8,0.2-1.5,0.3-2.3,0.4c-0.1,0-0.2,0-0.4-0.1C281,75.9,280.8,75.9,280.6,75.9z M284.6,82L284.6,82C284.6,82,284.6,82,284.6,82
				z M302.4,92.2c-0.2,0.2-0.2,0.7-0.6,0.7c-0.3,0-0.6-0.3-0.9-0.4c-0.5-0.3-1.1-0.6-1.7-0.9c-1-0.5-2-1-2.9-1.5
				c0-0.1-0.1-0.1-0.1-0.2s0-0.2,0-0.3c0.1-0.8,0.2-1.6,0.4-2.4c0-0.2,0.1-0.4,0.1-0.5c0.2-1.5,0.5-2.9,0.7-4.4
				c0.2-1,0.4-2.1,0.5-3.1c0-0.1,0.1-0.2,0.1-0.3c0-0.1,0-0.1,0-0.2c0-0.2,0.1-0.4,0.1-0.5c0.5-3.2,1.1-6.3,1.6-9.5
				c-0.1-0.2,0.2-0.4-0.1-0.6c-0.1,0.2-0.1,0.4-0.2,0.6c-1,2.7-2.1,5.4-3.1,8.1c-0.3,0.7-0.6,1.4-0.8,2.1c0,0.1-0.1,0.1-0.1,0.2
				c-0.4,0.9-0.7,1.8-1,2.7c-0.3,0.8-0.6,1.5-0.9,2.3c-0.1,0-0.1,0.1-0.1,0.1c-0.2,0.2-0.3,0.1-0.5,0c-0.2-0.2-0.5-0.3-0.8-0.2
				c-0.2,0-0.4-0.1-0.6-0.2c-0.8-0.3-1.6-0.6-2.4-0.8c-0.1-0.1-0.2-0.1-0.3-0.1c-0.6-0.2-1.2-0.4-1.8-0.7c-0.2-0.1-0.2-0.2-0.2-0.3
				c0.1-0.4,0.2-0.8,0.4-1.2c0.3-1,0.6-2,0.8-3l0,0c0.1-0.4,0.4-0.6,0.8-0.9c1.9-1.1,3.4-2.6,4.7-4.3c0.4-0.5,0.7-0.9,1-1.5
				c0.1,0,0.1-0.1,0.1-0.2c0,0,0,0,0-0.1c0.1,0,0.1-0.1,0.1-0.2c1-1.9,1.6-3.8,1.7-6c0.1-1.2,0-2.3-0.3-3.5l0,0c0.2-0.3,0-0.6,0-0.8
				c-0.4-1.1-0.8-2.2-1.5-3.2c-0.2-0.3-0.3-0.6-0.1-1s0.2-0.9,0.3-1.3c0-0.2,0-0.3,0-0.4c0-0.2,0.1-0.4,0.1-0.6l0,0l0,0l0,0l0,0l0,0
				l0,0l0,0l0,0l0,0l0,0c0.2-0.3,0.2-0.7,0.3-1.1c0.2-0.5,0.3-1.1,0.5-1.7c0.1-0.2,0.1-0.3-0.2-0.4c-0.7-0.3-1.4-0.7-2.1-1
				c0-0.2,0-0.3,0.1-0.5c0.1-0.1,0.1-0.3,0.1-0.4l0,0c0.2,0,0.2-0.2,0.3-0.3c0.1-0.3,0.1-0.7,0.2-1c0.1-0.7,0.2-0.7,0.9-0.5
				c2.2,0.9,4.5,1.8,6.7,2.8c0.2,0.1,0.5,0.3,0.7,0.2l0,0l0.1,0.1c0.1,0.1,0.3,0.1,0.4,0.2c0,0,0.1,0,0.1,0.1c0.1,0,0.3,0.1,0.4,0.1
				c0,0,0.1,0,0.1,0.1c0.1,0,0.2,0.1,0.4,0.1c0,0,0.1,0,0.1,0.1c0.1,0,0.2,0.1,0.4,0.1c0,0,0.1,0,0.1,0.1c0.1,0,0.2,0.1,0.4,0.1
				c0,0,0.1,0,0.1,0.1c0.1,0,0.2,0.1,0.3,0.1c0,0,0,0.1,0.1,0.1c0,0.1,0,0.2,0,0.4v0.1c0,0.1,0,0.2,0,0.3s0,0.1,0,0.2
				c0,0.1,0,0.2,0,0.3s0,0.1,0,0.2c0,0.1,0,0.2,0,0.3s0,0.1,0,0.2c0,0.1,0,0.2,0,0.3v0.1c0,0.1,0,0.2,0,0.3c0,0.2-0.1,0.4,0,0.6
				c0,0.1,0,0.2,0,0.3s0,0.1,0,0.2c0,0.1,0,0.2,0,0.3s0,0.1,0,0.2c0,0.1,0,0.2,0,0.3s0,0.1,0.1,0.2c0,0.1,0,0.1,0,0.2
				c0.1,4.1,0.1,8.2,0.2,12.4c0,0.5-0.1,1,0.1,1.5c0.1-0.1,0.1-0.3,0.2-0.4c1.5-3.4,3.1-6.8,4.6-10.2c0.3-0.7,0.7-1.4,1-2.2l0,0
				c0.4-0.2,0.4-0.7,0.6-1c0-0.1,0-0.1,0.1-0.2c0-0.1,0.1-0.1,0.1-0.2c0-0.1,0.1-0.2,0.1-0.3s0.1-0.1,0.1-0.2c0-0.1,0.1-0.1,0.1-0.2
				c0.3-0.7,0.3-0.7,1-0.4c1.4,0.6,2.7,1.2,4.1,1.8c0.8,0.3,1.6,0.8,2.4,1h0.1l0,0c0.1,0.1,0.2,0.1,0.4,0.2c0,0,0.1,0,0.1,0.1
				c0.1,0,0.2,0.1,0.3,0.1c0,0,0.1,0,0.1,0.1c0.1,0.1,0,0.2-0.1,0.3c-1.1,1.9-2.2,3.9-3.3,5.9c-0.1,0.1-0.1,0.3-0.1,0.4l0,0h-0.1
				c-0.2,0.1-0.2,0.2-0.3,0.4c-1.2,2.1-2.3,4.2-3.5,6.3c-0.1,0.2-0.2,0.3-0.2,0.5l0,0c-0.2,0-0.3,0.2-0.4,0.4
				c-1.2,2.1-2.4,4.2-3.5,6.3c-0.1,0.2-0.3,0.4-0.2,0.6l0,0l0,0c-0.1,0.1-0.1,0.1-0.1,0.2c0,0,0,0.1-0.1,0.1c0,0.1-0.1,0.1-0.1,0.2
				c0,0,0,0.1-0.1,0.1c0,0.1-0.1,0.1-0.1,0.2c0,0,0,0.1-0.1,0.1c0,0.1-0.1,0.1-0.2,0.2c-1.1,1.8-2.1,3.7-3.1,5.5
				c-0.1,0.1-0.1,0.3,0,0.4l0,0l0,0l0,0c0,0,0,0-0.1,0c-0.1,0.1-0.1,0.1-0.2,0.2c0,0,0,0.1-0.1,0.1c0,0.1-0.1,0.2-0.2,0.3
				c-1,1.6-1.9,3.4-2.8,5c-0.1,0.1-0.1,0.2-0.1,0.3C302.5,92.1,302.4,92.2,302.4,92.2z"/>
			<path class="st15" d="M142.4,47.2c0-0.1,0-0.2-0.1-0.2C142.3,47.1,142.3,47.1,142.4,47.2z"/>
			<path class="st15" d="M165.5,58.1c0-0.1,0-0.2-0.1-0.2C165.4,58,165.5,58,165.5,58.1z"/>
			<path class="st15" d="M134.5,32.1C134.5,32.2,134.5,32.2,134.5,32.1C134.5,32.1,134.5,32.1,134.5,32.1z"/>
			<path class="st15" d="M133.4,29C133.4,29.1,133.4,29.1,133.4,29C133.5,29.1,133.4,29.1,133.4,29z"/>
			<path class="st15" d="M237.8,18.4c0.1,0,0.1-0.1,0.2-0.1C237.9,18.3,237.8,18.4,237.8,18.4L237.8,18.4c-0.1,0-0.1,0-0.1,0.1
				C237.7,18.5,237.8,18.5,237.8,18.4z"/>
			<path class="st15" d="M309.6,50.8c-0.1,0-0.2,0-0.2,0.1C309.5,50.9,309.6,50.9,309.6,50.8z"/>
			<path class="st15" d="M189.8,44.4c-0.2,0.8-0.5,1.6-1.2,2.1c-0.3,0.2-0.8,0.4-1.1,0.6c-0.2,0.1-0.4,0.1-0.6,0.2
				c-0.3,0-0.5,0-0.8,0c-0.8-0.1-1.6-0.4-2.2-0.9c-0.5-0.5-0.9-1.1-1.1-1.9c0-0.1,0-0.2,0-0.2v-0.1c0-0.4,0.1-0.8,0.1-1.2
				c0.1-0.1,0.2-0.2,0.2-0.4l0,0l0,0c0.1-0.1,0.2-0.2,0.3-0.3c0.7-0.6,1.5-1.2,2.5-1.2c0.1,0,0.2,0,0.2-0.1c0.1,0,0.2,0,0.3,0.1
				c-0.5-0.4-1-0.4-1.6-0.4c-0.2,0-0.4,0-0.6,0c-1.2,0-2.4,0.4-3.4,1.1c-0.1,0.2-0.3,0.2-0.4,0.4c-0.5,0.4-0.8,0.8-1.1,1.3l0,0
				c-0.1,0-0.1,0.1-0.1,0.2c-0.4,0.6-0.6,1.3-0.5,2.1c-0.1,0.8,0.1,1.5,0.4,2.2l0,0c0,0,0,0.1,0.1,0.1l0.1,0.1l0,0l0,0l0,0l0,0
				c0-0.1,0-0.1-0.1-0.1c0,0.1,0,0.1,0.1,0.1c0,0.1,0,0.2,0.1,0.2l0,0l0.1,0.1l0,0l0.1,0.1l0,0l0.1,0.1c0.2,0.4,0.5,0.7,0.8,1
				c1.9,1.8,4.8,2.2,7.2,1c0.1-0.1,0.3-0.1,0.4-0.2c0.3-0.3,0.7-0.5,0.9-0.8c0.4-0.3,0.6-0.6,0.8-1.1c0.1,0,0.1-0.1,0.1-0.2
				c0,0,0,0,0-0.1c0.7-1.3,0.8-2.7,0.3-4.1C189.9,44.3,189.9,44.3,189.8,44.4z"/>
			<path class="st15" d="M237.6,42.5c0.3-0.3,0.3-0.3,0.1-0.6c-1.5-2.1-3.6-3-6.2-2.6c-1.1,0.1-2,0.6-2.8,1.2
				c-0.9,0.4-1.4,1.2-1.8,2v0.1c-0.2,0.1-0.3,0.3-0.4,0.5c-0.8,2-0.6,3.9,0.5,5.8c0.2,0.3,0.3,0.6,0.7,0.7c0.3,0.3,0.3,0.3,0.7,0
				c1.4-1.1,2.8-2.1,4.2-3.2c0.9-0.7,1.9-1.4,2.8-2.2C236.1,43.7,236.9,43.1,237.6,42.5z M231.2,44.6c-0.8,0.6-1.5,1.2-2.2,1.7
				c-0.2,0.2-0.4,0.2-0.4-0.1c-0.1-0.7-0.1-1.5,0.3-2.1c0.1-0.3,0.3-0.5,0.3-0.8c0.1,0,0.2-0.1,0.2-0.2c0.2-0.3,0.5-0.5,0.8-0.7
				c1.3-0.9,2.7-1,4.1-0.3l0.1,0.1l0,0l-0.1,0.1l-0.1,0.1c-0.1,0.1-0.2,0.2-0.4,0.3c0,0,0,0-0.1,0l-0.1,0.1c0,0,0,0,0,0.1l0,0h-0.1
				C232.7,43.3,232,44,231.2,44.6z"/>
			<path class="st15" d="M208.3,45.8L208.3,45.8C208.2,45.8,208.3,45.8,208.3,45.8z"/>
			<path class="st15" d="M158.7,31.1c0,0.1,0.1,0.2,0.2,0.3c0,0.1,0,0.2,0,0.3c0.1,1.3,0.3,2.6,0.4,3.9c0.1,0.7,0.1,1.4,0.3,2.1
				c0,0.1-0.1,0.1-0.1,0.2c-0.1,0.9,0.2,1.7,0.2,2.6c0,0.6,0.1,1.1,0.2,1.7c0.1,0.4,0.2,0.5,0.6,0.3c0.1,0,0.2-0.1,0.3-0.1
				c0.2-0.1,0.4-0.2,0.6-0.3c1.1-0.5,2.1-1,3.1-1.7c0.6-0.4,1.2-0.9,1.6-1.5l0.1-0.1c1.2-1.5,1.7-3.3,1.6-5.2c0-0.5-0.1-0.9-0.4-1.3
				c-0.3-0.8-0.9-1.5-1.5-2c-1.3-1-2.8-1.4-4.5-1.5c-0.9,0-1.8,0.2-2.7,0.4c-0.2,0.1-0.3,0.2-0.2,0.4
				C158.6,30.1,158.7,30.6,158.7,31.1z M165.9,38.3L165.9,38.3C165.8,38.3,165.8,38.2,165.9,38.3L165.9,38.3z M162.8,31.8
				c0.4,0.1,0.8,0.4,1.2,0.4l0,0l0.1,0.1c0,0,0.1,0,0.1,0.1c0,0,0.1,0,0.1,0.1c0,0,0.1,0,0.1,0.1c0,0,0.1,0,0.1,0.1l0,0
				c0,0,0,0.1,0.1,0.1l0,0c0,0,0,0.1,0.1,0.1l0,0c0,0,0,0.1,0.1,0.1l0,0c0,0,0,0.1,0.1,0.1c0,0,0,0,0,0.1v0.1c0,0,0,0,0,0.1v0.1
				c0.2,1.1,0,2.1-0.6,3c0,0.1-0.1,0.2-0.1,0.2s0,0.1-0.1,0.1c0,0.1-0.1,0.1-0.1,0.1l-0.1,0.1c-0.1,0.1-0.1,0.2-0.2,0.3
				c-0.1,0.1-0.3,0.2-0.2,0.4l0,0c0,0,0,0-0.1,0c0,0,0,0-0.1,0c0,0-0.1,0-0.1,0.1c0,0,0,0-0.1,0H163c0,0-0.1,0-0.1,0.1
				c-0.2,0.1-0.3,0.3-0.6,0.3c-0.1-0.3-0.1-0.6-0.2-0.7c0.1-0.2,0.1-0.4,0.1-0.5c-0.1-1.5-0.3-3-0.5-4.5c-0.1-0.3,0-0.6-0.2-0.8
				C162,31.6,162.4,31.6,162.8,31.8z"/>
			<path class="st15" d="M287.2,66.4c0.1-0.1,0.2-0.2,0.3-0.3c0.5-0.3,0.8-0.8,1.1-1.3c0.1,0,0.1-0.1,0.1-0.2c0,0,0,0,0-0.1
				s0.1-0.1,0.1-0.2c0.6-1.3,0.7-2.5,0.2-3.9c-0.1,0-0.1,0-0.2,0.1c0,0,0,0.1-0.1,0.1c-0.2,1.1-0.8,1.9-1.9,2.3
				c-0.1,0.1-0.2,0.1-0.3,0.2c-0.9,0.3-1.8,0.2-2.6-0.2c-0.7-0.3-1.2-0.8-1.7-1.4c-0.2-0.4-0.4-0.9-0.5-1.4c0-0.6,0.1-1.1,0.3-1.7
				c0.1-0.1,0.2-0.2,0.3-0.3c0.8-0.7,1.7-1.3,2.8-1.2c0.1,0,0.3,0,0.3-0.2c-0.7-0.2-1.3-0.4-2-0.4c-1.4,0-2.6,0.4-3.7,1.1
				c-0.1,0.1-0.1,0.2-0.2,0.2c-0.6,0.5-1.1,1-1.3,1.7c-0.2,0.2-0.2,0.4-0.2,0.6l0,0l0,0c-0.3,0.7-0.3,1.4-0.2,2.2l0,0
				c0,0.1,0,0.2,0,0.3l0,0c0,0.1,0,0.2,0,0.2c0.1,0.5,0.2,0.9,0.5,1.3l0,0l0.1,0.1l0,0l0.1,0.1l0,0c0.1,0,0.1,0.1,0.1,0.1
				c0,0.1,0.1,0.2,0.1,0.3c1.4,2,4.1,3,6.5,2.4C285.9,67.2,286.5,66.9,287.2,66.4z"/>
		</g>
		<g>
			<path class="st16" d="M189.9,44.4L189.9,44.4c0.1-0.2,0.1-0.3,0-0.3C189.8,44.1,189.8,44.3,189.9,44.4z"/>
			<path class="st16" d="M300,67.5C300,67.4,299.9,67.4,300,67.5C299.9,67.4,299.9,67.4,300,67.5c-0.1,0.2-0.3,0.3-0.3,0.6
				c0.2,0.2-0.1,0.4,0.1,0.6C299.9,68.3,299.9,67.9,300,67.5z"/>
			<path class="st16" d="M288.9,60.3c0,0.1-0.1,0.2,0,0.3l0.1-0.1C289.1,60.4,289,60.4,288.9,60.3z"/>
			<path class="st16" d="M234.5,42L234.5,42L234.5,42L234.5,42c-0.7-0.4-1.5-0.6-2.3-0.5s-1.5,0.3-2.1,0.8c0.2,0,0.5,0,0.7,0
				c1,0,1.9,0.1,2.7,0.7c0,0,0.1,0,0.1-0.1l0,0l0.1-0.1c0.2-0.1,0.4-0.2,0.5-0.4c0.1,0,0.1,0,0.1-0.1
				C234.6,42.2,234.6,42.1,234.5,42L234.5,42z"/>
			<path class="st16" d="M165,33.2L165,33.2C165,33.2,165,33.1,165,33.2L165,33.2l-0.2-0.2l0,0l-0.1-0.1l0,0l-0.1-0.1l0,0
				c0,0,0-0.1-0.1-0.1l0,0c0-0.1-0.1-0.1-0.2-0.2c0-0.1-0.1-0.1-0.2-0.1l0,0c0-0.1-0.1-0.1-0.2-0.1l0,0c-0.2-0.1-0.4-0.2-0.5-0.3
				c-0.5-0.2-1.1-0.4-1.7-0.4c-0.2,0-0.3,0.1-0.3,0.3c0,0.3,0.1,0.5,0.1,0.8c0.4,0.1,0.7,0.2,1,0.4c0.6,0.4,1.1,0.9,1.2,1.7
				c0.1,1-0.1,2-0.6,2.9c-0.3,0.3-0.3,0.3-0.1,0.5h0.1l0.1-0.1l0,0l0.1-0.1l0,0l0.1-0.1l0,0c0.1-0.1,0.2-0.2,0.3-0.3
				s0.3-0.2,0.3-0.4c0.1,0,0.1-0.1,0.1-0.2c0.1,0,0.1-0.1,0.2-0.2l0,0l0,0c0.1-0.1,0.2-0.3,0.3-0.4c0.4-0.9,0.6-1.9,0.3-2.9
				C165.1,33.2,165.1,33.2,165,33.2z"/>
		</g>
	</g>
</g>
</svg>
