<?xml version="1.0" encoding="utf-8"?>
<!-- Generator: Adobe Illustrator 23.0.4, SVG Export Plug-In . SVG Version: 6.00 Build 0)  -->
<svg version="1.1" id="Layer_1" xmlns="http://www.w3.org/2000/svg" xmlns:xlink="http://www.w3.org/1999/xlink" x="0px" y="0px"
	 viewBox="0 0 425.9 595.3" style="enable-background:new 0 0 425.9 595.3;" xml:space="preserve">
<style type="text/css">
	.st0{fill:#E54A52;stroke:#000000;stroke-width:5.6693;stroke-miterlimit:10;}
	.st1{fill-rule:evenodd;clip-rule:evenodd;fill:#FFE19E;stroke:#000000;stroke-width:5.6693;stroke-miterlimit:10;}
	.st2{fill-rule:evenodd;clip-rule:evenodd;fill:#5063AE;stroke:#000000;stroke-width:5.6693;stroke-miterlimit:10;}
	.st3{fill-rule:evenodd;clip-rule:evenodd;fill:#FFDF98;}
	.st4{fill-rule:evenodd;clip-rule:evenodd;fill:#FFFFFF;}
	.st5{fill-rule:evenodd;clip-rule:evenodd;}
	.st6{fill-rule:evenodd;clip-rule:evenodd;fill:#E2CB98;}
</style>
<g id="img">
	<path class="st0" d="M280.1,120.9h134.7v439c0,12-9.7,21.7-21.7,21.7H32.9c-12,0-21.7-9.7-21.7-21.7v-468l194.4,0L280.1,120.9z"/>
	<path class="st1" d="M61,354.4h191.6c1.9,0,3.6,1.7,3.6,3.6v52.4c0,2.1-1.7,3.8-3.6,3.8H61c-1.9,0-3.6-1.7-3.6-3.8V358
		C57.5,356.1,59.2,354.4,61,354.4L61,354.4z"/>
	<path class="st1" d="M66.4,157h297.4c6.6,0,11.8,6.2,11.8,13.8v153.3c0,7.6-5.2,13.8-11.8,13.8H66.4c-6.7,0-11.8-6.2-11.8-13.8
		V170.8C54.5,163.2,59.7,157,66.4,157L66.4,157z"/>
	<path class="st2" d="M284.9,386h35c3.1,0,5.7,2.5,5.7,5.6l0,0c0,3.1-2.5,5.6-5.7,5.6h-35c-3.1,0-5.7-2.5-5.7-5.6l0,0
		C279.3,388.5,281.8,386,284.9,386L284.9,386z"/>
	<path class="st2" d="M347.4,386h35c3.1,0,5.6,2.5,5.6,5.6l0,0c0,3.1-2.5,5.6-5.6,5.6h-35c-3.1,0-5.7-2.5-5.7-5.6l0,0
		C341.7,388.5,344.2,386,347.4,386L347.4,386z"/>
	<g>
		<g>
			<path class="st3" d="M334.8,74.2L334.8,74.2L334.8,74.2L334.8,74.2z"/>
			<path class="st3" d="M334.5,76c0.1,0,0.1,0,0.1,0c0.1-0.1,0.1,0,0.1-0.1l0,0c0.1-0.1,0.1,0,0.1-0.1l0,0c0.1-0.1,0.1,0,0.1-0.1
				l0,0c0.1-0.1,0.1,0,0.1-0.1l0,0c0.1-0.1,0.1,0,0.1-0.1l0,0c0.1-0.1,0.1,0,0.1-0.1l0,0c0.1-0.1,0.1,0,0.1-0.1l0,0
				c0.1-0.1,0.1,0,0.1-0.1l0,0c0.1-0.1,0.1,0,0.1-0.1l0,0c0.1-0.1,0.1,0,0.1-0.1l0,0c0.1-0.1,0.1,0,0.1-0.1l0,0
				c0.1-0.1,0.1,0,0.1-0.1l0,0l0,0c0.1,0,0.1,0,0.1,0l0,0l0,0c0.1,0,0.1,0,0.1,0l0,0l0,0c0.2,0,0.4,0,0.5-0.2l0,0l0,0l0,0
				c0.1,0,0.1,0,0.1,0l0,0l0,0c0.1,0,0.1,0,0.1-0.1l0,0l0,0l0,0c0.1,0,0.1,0,0.1-0.1l0,0l0,0l0,0c0.1,0,0.1,0,0.1-0.1l0,0l0,0l0,0
				c0.1,0,0.1,0,0.1-0.1l0,0l0,0l0,0c0.1,0,0.1,0,0.1-0.1l0,0l0,0l0,0c0.1,0,0.1,0,0.1-0.1l0,0l0,0l0,0c0.1,0,0.1,0,0.1-0.1l0,0
				c0.1-0.1,0.2-0.1,0.3-0.2c0.5-0.2,1-0.4,1.5-0.7c0.4-0.2,0.8-0.3,1.1-0.4c0.1,0,0.1-0.1,0.1-0.2c-0.1-0.1,0-0.1-0.1-0.1l0,0
				c0-0.1,0-0.1-0.1-0.1l0,0c-0.1-0.1-0.1-0.1-0.1-0.2l0,0c0-0.1,0-0.1-0.1-0.1l0,0c0,0,0-0.1-0.1-0.1c0,0,0,0,0-0.1
				c0-0.1,0-0.1-0.1-0.1l0,0c0,0,0-0.1-0.1-0.1l0,0c-0.1-0.1-0.1-0.2-0.2-0.3c-0.4-0.7-0.8-1.3-1.3-2c-0.1-0.1-0.1-0.2-0.2-0.3
				c-0.3,0.3-0.6,0.7-0.9,1c-0.1,0.1-0.2,0.2-0.3,0.3c-0.3,0.3-0.6,0.7-1,1l0,0c-0.1,0-0.1,0.1-0.1,0.1l0,0l-0.1,0.1l0,0l-0.1,0.1
				l0,0c0,0-0.1,0-0.1,0.1l0,0l0,0l0,0c-0.1,0-0.1,0-0.1,0.1l0,0l0,0l0,0c-0.1,0-0.1,0.1-0.1,0.1l0,0l-0.1,0.1l0,0l-0.1,0.1l0,0
				c-0.1,0-0.1,0-0.1,0.1l0,0c-0.1,0-0.1,0.1-0.2,0.1l0,0l-0.1,0.1l0,0l-0.1,0.1l0,0c-0.1,0-0.1,0-0.1,0.1l0,0
				c-0.1,0-0.1,0.1-0.2,0.1l0,0l-0.1,0.1l0,0l-0.1,0.1l0,0l0,0l0,0c-0.1,0-0.1,0.1-0.2,0.2l0,0l-0.1,0.1l0,0l-0.1,0.1l0,0
				c-0.1,0-0.1,0-0.1,0.1l0,0l0,0l0,0c-0.1,0-0.1,0.1-0.1,0.1l0,0l-0.1,0.1l0,0l-0.1,0.1l0,0c0,0-0.1,0-0.1,0.1l0,0l0,0
				c0,0-0.1,0-0.1,0.1l0,0l0,0l0,0c-0.1,0-0.1,0.1-0.1,0.1l0,0l-0.1,0.1l0,0l-0.1,0.1c-0.2,0.3-0.4,0.5-0.6,0.7
				c-0.3,0.3-0.3,0.3-0.1,0.6C334.1,76.2,334.1,76.2,334.5,76z"/>
			<path class="st3" d="M311.8,87.1c-0.1-0.1-0.1-0.2-0.3-0.3c-0.1-0.2-0.3-0.3-0.4-0.4c-1.4-1.3-3-1.7-4.8-1.6
				c-1.4,0.1-2.6,0.6-3.8,1.3c-0.1,0.1-0.2,0.1-0.3,0.2c-0.4,0.2-0.7,0.4-0.9,0.7l-0.1,0.1l0,0c-0.3,0.2-0.5,0.5-0.8,0.8
				c-0.8,1-1.4,2.1-1.7,3.3c-0.3,1.4-0.2,2.8,0.4,4.2c0.1,0.2,0.2,0.4,0.4,0.5l0,0l0,0l0,0c0,0,0,0.1,0.1,0.1l0,0
				c0.1,0.1,0,0.1,0.1,0.1l0,0l0,0l0,0c0,0.1,0,0.1,0.1,0.1l0,0c0,0,0,0.1,0.1,0.1l0,0c0.1,0.1,0.1,0.1,0.1,0.2l0,0
				c0,0.1,0,0.1,0.1,0.1c0.1,0.1,0.1,0.1,0.1,0.2c1.1,1.2,2.3,1.8,3.9,2c1.2,0.1,2.3-0.1,3.5-0.5c0.9-0.3,1.7-0.8,2.4-1.4
				c0.1,0,0.2-0.2,0.3-0.3c0.2-0.1,0.4-0.2,0.5-0.4c1.2-1.2,1.9-2.6,2.2-4.3c0-0.2,0-0.4,0-0.5c0,0,0-0.1,0.1-0.1
				c0.1-1.4-0.2-2.8-1-3.9C311.8,87.2,311.8,87.2,311.8,87.1z"/>
			<path class="st3" d="M333.2,95.7c0-0.2,0.1-0.3-0.2-0.3c-1.4-0.2-2.6-0.7-3.8-1.5c-0.5-0.4-1-0.7-1.4-1.1c0-0.1,0-0.1-0.1-0.1
				l0,0c0-0.1,0-0.1-0.1-0.1l0,0l0,0l0,0c0-0.1,0-0.1-0.1-0.1l0,0l0,0l0,0c-0.1-0.1-0.2-0.3-0.2-0.4c-0.4-0.5-0.8-1.1-1.1-1.7
				c-0.1-0.2-0.2-0.3-0.4-0.3c-1.3-0.6-2.6-1.2-3.9-1.8c-0.1,0-0.1-0.1-0.1,0c0,0-0.1,0-0.1-0.1l-0.1-0.1c0,0-0.1,0-0.1-0.1
				c-0.1,0-0.1-0.1-0.1,0c0,0-0.1,0-0.1-0.1c-0.1,0-0.1-0.1-0.1,0c-0.1-0.1-0.1,0-0.2-0.1c-0.1,0-0.1-0.1-0.1,0c0,0,0,0-0.1,0
				c0,0,0,0-0.1,0c-0.1,0-0.1-0.1-0.1,0c-0.1,0-0.1-0.1-0.1-0.1s-0.1,0-0.1-0.1l-0.1-0.1l-0.1-0.1c-0.1,0-0.1-0.1-0.1-0.1
				c-0.1-0.1-0.1,0-0.2-0.1c-0.1,0-0.1-0.1-0.1-0.1l0,0c0.8-0.7,1.5-1.5,2.2-2.1c1.1-1,2.1-1.9,3.2-2.9c0.2-0.2,0.4-0.4,0.6-0.6l0,0
				c0.2-0.1,0.4-0.3,0.5-0.4c0.1-0.2,0.3-0.3,0.4-0.4c0-0.1-0.1-0.1-0.1-0.2c-0.6-0.6-1.2-1.3-1.8-1.9c-0.3-0.4-0.8-0.7-1.1-1.2
				c-0.1-0.1-0.1-0.2-0.2-0.2l0,0l-0.1-0.1l0,0l-0.1-0.1l0,0l-0.1-0.1l0,0l-0.1-0.1l0,0l-0.1-0.1l0,0l-0.1-0.1l0,0l-0.1-0.1l0,0
				l-0.1-0.1l0,0l-0.1-0.1l0,0c0,0,0-0.1-0.1-0.1l0,0c0,0,0-0.1-0.1-0.1l0,0c0-0.1,0-0.1-0.1-0.1l0,0c-0.1-0.2-0.3-0.3-0.5-0.5
				c-0.3,0.3-0.4,0.5-0.7,0.7l-0.1,0l-0.1,0.1l0,0c0,0-0.1,0-0.1,0.1l0,0c0,0,0,0.1-0.1,0.1c0,0,0,0,0,0.1c0,0,0,0-0.1,0
				c0,0,0,0-0.1,0c0,0-0.1,0-0.1,0.1l-0.1,0.1l-0.1,0.1l0,0c0,0-0.1,0-0.1,0.1l-0.1,0.1c-0.1,0.1-0.1,0.1-0.1,0.1
				c-1.3,1.6-2.6,3.2-3.9,4.8c0-0.1,0-0.1,0-0.2c0-1,0-1.9,0-2.8c0-0.7,0-1.3,0.1-1.9c-0.1-0.2,0-0.5,0-0.7c0-0.3,0-0.7,0-1
				c-0.6,0.1-1.2,0.3-1.7,0.4c-0.7,0.2-1.3,0.4-2,0.4c0,0,0,0-0.1,0c-0.1,0.1-0.1,0-0.2,0l0,0c-0.1,0.1-0.1,0-0.2,0c0,0,0,0-0.1,0
				c-0.1,0-0.1,0-0.2,0l-0.1,0c-0.1,0.1-0.1,0-0.2,0l0,0c-0.1,0.1-0.1,0-0.2,0c0,0,0,0-0.1,0c-0.1,0-0.1,0-0.1,0l-0.1,0
				c-0.1,0.1-0.1,0-0.2,0l0,0c-0.1,0.1-0.1,0-0.2,0c0,0,0,0-0.1,0c-0.1,0-0.1,0-0.1,0l-0.1,0c-0.1,0.1-0.1,0-0.2,0l0,0
				c-0.1,0.1-0.1,0-0.2,0c-0.2,0.1-0.5,0-0.6,0.2c-0.1,0.2-0.1,0.4,0,0.6l-0.1,0c-0.1,0.3-0.1,0.6-0.1,0.9c0,0.2,0.2,0.3,0.3,0.3
				c0.4,0,0.8-0.2,1.1-0.2c0.4-0.1,0.4-0.1,0.4,0.4c0,0.5,0,1.1,0.1,1.7c0,0.1,0,0.1,0,0.2c0.1,0.2,0,0.4,0,0.5c0,0.1,0,0.1,0,0.2
				c0.1,0.2,0,0.4,0,0.5c0,0.2,0,0.4,0,0.5c0,0.8,0,1.7,0,2.5c0,0.2,0.1,0.4,0.2,0.6c0.3,0.3,0.5,0.6,0.7,1c0,0.1,0,0.2,0.1,0.3
				c0.5,1,0.8,1.9,0.8,3c0,0.5,0.1,1.1,0,1.6c-0.1,1.3-0.6,2.5-1.3,3.6c-0.2,0.4-0.4,0.8-0.3,1.3c0,0.1,0,0.1,0,0.1
				c0,0.8,0,1.6,0.1,2.4c0,0.2,0,0.2,0.2,0.2c0.4-0.1,0.9-0.1,1.3-0.1c0.5-0.1,1.1-0.1,1.7-0.2c0.2,0,0.5-0.1,0.7,0
				c0.2,0,0.2-0.1,0.3-0.3c0-0.4,0-0.7,0-1c0.1-2.4,0.3-4.7,0.4-7c0.1,0,0.2,0.1,0.3,0.1c2.8,1.6,5.6,3.3,8.4,4.9
				c0.3,0.1,0.5,0.3,0.8,0.4c0.1,0.1,0.1,0.2,0.3,0.2c1.4,0.8,2.8,1.6,4.2,2.5c0.1,0,0.2,0.2,0.4,0.1l0,0c0.3,0.2,0.6,0.3,0.9,0.6
				c0.2,0,0.1-0.1,0.1-0.3C333,98.3,333.1,97,333.2,95.7z"/>
			<path class="st3" d="M388.3,86.2C388.3,86.3,388.3,86.2,388.3,86.2c-0.1,0-0.2,0-0.3-0.1c0,0,0,0-0.1,0c-0.1-0.1-0.2,0-0.3-0.1
				l-0.1,0c-0.1,0-0.1,0-0.1,0c-0.9-0.2-1.9-0.5-2.8-0.8c-0.4-0.1-0.9-0.3-1.4-0.4c-0.3-0.1-0.3-0.1-0.3,0.2c0,0.1-0.1,0.3-0.1,0.4
				c0,0,0,0.1-0.1,0.1c0,0.1,0,0.1,0,0.2c0,0,0,0.1-0.1,0.1c0,0.1,0,0.1,0,0.1c-0.1,0.2-0.1,0.4-0.2,0.6c-0.1,0.1-0.1,0.3-0.2,0.4
				c-0.6,2-1.3,4.1-1.9,6.1c-0.1,0.4-0.2,0.9-0.4,1.3c0-0.1,0-0.2,0-0.2c-0.4-2.5-0.8-4.9-1.1-7.4c0-0.1,0-0.2-0.1-0.3
				c0-0.1,0-0.1,0-0.1c0-0.1,0-0.1,0-0.1c0-0.1,0-0.1,0-0.1c-0.1-0.1,0-0.1,0-0.2c0-0.1,0-0.1,0-0.1c-0.1-0.1,0-0.1,0-0.2
				c0-0.1-0.1-0.3-0.1-0.4c0-0.1,0-0.1,0-0.2l0-0.1c-0.1-0.1,0-0.1,0-0.2s0-0.1,0-0.1c-0.1-0.1,0-0.1,0-0.2c0-0.1,0-0.1,0-0.1
				c0-0.1,0-0.1,0-0.2c0-0.1,0-0.1,0-0.1c0-0.1,0-0.1,0-0.2l0-0.1c-0.1-0.1,0-0.2,0-0.2l0,0l0,0c0-0.1-0.2,0-0.3-0.1l-0.1,0
				c-0.1-0.1-0.2,0-0.3-0.1l-0.1,0c-0.1-0.1-0.2,0-0.3-0.1l-0.1,0c-0.1-0.1-0.2,0-0.3-0.1l-0.1,0c-0.1-0.1-0.2,0-0.3-0.1l-0.1,0
				c-0.1-0.1-0.2,0-0.3-0.1l-0.1,0c-0.7-0.2-1.3-0.4-2-0.5c-1-0.2-2-0.5-3-0.8c-0.1,0-0.2,0-0.2,0.1c0,0.3-0.1,0.7-0.1,1
				c0,0.1,0,0.1,0,0.2c-0.1,0.1-0.1,0.2-0.1,0.3c0,0.1,0,0.2,0,0.3c0.3,0.2,0.8,0.3,1.1,0.4c0.2,0.1,0.3,0.2,0.3,0.4
				c-0.1,0.5-0.2,1-0.2,1.4c0,0.1,0,0.1,0,0.1c0,0.2,0.1,0.4,0,0.6c0,0.3-0.1,0.6-0.1,0.9c0,0.1,0,0.2,0.1,0.4
				c0.1,0.2,0.3,0.3,0.4,0.5c0.4,0.6,0.7,1.1,1,1.8c-0.1,0.1,0,0.2,0,0.2c0.6,1.8,0.5,3.7-0.3,5.4l-0.1,0.1c0,0.1,0,0.1,0,0.2
				c-0.1,0.3-0.2,0.4-0.3,0.7c-0.6,1.2-1.5,2.2-2.4,3c-0.3,0.2-0.5,0.4-0.6,0.8c-0.1,0.8-0.3,1.6-0.4,2.4c0,0.2,0,0.4,0.3,0.4
				c0.4,0.1,0.8,0.1,1.2,0.3c0.5,0.1,1,0.2,1.5,0.3c0.1,0,0.3,0.1,0.4,0l0,0c0.1,0.1,0.3,0.1,0.5,0.1c0.1,0,0.2,0.1,0.3,0
				c0-0.1,0-0.1,0-0.1c0.2-0.2,0.2-0.4,0.2-0.7c0.2-0.9,0.4-1.7,0.6-2.6c0.4-1.4,0.7-2.8,1-4.2c0.1-0.7,0.4-1.4,0.5-2.2
				c0,0.1,0,0.1,0,0.2c-0.1,2-0.1,4-0.3,6c0,0.1,0,0.1,0,0.2c0,0.1,0,0.2,0,0.2c0,1.6-0.1,3.2-0.2,4.8c-0.1,0.5,0,1,0,1.4
				c0,0.1,0,0.3,0.1,0.4c0.3,0.1,0.6,0.2,0.9,0.4c0.7,0.2,1.3,0.5,2,0.7c0.2,0.1,0.4,0.2,0.7,0.3c0.1-0.3,0.2-0.4,0.3-0.7
				c0-0.1,0-0.2,0.1-0.3c0.2-0.6,0.5-1.2,0.7-1.8c0.2-0.4,0.4-0.9,0.5-1.3c0.1-0.1,0-0.1,0.1-0.2l0-0.1c0.1-0.1,0.1-0.1,0-0.1l0,0
				c0-0.1,0-0.1,0-0.2c0.3-0.7,0.5-1.4,0.8-2.1c0.2-0.5,0.4-1.1,0.6-1.6c0.1-0.1,0-0.1,0-0.1l0,0l0,0c0.1-0.1,0-0.1,0.1-0.2
				c0.1-0.1,0-0.1,0.1-0.2l0,0c0.1-0.1,0-0.1,0.1-0.2c0-0.1,0-0.1,0-0.2c0.4-0.9,0.8-1.9,1.1-2.8c0.2-0.5,0.4-1.1,0.6-1.6
				c0-0.1,0-0.1,0-0.2c0.4-1,0.8-2,1.2-2.9c0.2-0.5,0.4-0.9,0.6-1.4c0-0.1,0-0.1,0-0.2c0.3-0.7,0.5-1.4,0.8-2
				c0.2-0.6,0.5-1.2,0.7-1.8C388.4,86.3,388.4,86.3,388.3,86.2z M376.3,93.6L376.3,93.6L376.3,93.6L376.3,93.6z"/>
			<path class="st3" d="M383.1,99.6L383.1,99.6L383.1,99.6z"/>
			<path class="st3" d="M361.1,102.1c-0.1-0.1,0-0.2,0-0.4l0-0.1c0.1-0.4,0.1-0.5-0.3-0.7c-0.8-0.4-1.5-1.1-2.1-1.8l-0.1-0.1
				l-0.1-0.1c-1-1.5-1.6-3.1-1.4-4.9c0.1-1.5,0.6-2.9,1.4-4.2c0.2-0.2,0.3-0.4,0.4-0.7c0,0,0-0.1,0.1-0.1c0,0,0-0.1,0.1-0.1l0,0
				l0.1-0.1l0,0l0,0l0,0c0.1,0,0.1-0.1,0.1-0.1c0.1-0.3,0.3-0.4,0.5-0.6c0.2-0.1,0.2-0.3,0.2-0.5c-0.1-1-0.2-2-0.3-3
				c-0.1-0.5-0.1-1-0.1-1.5c0-0.1,0-0.1,0-0.1c-0.1-0.9-0.2-1.8-0.2-2.7c-0.1-0.5-0.1-1-0.1-1.5c-0.1-0.2,0-0.4-0.1-0.6
				c0-0.1-0.1-0.2-0.2-0.2c-0.4,0-0.8,0-1.2-0.1c-0.7,0-1.3-0.1-2.1-0.1c-0.3,0-0.2,0-0.3,0.2c0,0.1,0,0.3-0.1,0.4l-0.1,0.1
				c0,0.1,0,0.1,0,0.1s-0.1,0-0.1,0.1c-0.1,0.1-0.1,0.1,0,0.1c0,0.1,0,0.2-0.1,0.3c0,0,0,0.1-0.1,0.1c0,0.1,0,0.2-0.1,0.3
				c-0.1,0.3-0.2,0.7-0.2,1c-0.4,1.6-0.8,3.2-1.2,4.8l0,0c-0.1-1.6-0.4-3.3-0.6-4.8c0-0.1,0-0.1-0.1-0.2c-0.1-0.5-0.1-0.9-0.2-1.4
				c0-0.1,0-0.2-0.1-0.3c-0.1,0-0.2,0-0.4,0c-1.5-0.1-2.9-0.2-4.4-0.3c-0.1,0-0.1,0-0.2,0c-0.1,0-0.2,0-0.2,0.1
				c-0.1,0.3-0.1,0.6-0.2,0.8l-0.1,0c-0.1,0.1-0.1,0.3-0.1,0.4c-0.1,0.5-0.2,1-0.3,1.5c0,0.1-0.1,0.1,0,0.1c0,0.1,0,0.2-0.1,0.3
				c0,0.1-0.1,0.1,0,0.1c0,0.1,0,0.2-0.1,0.3c-0.2,0.7-0.3,1.4-0.5,2c0,0,0,0.1-0.1,0.1c0,0.1,0,0.2-0.1,0.4c-0.1,0.5-0.2,1-0.3,1.5
				c-0.1,0.7-0.4,1.5-0.5,2.2c0,0.2,0.2,0.3,0.3,0.4c0.3,0.3,0.6,0.6,1,1c0.1,0.1,0.1,0.2,0,0.3c-0.6,0.5-1.2,1.1-1.8,1.5
				c-0.3,0.2-0.4,0.5-0.5,0.8c0,0.1,0,0.2,0,0.4c0,0.1,0,0.2,0,0.2c-0.2,0.6-0.3,1.3-0.5,1.9c-0.1,0.4-0.1,0.7-0.3,1.1
				c-0.1,0.3,0.1,0.3,0.2,0.3c0.8,0.2,1.6,0.4,2.4,0.6c0.4,0.1,0.9,0.2,1.4,0.3c0.1,0,0.1,0,0.1,0c0.2,0,0.4,0.1,0.6,0.2
				c0.2,0,0.2,0,0.2-0.1c0.1-0.4,0.2-0.8,0.3-1.2c0.1-0.5,0.2-0.9,0.4-1.4c0-0.1,0-0.2,0-0.2c0.1-0.4,0.2-0.9,0.3-1.4
				c0.2-0.9,0.4-1.9,0.7-2.8c0.1,0.1,0.1,0.2,0.2,0.4c0.5,1.4,1.1,2.7,1.6,4.1c0.1,0.2,0.1,0.3,0.2,0.5c0.2,0.3,0.2,0.6,0.4,0.8l0,0
				c0.1,0.2,0.2,0.5,0.3,0.7c0.1-0.1,0.1-0.2,0.1-0.3c0.2-0.5,0.5-1.1,0.8-1.6c0-0.1,0-0.2,0.1-0.3c0.2-0.5,0.4-1,0.7-1.4
				c0.2-0.4,0.4-0.8,0.6-1.3l0,0c0.1,0,0,0.1,0,0.1c0,0.1,0,0.2,0,0.3c0.1,0.9,0.2,1.8,0.2,2.7c0.1,1.4,0.2,2.7,0.3,4
				c0.1,0.4,0,0.8,0.2,1.2c0,0.2,0.1,0.5,0.1,0.8c0,0.3,0,0.3,0.3,0.3c0.6,0.2,1.2,0.3,1.9,0.4c0.6,0.2,1.3,0.3,1.9,0.4
				c0.3,0.1,0.6,0.1,0.9,0.2c0.1,0.1,0.2,0,0.3,0.1l0.1,0c0.1-0.1,0-0.2,0-0.3C361.2,102.1,361.1,102.1,361.1,102.1z"/>
			<path class="st3" d="M299.9,81.6c0-0.3-0.1-0.5-0.1-0.8c-0.1-0.1,0-0.1-0.1-0.2l0,0c0-0.1-0.1-0.1-0.1-0.2
				c-0.4-1.1-1-2.1-1.9-2.9c-0.3-0.3-0.6-0.5-0.9-0.7c0-0.1-0.1-0.1-0.1-0.1l0,0c0-0.1-0.1-0.1-0.1,0l-0.1-0.1l0,0
				c0-0.1-0.1-0.1-0.1-0.1l0,0l0,0l0,0c0-0.1-0.1-0.1-0.1,0l0,0l-0.1-0.1l0,0c0-0.1-0.1-0.1-0.1-0.1l0,0l0,0l0,0
				c0-0.1-0.1-0.1-0.1,0l0,0c0-0.1-0.1-0.1-0.1,0l0,0l0,0l0,0c0-0.1-0.1-0.1-0.1,0l0,0c0-0.1-0.1-0.1-0.1,0c0,0,0,0-0.1,0
				c0-0.1-0.1-0.1-0.1,0l0,0c-0.1-0.1-0.1-0.1-0.1,0l-0.1,0c-0.1-0.1-0.1-0.1-0.1,0l0,0l0,0l0,0c-0.1-0.1-0.1,0-0.2-0.1l0,0
				c-0.5-0.2-1.1-0.3-1.6-0.5c-2-0.5-4-0.5-6-0.3c-0.6,0.1-1.2,0.2-1.9,0.2l-0.1,0c-0.1,0.1-0.1,0-0.2,0l-0.1,0
				c-0.1,0.1-0.1,0-0.2,0c0,0,0,0-0.1,0s-0.1,0-0.2,0l-0.1,0c-0.1,0.1-0.1,0-0.2,0l0,0c-0.1,0.1-0.1,0-0.2,0c0,0,0,0-0.1,0
				c-0.1,0-0.1,0-0.1,0l-0.1,0c-0.1,0-0.1,0-0.1,0l-0.1,0c-0.1,0-0.1,0-0.1,0c-0.1,0-0.1,0-0.1,0.1c-2.1,0.6-4.1,1.4-6,2.3
				c-0.1,0-0.1,0.1-0.2,0.1l0,0c0,0-0.1,0-0.1,0.1c0,0,0,0-0.1,0c-0.1,0-0.1,0-0.1,0.1c0.1,0.1,0.1,0.3,0.2,0.4l0,0
				c0.1,0.1-0.3,0.3-0.3,0.4c0.2,0.5,0.3,1,0.5,1.5l0.3,0.1l-0.1,0.3l0.3-0.1c0,0.1,0,0.3,0,0.4l0.3-0.1c0,0.1-0.3,0.6-0.2,0.6
				c0.5,0.9,0.5,1.1,0.9,1.9c0.2,0.3,0,1.2,0.4,1.1c0.1,0,1,0.3,1.1,0.2c0.5-0.2,1.1-0.1,1.5-0.3c0.2-0.1,0.4-0.9,0.5-0.6
				c0.2,0.6,0.4,0.6,0.6,1.3c0.6,1.5,1.1,3,1.7,4.5s1.2,3,1.7,4.5c0,0.1-0.5,1.1,0.3,0.9c0.1,0-1.5,2.5-1.5,1.6
				c0.5,1.4,1.6,0.6,2.1,2c0.1,0.3-0.2,0.7-0.1,1c0.1,0.1,0.9,0.3,0.9,0.4c0.3,0.9,0,1.3,0.3,2.2c0.1,0.3,1.3,0.8,1.4,1.1
				c0.1,0.1-1.5,0.8-1.4,0.7c0.1,0,0.7,0.2,0.7,0.2c0.1-0.1,0.4,0.4,0.5,0.4c0.9-0.2,1.1,0.2,2,0c0.3-0.1,1.5-0.7,1.9-0.8
				c0.1,0,1.2,0.1,1.2,0c0-0.1,0.4-1.9,0.3-1.9c-0.1-0.5-0.9-0.9-1-1.4c-0.1-0.1,0-0.1,0-0.2l0-0.1c0-0.1,0-0.1-0.1-0.1
				c-0.2-0.8-0.3-1.6-0.5-2.4c-0.1-0.5-0.2-1-0.3-1.5c-0.1-0.1,0-0.1,0-0.1c-0.3-1.4-0.3-2-0.6-3.5c0.6-0.4,0.9-0.5,1.4-0.9
				C299.2,91,300,82.9,299.9,81.6z"/>
			<path class="st3" d="M372.4,91.1c-0.1-0.5-0.2-1-0.6-1.4c-0.3-0.5-0.7-0.9-1.1-1.4c-1.3-1.1-2.9-1.5-4.6-1.4
				c-1.6,0.1-3,0.8-4.3,1.9c-0.2,0.1-0.3,0.2-0.4,0.4l-0.1,0c-0.1,0-0.1,0-0.1,0.1c-0.1,0-0.1,0.1-0.1,0.1l-0.1,0.1
				c-0.1,0.1-0.1,0.1-0.1,0.1c-1.4,1.5-2.1,3.2-2.1,5.2c0,0.1,0,0.2,0.1,0.4c0.2,1.5,0.8,2.7,1.9,3.7c0.1,0.1,0.2,0.2,0.3,0.2
				c0,0,0.1,0,0.1,0.1c1,0.7,2.2,1,3.4,1.1c0.5,0,1-0.1,1.4-0.1c0.5,0,1-0.2,1.5-0.4l0.1,0c0.4-0.2,0.8-0.4,1.2-0.6
				c0.3-0.2,0.6-0.4,0.9-0.7c0.1,0,0.2-0.1,0.3-0.2c0.9-0.8,1.5-1.7,2-2.7C372.5,94.1,372.7,92.6,372.4,91.1z"/>
			<path class="st3" d="M342.2,88.7C342.1,88.6,342.1,88.6,342.2,88.7c-0.1-0.1-0.1-0.1-0.1-0.1l-0.1-0.1l0,0l-0.1-0.1l0,0
				c-0.5-0.5-1-1.1-1.6-1.6c-0.3,0.3-0.6,0.6-1,0.9l0,0c-0.2,0-0.3,0.1-0.4,0.2l-0.1,0.1l-0.1,0.1c-0.8,0.5-1.6,0.7-2.5,0.8
				c-0.4,0-0.6,0.1-1,0c0.5-0.5,1-1,1.6-1.5c1.2-1.1,2.4-2.2,3.5-3.3c0.1-0.1,0.3-0.2,0.4-0.3l0.1-0.1c0.1-0.2,0.3-0.3,0.4-0.5
				c0.4-0.3,0.7-0.6,1-1c-0.1-0.1,0-0.1-0.1-0.1l0,0l0,0l0,0c0-0.1,0-0.1-0.1-0.1l0,0l0,0l0,0c0-0.1,0-0.1-0.1-0.1l0,0
				c0-0.1,0-0.1-0.1-0.1l0,0c0-0.1,0-0.1-0.1-0.1l0,0c0,0,0-0.1-0.1-0.1l0,0l-0.1-0.1l0,0l-0.1-0.1l0,0l-0.1-0.1l0,0l-0.1-0.1l0,0
				l-0.1-0.1l0,0l-0.1-0.1l0,0c-0.1-0.1-0.2-0.2-0.3-0.3c-0.7-0.7-1.6-1.2-2.5-1.6c-1.3-0.5-2.7-0.6-4-0.4c-1.6,0.2-3.1,0.7-4.5,1.7
				c-0.3,0.2-0.5,0.4-0.8,0.7c-0.1,0.1-0.2,0.1-0.3,0.2c-0.3,0.2-0.5,0.4-0.6,0.7c-1.2,1.6-1.5,3.4-1.2,5.3c0.2,1.4,0.8,2.6,1.7,3.6
				c0.3,0.3,0.6,0.7,1.1,0.9c0.1,0.1,0.1,0,0.2,0.1c1.1,0.8,2.4,1.1,3.8,1.3s2.6,0,4-0.4c0.6-0.1,1.2-0.3,1.8-0.5
				c0.1-0.1,0.2,0,0.3-0.1c0.9-0.3,1.6-0.8,2.3-1.3c0.1-0.1,0.1-0.1,0.1-0.1c0,0,0,0,0-0.1c0.4-0.2,0.7-0.6,1-0.9
				C343.1,89.6,342.6,89.1,342.2,88.7z"/>
		</g>
		<g>
			<path class="st4" d="M332.7,84.6c0.2-0.2,0.3-0.5,0.5-0.6c0.7-0.3,1.4-0.3,2,0l0,0.1c-0.2,0.3-0.5,0.5-0.7,0.7
				c-0.6,0.6-1.2,1.2-1.9,1.9c-0.2-0.3-0.2-0.7-0.3-1C332.4,85.3,332.6,85,332.7,84.6z"/>
			<path class="st4" d="M335.3,84C335.3,84.1,335.3,84.1,335.3,84C335.3,84.1,335.3,84.1,335.3,84L335.3,84
				C335.3,84,335.3,84,335.3,84z"/>
			<path class="st4" d="M292.8,86.4c-0.1-0.5-0.3-1-0.4-1.6c-0.1-0.5-0.2-0.9-0.3-1.3c0.1-0.1,0.2,0,0.2,0c0.7,0.1,1.2,0.7,1.3,1.5
				c0,0.5,0.1,1-0.2,1.3c0,0.1-0.2,0.2-0.1,0.4c-0.1,0.1-0.3,0.3-0.4,0.4C292.9,86.7,292.9,86.6,292.8,86.4z"/>
		</g>
		<g>
			<path class="st5" d="M390.9,85.2c-0.1,0-0.1,0-0.2,0c-2.9-0.9-5.7-1.8-8.6-2.7c-0.1,0-0.1,0-0.2,0c-0.1,0.3-0.2,0.7-0.4,1
				c-0.1,0.3-0.1,0.4-0.2,0.7c0,0.2-0.1,0.3-0.2,0.5c0,0.1,0,0.1,0,0.2c0,0,0,0.1-0.1,0.1c0,0.1-0.1,0.3-0.1,0.4c0,0.1,0,0.1,0,0.2
				c0,0,0,0.1-0.1,0.1c0,0.1,0,0.1,0,0.1l0,0.1c-0.1,0,0-0.1,0-0.1l0-0.1c0-0.1,0-0.1,0-0.2c0-0.1,0-0.1,0-0.1c0-0.1,0-0.1,0-0.2
				c0-0.1,0-0.1,0-0.1c0-0.1,0-0.1,0-0.2s0-0.1,0-0.2c0-0.3-0.1-0.6-0.1-0.9c0-0.2-0.1-0.4-0.1-0.6l0,0c0,0,0.1,0,0.1-0.1
				c-0.1,0-0.1-0.1-0.1,0c0-0.1,0-0.1,0-0.1c0-0.2-0.1-0.5-0.1-0.8c0-0.2-0.1-0.3-0.3-0.3c-3-0.9-6.1-1.7-9.1-2.6
				c-0.4-0.1-0.8-0.3-1.2-0.3c-0.2,0.4-0.1,0.8-0.1,1.2c0,0.1,0,0.3,0,0.4c0,0.6-0.1,1.2-0.1,1.9c0,0.1,0,0.2,0.1,0.2
				c0,0.2-0.1,0.5,0,0.7c0,0.4,0,0.7,0,1c0,0.2-0.1,0.4,0,0.5c0.3,0.3,0.7,0.3,1.1,0.4c0.1,0,0.1,0,0.2,0l0,0c0,0.1,0.1,0.1,0.1,0.2
				c0,0.2-0.1,0.4-0.1,0.7c0,0.1-0.1,0.2-0.2,0.1c-0.3-0.1-0.5-0.2-0.7-0.4c-2.3-1.3-5.8-0.5-8,0.8c-0.1,0-0.1,0.1-0.2,0.1
				c-0.1-0.6-0.1-1.4-0.2-2c-0.1-0.5-0.1-1-0.1-1.4c0-0.1,0-0.2,0-0.3c-0.1-1-0.2-2-0.3-3c-0.1-0.5-0.1-1-0.2-1.4
				c0-0.7-0.1-1.3-0.2-2c0-0.2,0-0.2-0.3-0.3c-2.2-0.1-4.5-0.3-6.7-0.4c-0.1,0-0.2,0-0.2,0c-0.2,0.2-0.2,0.4-0.2,0.7
				c-0.1,0.4-0.1,0.4-0.5,0.4c-0.4,0-0.8-0.1-1.3-0.1c-0.1,0.1-0.2,0-0.4,0c-1.3-0.1-2.5-0.2-3.7-0.2c-0.5,0-1.1,0-1.6-0.1
				c-0.1,0-0.1,0-0.1,0c0.1,0,0.1,0.1,0.1,0.1c0,0.1-0.1,0.1,0,0.1c0,0.1-0.1,0.1,0,0.1c0,0.1,0,0.2,0,0.2c0,0.1,0,0.1,0,0.2
				s0,0.2,0,0.2c0,0.1,0,0.1,0,0.1l0,0c0,0.1-0.1,0.1,0,0.1c0,0.2-0.1,0.4-0.2,0.6c-0.1,0.5-0.2,1-0.3,1.5c0,0.2-0.1,0.5-0.2,0.7
				c0,0.1,0,0.2,0,0.4c-0.1,0.2-0.1,0.4-0.2,0.7c-0.1-0.2-0.3-0.3-0.4-0.5l0,0l0,0l0,0c-0.2-0.5-0.6-0.9-1-1.3
				c-0.1,0-0.2-0.1-0.3-0.2c-0.9-0.9-1.9-1.5-3.1-2.1c-0.7-0.3-1.4-0.5-2.1-0.6c-0.3-0.1-0.5-0.1-0.7-0.1c-0.1,0-0.1,0-0.1-0.1
				c0.1,0,0.1,0,0.1-0.1c0.1,0,0.1,0,0.1-0.1c0.1,0,0.1,0,0.1-0.1l0,0c0.1,0,0.1,0,0.1-0.1l0,0c0,0,0.1-0.1,0.1-0.1l0,0l0,0l0.1-0.1
				l0,0c0,0-0.1,0-0.1,0.1c0.1,0,0.1,0,0.1,0c0.1,0,0.1,0,0.1-0.1c0.1,0,0.1,0,0.1-0.1c0.1,0,0.1,0,0.1-0.1c0.1,0,0.1,0,0.1-0.1
				c0.1,0,0.1,0,0.1-0.1l0,0c0.1,0,0.1-0.1,0.1-0.1l0,0l0,0l0.1-0.1l0,0c0,0-0.1,0-0.1,0.1c0.1,0,0.1,0,0.1,0c0.1,0,0.1,0,0.1-0.1
				c0.1,0,0.1,0,0.1-0.1c0.1,0,0.1,0,0.1-0.1c0.1,0,0.1,0,0.1-0.1l0,0c0.1,0,0.1,0,0.1-0.1l0,0c0.1,0,0.1-0.1,0.1-0.1l0,0l0,0
				l0.1-0.1l0,0c-0.1,0-0.1,0-0.1,0.1c0.1,0,0.1,0,0.1,0c0.1,0,0.1,0,0.1-0.1c0.1,0,0.1,0,0.1-0.1c0.1,0,0.1,0,0.1-0.1
				c0.1,0,0.1,0,0.1-0.1l0,0l0,0l0,0l0,0l0,0l0,0c0.1,0,0.1,0,0.1-0.1l0,0c0,0,0.1-0.1,0.1-0.1l0,0l0,0l0.1-0.1l0,0
				c-0.1,0-0.1,0-0.1,0.1c0.1,0,0.1,0,0.1,0c0.1,0,0.1,0,0.1-0.1c0.1,0,0.1,0,0.1-0.1c0.1,0,0.1,0,0.1-0.1c0.1,0,0.1,0,0.1-0.1
				c0.2,0,0.3-0.1,0.4-0.2l0,0c0.1,0,0.1,0,0.1-0.1l0,0c0.1,0,0.1,0,0.2-0.1c0.6-0.3,1.2-0.6,1.8-0.8c0.1,0,0.1-0.1,0.1-0.1
				c0.1,0,0.1-0.1,0-0.2c-0.3-0.4-0.5-0.9-0.8-1.4c0-0.1-0.1-0.2-0.2-0.3c-0.9-1.6-1.9-3.2-2.9-4.9c-0.1-0.1-0.1-0.2-0.2-0.3l-0.1,0
				l0,0.1c-0.1,0-0.1,0-0.1,0.1c0,0,0,0,0.1,0l0,0c-0.4,0.4-0.9,0.8-1.3,1.2l-0.1,0.1c0,0,0,0-0.1,0l-0.1,0.1c0,0,0,0-0.1,0
				l-0.1,0.1l-0.1,0.1c-0.2,0.2-0.4,0.4-0.6,0.6c-0.2,0.1-0.2,0.3-0.4,0.4l-0.1,0.1c0,0,0,0-0.1,0c0,0-0.1,0-0.1,0.1c0,0,0,0-0.1,0
				c0,0-0.1,0-0.1,0.1l-0.1,0.1c-0.2,0.2-0.4,0.3-0.5,0.5c-0.2,0.2-0.4,0.4-0.6,0.6c-0.2,0.1-0.3,0.3-0.5,0.5c0,0-0.1,0-0.1,0.1
				l-0.1,0.1c-0.2,0.2-0.4,0.4-0.6,0.6c-0.1,0.1-0.3,0.3-0.4,0.4l-0.1,0.1l0,0l-0.1,0.1c0,0-0.1,0-0.1,0.1c-0.1,0.1-0.2,0.1-0.2,0.3
				c-0.2,0.1-0.2,0.3-0.4,0.3c-0.2,0.2-0.3,0.3-0.5,0.5c0,0.1,0,0.1,0,0.1c-0.2,0.1-0.4,0.3-0.6,0.6c-0.4,0.3-0.7,0.7-1.1,1
				c-0.1,0.1,0,0.1-0.1,0.2c0,0.3,0.2,0.5,0.4,0.7c0.1,0.1,0.2,0.3,0.3,0.4l0,0c-0.1,0.1,0,0.1,0,0.2c0,0.1,0.1,0.2,0.1,0.2
				c0.1,0.2,0.2,0.3-0.1,0.4c-0.4,0.1-0.7,0.3-1.1,0.5l-0.1,0l-0.1,0c-0.1,0.1-0.3,0.1-0.4,0.2c0,0.1-0.1,0.1-0.2,0.1
				c-0.1,0.1-0.2,0.1-0.3,0.2c-0.3,0.1-0.7,0.3-1,0.4c-0.1,0-0.2,0-0.3-0.1c-0.2-0.2-0.3-0.4-0.5-0.5c-0.5-0.5-1-1.1-1.6-1.5
				c0,0,0-0.1-0.1-0.1l0,0c0-0.1-0.1-0.1-0.1-0.1l0,0c-0.1,0-0.1-0.1-0.1-0.1l-0.1-0.1l0,0l-0.1-0.1l0,0l-0.1-0.1l0,0l-0.1-0.1l0,0
				c0,0,0-0.1-0.1-0.1c-1.1-1.1-2.3-2.3-3.4-3.4c-0.1-0.1-0.1-0.1-0.2-0.1c-0.2,0.2-0.3,0.4-0.4,0.6c0,0.1-0.1,0.1,0,0.1l-0.1,0.1
				l-0.1,0.1l-0.1,0.1c0,0.1-0.1,0.2-0.2,0.3c0,0.1-0.1,0.2-0.2,0.3l-0.1,0.1l-0.1,0.1c0,0.1-0.1,0.2-0.2,0.3c0,0.1-0.1,0.1,0,0.1
				l-0.1,0.1c0,0.1-0.1,0.2-0.2,0.3c-0.1,0.1-0.2,0.3-0.2,0.4c0,0.1-0.1,0.1,0,0.1l-0.1,0.1c0,0.1-0.1,0.2-0.1,0.3
				c-0.1,0-0.2,0.1-0.1,0.3l0,0.1l-0.1,0c-0.1,0-0.2,0.2-0.3,0.2c-0.1-0.1-0.1-0.1-0.1-0.2c0,0,0-0.1,0.1-0.1c0.1-0.6,0-1.1,0.1-1.6
				c0-0.1,0-0.2,0-0.2c0-0.1,0.1-0.1,0-0.1l0-0.1c-0.1-0.1,0-0.2,0-0.4c0-0.4,0-0.7,0.1-1.1c-0.1,0-0.2,0-0.4,0
				c-2.5,0.6-5.1,1.2-7.5,1.9c-1,0.3-2.1,0.5-3.1,0.8c0,0.1,0,0.1,0,0.1c0,0.1,0,0.2,0,0.3c0,0.1,0,0.2,0,0.4c0.1,0.1,0,0.2,0,0.2
				c0,0.4,0,0.7,0,1c0.1,0.1,0,0.2,0,0.3c0,0.3,0,0.6-0.1,0.8c0.1,0.1,0,0.2,0,0.3c0,0.3,0,0.7-0.1,1c0.1,0.1,0.1,0.1,0,0.2
				l-0.1,0.1c-0.1,0.3,0,0.5-0.1,0.8c0,0.1,0,0.2,0.2,0.3c0.2,0,0.4,0,0.5-0.1c0.4,0,0.7-0.2,1.1-0.2c0.2,0,0.1,0.2,0.2,0.3
				c0,0.7,0.1,1.4,0.1,2.2c0,0.2-0.1,0.2-0.2,0.1c-0.1-0.1-0.1,0-0.2-0.1l-0.1-0.1c-0.3-0.1-0.4-0.2-0.7-0.3
				c-0.3-0.1-0.6-0.2-0.8-0.3c0,0.1-0.1,0.1-0.2,0.1c-0.9-0.2-1.9-0.2-2.8-0.1c-1.3,0.2-2.5,0.6-3.6,1.2c-0.1,0.1-0.1,0.1-0.2,0.1
				c0-0.1,0-0.1,0-0.2c0.2-0.8,0.3-1.6,0.3-2.4c0-0.5,0-1.1-0.2-1.6c0-0.1,0-0.1,0-0.2c-0.3-1.1-0.7-2.1-1.5-3
				c-0.4-0.5-0.9-1.1-1.4-1.5l0-0.1c-0.9-0.7-1.9-1.4-3-1.9c-1.3-0.6-2.7-0.8-4-1c-1.5-0.2-3-0.2-4.4,0c-1.9,0.2-3.7,0.6-5.5,1.2
				c-0.7,0.2-1.4,0.4-2.1,0.8c-0.2,0-0.3,0.1-0.5,0.2c-1.7,0.6-3.2,1.5-4.7,2.3c-0.1,0-0.1,0.1-0.1,0.1c0.2,0.1,0.2,0.3,0.3,0.4
				c0,0.1,0.1,0.2,0.2,0.3l0,0.1c0,0.1,0.1,0.2,0.1,0.2c0,0.1,0,0.1,0.1,0.1l0,0c0.1,0.2,0.3,0.5,0.4,0.7c0.1,0.1,0.1,0.2,0.2,0.3
				c0.1,0.2,0.2,0.5,0.3,0.6c0,0.1,0,0.1,0,0.1c0.2,0.3,0.4,0.6,0.5,1c0.2,0.3,0.3,0.6,0.4,0.9c0.1,0.2,0.3,0.4,0.4,0.7
				c0,0.1,0,0.1,0.1,0.1l0,0c0.2,0.3,0.3,0.6,0.5,1c0.1,0.2,0.2,0.4,0.3,0.6c0,0.1,0,0.1,0.1,0.1l0,0l0.1,0c0,0.1,0.1,0.2,0.1,0.3
				c0.1,0.2,0.2,0.4,0.3,0.6c0.2,0.3,0.3,0.6,0.5,1c0.5-0.2,1-0.4,1.5-0.6c0.1,0,0.1,0,0.2-0.1c0.1,0,0.1,0,0.1-0.1
				c0.1,0,0.1,0,0.1,0c0.1-0.1,0.1-0.1,0.1-0.1c0.1,0.2,0.2,0.4,0.3,0.6c0.2,0.5,0.4,0.9,0.5,1.4c0.2,0.4,0.3,0.8,0.5,1.3
				c0.1,0.3,0.3,0.6,0.3,0.9l0,0.1l0,0.1c0,0,0,0.1,0.1,0.1l0,0l0,0.1c0,0.1,0,0.1,0.1,0.1c0.2,0.3,0.2,0.5,0.3,0.8
				c0.2,0.5,0.4,1,0.6,1.5l0,0c0,0.1,0,0.1,0.1,0.1c0,0.1,0.1,0.1,0.1,0.1c0.2,0.5,0.4,1,0.6,1.5l0,0.1l0,0c0,0.1,0,0.1,0,0.1l0,0
				l0,0c0,0.1,0,0.1,0.1,0.1c0.2,0.3,0.3,0.6,0.4,1l0,0c0,0.1,0,0.1,0.1,0.1l0,0.1c0,0.1,0,0.1,0.1,0.1c0.1,0.2,0.2,0.4,0.3,0.7l0,0
				c0,0.1,0,0.1,0.1,0.1c0.1,0.2,0.2,0.5,0.3,0.8c0.2,0.5,0.4,1.1,0.6,1.6c0,0.3,0.2,0.6,0.3,0.9c0.3,0.8,0.6,1.5,0.9,2.3
				c0,0.1,0,0.1,0.1,0.1l0,0c0,0.1,0,0.1,0.1,0.1l0,0.1c0,0,0,0.1,0.1,0.1l0,0.1l0.1,0.1l0,0.1c0,0.1,0,0.1,0.1,0.1l0,0
				c0,0.1,0,0.1,0.1,0.1l0,0c0,0.3,0.2,0.6,0.3,0.9c0.2,0.6,0.4,1.1,0.6,1.7c0.1,0.1,0.1,0.2,0.3,0.1c0.4-0.1,0.8-0.2,1.3-0.3
				c0.8-0.2,1.7-0.4,2.5-0.6c0.6-0.1,1.2-0.3,1.7-0.5c0.1,0,0.1,0,0.1,0l0.1,0c0.1,0,0.1,0,0.1,0l0,0l0.1,0c0.1,0,0.1,0,0.1,0
				s0.1,0,0.1,0l0.1,0c0.1,0,0.1,0,0.1,0c0.1,0,0.1,0,0.1,0c0.1,0,0.1,0,0.1,0c0.1,0,0.1,0,0.1,0c0.1,0,0.1,0,0.1,0
				c0.1,0,0.1,0,0.1,0c0.1,0,0.1,0,0.1,0c0.1,0,0.1,0,0.2,0c0.1,0,0.1,0,0.2,0c0.1,0,0.1,0,0.2,0l0,0c0.1,0,0.2-0.1,0.4,0
				c0.2,0,0.2-0.1,0.1-0.3c-0.1-0.6-0.2-1.2-0.3-1.7c-0.1-0.4-0.1-0.8-0.3-1.2c0-0.1,0-0.1,0-0.2l0-0.1c0-0.1,0-0.1,0-0.2
				c-0.2-0.9-0.3-1.7-0.5-2.6c0-0.1,0-0.2,0-0.3l0,0c0,0,0,0,0-0.1c0-0.1,0-0.1,0-0.1c0-0.2,0-0.4-0.1-0.6c0-0.1,0-0.1,0-0.2
				c0-0.1,0-0.1,0-0.1c0-0.1,0-0.2-0.1-0.2c0.1-0.1,0-0.2,0-0.3c0-0.3-0.1-0.5-0.2-0.8c-0.1-0.3-0.1-0.6-0.2-1s-0.1-0.7-0.2-1.1
				c0-0.2,0-0.3,0.1-0.4c0.6-0.3,1-0.7,1.5-1.1c-0.2,0.6,0,1.1-0.1,1.7c0,0.1,0,0.1,0,0.1c0,0.1,0,0.2,0,0.3c0,0.3,0.1,0.5,0.1,0.8
				l0,0.1c0,0.1,0,0.1,0,0.2c0,0.2,0.1,0.5,0.2,0.8c0,0.1,0,0.2,0.1,0.2c0,0,0,0-0.1,0.1c0,0,0,0.1,0,0.1c0,0.1,0,0.1,0.1,0.2
				c0.2,0.5,0.4,0.8,0.7,1.2c0.4,0.6,0.9,1,1.3,1.5c0.7,0.6,1.4,1,2.3,1.3c0,0,0.1,0,0.1,0.1c0.1,0,0.1,0,0.3,0.1
				c0.8,0.3,1.6,0.4,2.5,0.4c0.4,0,0.7,0,1.1-0.1c1.1-0.1,2.2-0.4,3.2-0.9l0.1,0c0,0,0,0,0,0.1c0.1,0,0.1-0.1,0.1-0.1
				c0.1,0,0.1-0.1,0.2-0.1c0,0,0.1,0,0.1-0.1c0.1-0.1,0.2-0.1,0.3-0.2c0.2-0.1,0.3-0.2,0.5-0.3c0,0,0.1,0,0.1-0.1c0,0,0.1,0,0.1-0.1
				c0.1-0.1,0.3-0.2,0.4-0.3c0.1,0,0.1-0.1,0.1-0.1c0.1-0.1,0.2-0.1,0.2-0.1c0.1,0.1,0.1,0.2,0,0.2c0,0.3,0,0.7,0,1
				c0,0.6,0,1.2,0.1,1.8c0,0.2,0.1,0.3,0.3,0.4c2.4-0.2,4.8-0.4,7.2-0.6c0.1,0,0.1,0,0.1-0.1c0.1-0.1,0.1-0.2,0.1-0.3
				c0.1-1.5,0.2-3,0.3-4.5c0.1-0.1,0.1-0.3,0.1-0.3c0-0.4,0.1-0.8,0.1-1.2c0-0.4,0-0.4,0.3-0.2c1,0.6,2.1,1.2,3.1,1.8
				c0.1,0,0.2,0.2,0.3,0.1c0.1,0,0.1,0,0.1,0c0.3,0.2,0.7,0.4,1,0.5l0,0.1c0.1,0,0.1,0,0.1,0c0.1,0.1,0.2,0.2,0.3,0.2
				c1.2,0.7,2.3,1.3,3.5,2c0.1,0.1,0.2,0.1,0.3,0.2c0.1,0,0.2,0.1,0.3,0.1c0.8,0.5,1.8,1,2.6,1.5c0.2,0.1,0.4,0.2,0.6,0.3
				c0.1,0,0.1,0,0.1,0c0.9,0.5,1.8,1,2.7,1.6c0,0,0,0.1,0.1,0.1c0.1-0.1,0-0.2,0.1-0.3c0.1-1.8,0.2-3.5,0.3-5.3c0-0.3,0-0.7,0.1-1
				c0,0,0,0,0-0.1c0-0.1,0-0.2,0-0.4c0-0.2-0.1-0.4,0.1-0.6c0.2-0.1,0.3,0,0.5-0.1c2-0.1,3.9-0.7,5.7-1.5c0.1-0.1,0.2-0.1,0.3-0.2
				c0.1,0.1,0,0.1,0,0.2c0,0.1-0.1,0.1,0,0.1c0,0.1,0,0.2,0,0.2c0,0.1-0.1,0.1,0,0.1c0,0.1,0,0.2,0,0.2c0,0.1-0.1,0.1,0,0.1
				c0,0.1,0,0.2-0.1,0.3c0,0.1-0.1,0.1,0,0.1c0,0.1,0,0.2-0.1,0.3c0,0.1,0,0.1,0,0.1l0,0l0,0.1c-0.2,0.6-0.3,1.2-0.4,1.9
				c0,0.2,0.1,0.2,0.2,0.3c0.2,0,0.3,0.1,0.5,0.1c0.7,0.1,1.4,0.3,2.2,0.5c0.6,0.1,1.2,0.3,1.7,0.4c0.3,0.1,0.6,0.1,0.9,0.2
				c0.1,0,0.3,0,0.4,0.1c0.3,0.1,0.6,0.2,0.9,0.2c0.5,0.1,0.9,0.2,1.4,0.4c0.2,0.1,0.3,0,0.3-0.2c0.2-0.9,0.4-1.7,0.6-2.6
				c0.3,0.8,0.8,1.6,1.2,2.4c0.1,0.2,0.1,0.5,0.3,0.6c0.2,0.3,0.3,0.6,0.5,1c0.2-0.2,0.3-0.5,0.5-0.7c0.4-0.5,0.7-1.1,0.9-1.5
				c0,0.2-0.1,0.6,0.1,0.9l0,0c0,0-0.1,0-0.1,0.1c-0.1,0.3,0,0.5,0,0.7c0,0.5,0.1,1.1,0.1,1.6c0,0.1,0,0.1,0,0.1c0,0.1,0,0.2,0,0.4
				c0,0.3,0.1,0.5,0.4,0.6c3,0.7,5.9,1.4,8.9,2.2c0.1,0,0.3,0.1,0.4,0c0,0,0.1,0,0.1-0.1c-0.1-0.6-0.1-1.2-0.2-1.8
				c0-0.1,0-0.2,0-0.3l0,0c0-0.1,0-0.1,0-0.1c0-0.1,0-0.2,0.2-0.2c-0.1,0-0.1,0-0.1,0c0,0,0-0.1,0.1-0.1c0-0.1,0-0.2,0-0.4
				c0-0.3,0-0.3,0.3-0.3c0.3,0,0.6,0,0.8,0.1c0.1,0,0.2,0,0.3-0.1c0.5,0.1,1-0.1,1.5-0.1c0.5-0.1,1-0.3,1.6-0.4
				c0.1-0.1,0.2-0.1,0.3-0.1c0,0.2,0,0.3-0.1,0.5c-0.1,0.6-0.2,1-0.3,1.6c-0.1,0.4-0.2,0.9-0.2,1.4c0.1,0,0.1,0,0.2,0
				c0,0.1,0.1,0.1,0.1,0c0.4,0.1,0.9,0.2,1.3,0.3c0.6,0.1,1.3,0.3,1.9,0.4c0.5,0.1,1,0.2,1.5,0.3c0.4,0.1,0.7,0.2,1.2,0.2
				c0.1,0.1,0.1,0,0.2,0.1c0,0.1,0,0.1,0,0.1c0,0.1,0,0.1,0,0.2c0,0.1,0,0.1,0,0.2l0,0.1l0,0c0,0,0,0-0.1,0
				c-0.1,0.1-0.1,0.3-0.1,0.4c0,0.4,0,0.7,0,1.1c0,0.2-0.1,0.4,0,0.6c0.1,0.2,0.3,0.1,0.4,0.2c1.6,0.6,3.1,1.2,4.7,1.8
				c0.5,0.2,1,0.5,1.5,0.5c0.1,0,0.1-0.1,0.1-0.1c0.1-0.3,0.2-0.5,0.3-0.8c0.3-0.7,0.5-1.4,0.9-2.1c0.1,0,0.1-0.1,0-0.1
				c0,0,0,0,0-0.1c0.3-0.6,0.6-1.3,0.8-1.9c0.2-0.5,0.4-1,0.6-1.5c0.1,0,0.1-0.1,0-0.1c0,0,0,0,0-0.1c0.3-0.6,0.5-1.3,0.8-1.9
				c0.2-0.4,0.4-0.9,0.5-1.3c0.1,0,0.1-0.1,0-0.1c0,0,0,0,0-0.1c0.1,0,0.1-0.1,0-0.1l0,0c0,0,0,0,0-0.1c0.1,0,0.1-0.1,0-0.1
				c0,0,0,0,0-0.1c0.1-0.1,0-0.1,0.1-0.2c0.1-0.1,0-0.1,0.1-0.2c0.1-0.1,0.1-0.2,0.1-0.3c0.5-1.1,0.9-2.3,1.4-3.5
				c0.2-0.4,0.4-0.8,0.5-1.3c0.1-0.1,0.1-0.2,0.1-0.3c0.4-0.9,0.7-1.8,1.1-2.7c0.2-0.5,0.4-1,0.6-1.5c0.1,0,0.1-0.1,0-0.1l0-0.1
				c0.1-0.1,0.1-0.2,0.1-0.3c0.5-1.1,0.9-2.3,1.4-3.4c0.1-0.2,0.2-0.4,0.2-0.6c0.2-0.3,0.3-0.6,0.4-1C391,85.3,391,85.2,390.9,85.2z
				 M388.1,90.6L388.1,90.6L388.1,90.6z M378,82.4C378,82.4,378,82.4,378,82.4C378,82.4,378,82.4,378,82.4L378,82.4z M361.1,89.5
				L361.1,89.5L361.1,89.5L361.1,89.5C361.1,89.5,361.1,89.5,361.1,89.5C361.1,89.5,361.1,89.5,361.1,89.5L361.1,89.5z M344.1,83.7
				L344.1,83.7L344.1,83.7c0,0.1,0,0.1,0,0.2c0,0.1-0.1,0.1,0,0.1c-0.1,0.1,0,0.1-0.1,0.2c-0.1,0.4-0.2,0.7-0.2,1
				c-0.1,0.4-0.2,0.9-0.3,1.4c-0.3-0.4-0.7-0.7-1-1c-0.1-0.1-0.1-0.2,0-0.3c0.3-0.3,0.6-0.6,0.9-0.8c0.2-0.2,0.5-0.4,0.6-0.7
				C343.9,83.8,344,83.8,344.1,83.7z M337,72.1c0.3-0.3,0.6-0.7,0.9-1c0.2-0.3,0.5-0.5,0.7-0.7c0.2-0.2,0.2-0.1,0.4,0
				c0.4,0.7,0.8,1.3,1.3,1.9c0.1,0.1,0.1,0.2,0.3,0.3l0,0l0,0.1l0,0l0,0.1l0,0.1l0,0.1l0,0c0,0,0,0.1,0.1,0.1c0,0,0,0.1,0.1,0.1
				c0,0,0,0.1,0.1,0.1l0,0.1l0,0.1l0,0.1c0,0.1,0,0.1,0,0.1c-0.4,0.2-0.8,0.3-1.2,0.6c-0.5,0.2-1,0.4-1.5,0.6
				c-0.1,0.1-0.2,0.1-0.3,0.2l-0.1,0l0,0l-0.1,0l-0.1,0l0,0l0,0l-0.1,0l0,0l0,0l0,0l-0.1,0l0,0l0,0l0,0l-0.1,0l0,0l0,0l0,0l-0.1,0
				c0,0,0,0-0.1,0l0,0c0,0,0,0-0.1,0l-0.1,0c-0.1,0-0.1,0-0.1,0l-0.1,0c0,0-0.1,0-0.1,0.1l0,0c-0.1,0-0.3,0.1-0.4,0.2l0,0l-0.1,0
				c-0.1,0-0.1,0-0.1,0l-0.1,0c0,0-0.1,0-0.1,0l-0.1,0l-0.1,0l-0.1,0l-0.1,0l-0.1,0l-0.1,0l-0.1,0l-0.1,0l-0.1,0l-0.1,0l-0.1,0
				l-0.1,0l-0.1,0l-0.1,0l-0.1,0l-0.1,0l-0.1,0l-0.1,0l-0.1,0l-0.1,0l-0.1,0c-0.1,0-0.1,0-0.1,0l-0.1,0c-0.1,0-0.1,0-0.1,0
				c-0.1,0-0.1,0-0.1,0c-0.2,0.1-0.3,0.1-0.5-0.1c-0.2-0.3-0.2-0.4,0-0.6c0.2-0.2,0.4-0.4,0.6-0.7l0.1-0.1l0,0l0.1-0.1l0.1-0.1
				l0.1-0.1l0,0c0,0,0.1,0,0.1-0.1l0,0c0,0,0.1,0,0.1-0.1l0,0c0,0,0.1,0,0.1-0.1l0,0c0,0,0.1,0,0.1-0.1c0,0,0,0,0.1-0.1
				c0,0,0-0.1,0.1-0.1l0,0c0,0,0.1,0,0.1-0.1l0,0c0,0,0.1,0,0.1-0.1l0,0c0,0,0.1,0,0.1-0.1l0.1-0.1l0,0c0.1-0.1,0.1-0.1,0.1-0.1
				c0,0,0,0,0.1,0c0,0,0.1,0,0.1-0.1l0,0c0,0,0.1,0,0.1-0.1l0.1-0.1l0.1-0.1l0,0c0,0,0.1,0,0.1-0.1l0,0c0,0,0.1,0,0.1-0.1l0,0
				c0,0,0.1,0,0.1-0.1l0.1-0.1l0.1-0.1l0,0c0,0,0.1,0,0.1-0.1l0,0c0,0,0.1,0,0.1-0.1l0,0c0,0,0.1,0,0.1-0.1c0,0,0.1,0,0.1-0.1
				c0,0,0-0.1,0.1-0.1l0,0l0,0l0,0l0,0l0,0c0,0,0.1,0,0.1-0.1l0,0c0,0,0.1,0,0.1-0.1l0,0c0,0,0.1,0,0.1-0.1c0,0,0.1,0,0.1-0.1
				c0,0,0-0.1,0.1-0.1l0,0C336.8,72.3,336.9,72.1,337,72.1z M324.3,87.4c0-0.1-0.1-0.1-0.1-0.1c-0.1,0-0.3-0.1-0.4-0.2
				c-0.3-0.1-0.3-0.1-0.1-0.4c0.3-0.2,0.5-0.5,0.8-0.7s0.5-0.4,0.8-0.7c-0.1,0.6-0.1,1.2-0.1,1.7c0,0.2,0,0.4,0.1,0.6
				c-0.1,0.1-0.2,0.1-0.4,0C324.8,87.5,324.6,87.4,324.3,87.4z M278,78c1-0.5,2.1-1,3.2-1.4c0.9-0.3,1.7-0.6,2.6-0.9
				c0.1,0,0.1-0.1,0.2-0.1l0.1,0c0.1,0,0.1,0,0.1,0l0.1,0c0.1,0,0.1,0,0.1,0l0.1,0c0.1,0,0.1,0,0.1,0l0.1,0c0.1,0,0.1,0,0.1,0l0.1,0
				c0.1,0,0.1,0,0.1,0l0.1,0c0.1,0,0.1,0,0.2,0l0.1,0c0.1,0,0.1,0,0.2,0l0,0c0,0,0,0,0.1,0c0.2,0,0.3,0,0.5,0
				c1.2-0.2,2.4-0.3,3.7-0.4c1.7,0,3.4,0.3,5,0.8c0.1,0,0.2,0,0.3,0l0,0l0,0c0,0,0.1,0,0.1,0.1l0,0c0,0,0.1,0,0.1,0.1
				c0,0,0.1,0,0.1,0.1l0.1,0.1c0,0,0.1,0,0.1,0.1l0.1,0.1c0,0,0.1,0,0.1,0.1l0.1,0.1c0,0,0.1,0,0.1,0.1c0,0,0.1,0,0.1,0.1
				c0,0,0.1,0,0.1,0.1l0.1,0.1c0,0,0.1,0,0.1,0.1c0,0,0.1,0,0.1,0.1c0,0,0.1,0,0.1,0.1c0,0,0.1,0,0.1,0.1c0,0,0.1,0,0.1,0.1l0,0l0,0
				l0,0l0,0c0,0,0,0.1,0.1,0.1c0,0,0,0,0.1,0.1l0.1,0.1c0,0,0,0,0.1,0.1c0,0,0,0,0.1,0.1l0,0c0,0,0,0.1,0.1,0.1c0,0,0,0,0.1,0.1
				l0.1,0.1c0,0,0,0.1,0.1,0.1c0,0.1,0.1,0.1,0.1,0.1c0.1,0.1,0.1,0.1,0.1,0.2c1.2,0.9,2.1,2,2.5,3.3c0,0.1,0,0.1,0.1,0.2l0,0
				c0,0.1,0,0.2,0,0.2c0,0.1,0,0.2,0,0.3c0.2,0.9,0.1,1.8-0.1,2.7c-0.2,0.7-0.4,1.3-0.7,2c0,0.1-0.1,0.1,0,0.1l-0.1,0.1
				c0,0.1-0.1,0.1,0,0.1l0,0c-0.1,0.1-0.1,0.1-0.1,0.1c-0.4,0.7-0.8,1.2-1.3,1.8c-0.3,0.3-0.5,0.7-0.9,0.9c-0.2,0.3-0.5,0.5-0.7,0.7
				c-0.4,0.4-0.9,0.7-1.3,1.1l-0.1,0c-0.6,0.3-1.1,0.7-1.7,1c-0.1,0-0.1,0.1-0.1,0.2c0,0.1,0,0.1,0,0.1c0.2,1.3,0.5,2.7,0.8,4
				c0,0.1,0,0.2,0.1,0.2l0,0c0,0.1,0,0.1,0,0.2c0.2,1.2,0.5,2.5,0.7,3.7c0,0.1,0,0.2,0.1,0.2l0,0c0,0-0.1,0-0.1,0.1
				c0,0.1,0,0.2,0,0.2c0.1,0.5,0.2,0.9,0.2,1.4c0,0.2,0,0.3-0.2,0.4c-0.3,0-0.5,0.1-0.8,0.2c-0.9,0.2-1.8,0.5-2.7,0.7
				c-0.1,0-0.3,0-0.3,0.2c-0.1,0-0.3-0.1-0.3-0.1c0-0.1,0-0.3-0.1-0.4c-0.4-1-0.7-1.9-1.1-2.9c0-0.1,0-0.2-0.2-0.2
				c0,0-0.1,0-0.1-0.1l0.1,0c0-0.2,0-0.3-0.1-0.5c-0.4-1.1-0.8-2.3-1.3-3.4c-0.2-0.5-0.3-0.9-0.5-1.3l0,0c0-0.1,0-0.2-0.1-0.2
				c-0.4-1-0.8-2.1-1.2-3.1c-0.2-0.5-0.3-1-0.5-1.4c0-0.1,0-0.2-0.1-0.3c-0.4-1.1-0.8-2.2-1.2-3.3c-0.1-0.3-0.3-0.6-0.4-0.9
				c-0.2-0.7-0.5-1.4-0.7-2.1c-0.1-0.2-0.1-0.2-0.3-0.1c-0.6,0.3-1.2,0.5-1.8,0.8c-0.3,0.1-0.2,0.1-0.4-0.1
				c-0.2-0.5-0.6-1.1-0.8-1.6c-0.2-0.4-0.4-0.8-0.6-1.2c0-0.1,0-0.1-0.1-0.1c0-0.1,0-0.1-0.1-0.1l0,0c0,0,0-0.1-0.1-0.1l0,0l0,0.1
				c0-0.1,0-0.1,0-0.1l0,0c0-0.1,0-0.2-0.1-0.3c-0.2-0.5-0.6-1.1-0.8-1.6c-0.1-0.1-0.1-0.2-0.2-0.3l0-0.1c0,0,0,0,0.1-0.1
				c0,0,0.1,0,0.1-0.1l0,0C277.7,78.2,277.9,78.1,278,78z M307.3,98.1c-1.7,0.6-3.5,0.7-5.2,0c-0.8-0.3-1.5-0.9-2.1-1.5l-0.1-0.1
				l-0.1-0.1c-0.1-0.1-0.1-0.1-0.1-0.1l0-0.1c0,0,0-0.1-0.1-0.1l0,0c0,0,0-0.1-0.1-0.1l0-0.1c0-0.1,0-0.1-0.1-0.1c0,0,0-0.1-0.1-0.1
				l0,0c0-0.1-0.1-0.1-0.1-0.2c-0.5-0.9-0.8-1.9-0.7-3c0-0.5,0.1-1,0.2-1.5c0.1-0.3,0.2-0.6,0.3-0.9c0.4-1.2,1.2-2.2,2.1-3.2
				c0-0.1,0.2-0.1,0.2-0.2c0.2-0.2,0.5-0.4,0.7-0.6l0,0l0,0c0.2,0,0.3-0.2,0.4-0.2c1.6-1,3.3-1.5,5.3-1.2c1.3,0.2,2.4,0.8,3.3,1.7
				c0.1,0.1,0.1,0.2,0.3,0.2l0,0c0.1,0.1,0.1,0.2,0.2,0.2c0,0,0,0.1,0.1,0.1c0,0.1,0.1,0.1,0.1,0.1c0.4,0.7,0.7,1.5,0.9,2.3
				c0.1,0.5,0.1,1.1,0.1,1.6l0,0c-0.1,0.2-0.1,0.4-0.1,0.6c-0.1,0.1,0,0.1-0.1,0.3c-0.3,1.5-1,2.8-2,3.9c-0.2,0.1-0.3,0.3-0.5,0.5
				l-0.1,0c-0.2,0.1-0.3,0.2-0.4,0.3C309,97.4,308.1,97.8,307.3,98.1z M326.8,96.9L326.8,96.9L326.8,96.9z M331.9,99.3
				c-0.1,0-0.2-0.1-0.3-0.1c-1.4-0.8-2.9-1.7-4.3-2.4c-0.1-0.1-0.1-0.1-0.3-0.1l0,0c-0.1-0.2-0.2-0.2-0.4-0.3
				c-2.9-1.7-5.8-3.4-8.7-5.1c-0.1-0.1-0.2-0.1-0.3-0.1c-0.1,0-0.2,0-0.3,0.1c0,0.2-0.1,0.4-0.1,0.5c-0.1,2.3-0.3,4.7-0.4,7
				c0,0.2-0.1,0.4-0.1,0.6l0,0c-0.2,0-0.5,0-0.8,0c-0.8,0-1.7,0.1-2.5,0.2c-0.6,0.1-0.6,0-0.6-0.6c0-0.7,0-1.3-0.1-2
				c0-0.1,0-0.2-0.1-0.2c0-0.1,0-0.2,0-0.2c0-0.2,0-0.4,0.1-0.5c0.3-0.6,0.7-1.2,0.9-1.8c0.3-0.7,0.5-1.4,0.6-2.2
				c0.1-0.1,0-0.2,0.1-0.3c0.1-1,0-2.1-0.3-3.1c-0.2-0.6-0.4-1.1-0.8-1.6c0,0,0,0-0.1,0l0.1,0c-0.1-0.4-0.3-0.6-0.5-0.9
				c-0.1-0.2-0.2-0.4-0.3-0.7c0-0.6,0-1.2-0.1-1.8c0-0.4,0-0.8-0.1-1.1c-0.1-0.2,0-0.4,0-0.5c0-0.1,0-0.1,0-0.2c0-0.2,0-0.3,0-0.5
				c0-0.1,0-0.2,0-0.2c0-0.1,0-0.1-0.1-0.1c0-0.7,0-1.4,0-2c-0.6,0.1-1.2,0.2-1.9,0.4c0-0.4,0-0.7,0-1.1c0.1-0.1,0-0.1,0.1-0.2
				c0-0.4,0.2-0.5,0.5-0.5c0.1,0,0.1-0.1,0.2-0.1l0.1,0c0.1,0,0.1,0,0.1,0l0.1,0c0.1,0,0.1,0,0.1,0l0.1,0c0.1,0,0.1,0,0.1,0l0.1,0
				c0.1,0,0.1,0,0.1,0l0.1,0c0.1,0,0.1,0,0.1,0l0.1,0c0.1,0,0.1,0,0.1,0l0.1,0c0.1,0,0.1,0,0.1,0l0.1,0c0.1,0,0.1,0,0.1,0l0.1,0
				c0.1,0,0.1,0,0.1,0l0.1,0c0.1,0,0.1,0,0.1,0s0,0,0.1,0l0,0c0.1,0,0.3,0,0.4-0.1c1-0.2,2-0.4,3-0.7c0.3-0.1,0.3,0,0.3,0.3
				c0,0.4,0,0.7,0,1c0,0.2,0,0.2,0.1,0.2l0,0.1c-0.1,0.1-0.1,0.2-0.1,0.3c0,0.3,0,0.7,0,1c0,1.1,0,2.3,0,3.4c0,0.1,0,0.2,0.1,0.3
				c0.1-0.1,0.1-0.1,0.2-0.2c1.2-1.5,2.4-2.9,3.6-4.4c0.1-0.1,0.2-0.2,0.2-0.3c0.1-0.1,0.1-0.1,0.2-0.2c0.1,0,0.1,0,0.1-0.1
				l-0.1,0.1l0,0l0.1-0.1l0,0c0.1,0,0.1-0.1,0.1-0.1c0.1,0,0.1,0,0.1-0.1c-0.1,0-0.1,0-0.1,0.1l0,0l0,0l0,0l0,0
				c0-0.1,0.1-0.1,0.1-0.1l0.1-0.1l0,0c0,0,0,0,0-0.1c0.1,0,0.1-0.1,0.1-0.1l0.1-0.1l0,0c0.1,0,0.1-0.1,0.1-0.1
				c0.2-0.1,0.3-0.3,0.5-0.5c0.2-0.2,0.2-0.1,0.4-0.1c0.1,0.1,0.1,0.2,0.3,0.2l0,0c0,0,0,0,0,0.1c0,0,0,0.1,0.1,0.1l0,0
				c0,0,0,0.1,0.1,0.1l0,0c0,0,0,0.1,0.1,0.1l0,0c0,0,0,0.1,0.1,0.1l0,0c0,0,0,0.1,0.1,0.1l0,0c0,0,0,0.1,0.1,0.1l0,0
				c0,0,0,0.1,0.1,0.1l0,0c0,0,0,0.1,0.1,0.1l0,0c0,0,0,0.1,0.1,0.1l0,0c0,0,0,0.1,0.1,0.1l0,0c0,0,0,0.1,0.1,0.1l0.1,0.1
				c0.1,0.1,0.1,0.1,0.1,0.2c0.3,0.4,0.6,0.8,1,1.2c0.6,0.6,1.2,1.3,1.8,1.9c0.1,0.1,0.1,0.2,0,0.3c-0.1,0.1-0.2,0.1-0.1,0.3l0,0
				c-0.3,0-0.4,0.2-0.5,0.5c-0.1,0.1-0.1,0.1-0.1,0.1c-2,1.8-4,3.7-5.9,5.5c0,0.1,0,0.1,0.1,0.1c0,0,0,0.1,0.1,0.1
				c0.1,0.1,0.1,0.1,0.3,0.1c0,0,0,0.1,0.1,0.1c0.1,0,0.1,0.1,0.1,0l0.1,0.1l0.1,0c0,0,0,0.1,0.1,0.1c0.1,0.1,0.1,0,0.2,0.1l0.1,0
				c0,0,0,0.1,0.1,0.1c0,0-0.1,0-0.1-0.1l0,0c0,0,0,0.1,0.1,0.1c0.1,0.1,0.1,0.1,0.3,0.1c0,0.1,0.1,0.1,0.1,0l0,0l0,0
				c0,0.1,0.1,0.1,0.1,0l0,0l0,0c0,0.1,0.1,0.1,0.1,0.1l0,0l0,0c0,0.1,0,0.1,0.1,0.1c0.1,0,0.2,0.1,0.3,0.1c1.2,0.6,2.4,1.1,3.6,1.7
				c0.2,0.1,0.3,0.2,0.4,0.4c0.2,0.4,0.5,0.9,0.8,1.3c0.1,0.2,0.3,0.4,0.5,0.6c0,0,0,0,0,0.1c0,0,0,0.1,0.1,0.1c0,0,0,0,0,0.1
				c0,0,0,0.1,0.1,0.1c0,0,0,0,0,0.1c0,0,0,0.1,0.1,0.1c0.6,0.7,1.4,1.2,2.1,1.6c0.9,0.5,1.9,0.8,2.9,1c0.2,0,0.3,0.1,0.3,0.3
				c-0.1,1.3-0.1,2.7-0.3,4.1l0,0C332.6,99.6,332.3,99.4,331.9,99.3z M339.5,92.6c-0.7,0.3-1.5,0.5-2.3,0.6c-2,0.4-4.1,0.3-6-0.5
				c-0.3-0.1-0.7-0.4-1-0.5l-0.1,0c-0.1-0.1-0.1-0.1-0.2-0.2c-1.2-0.9-2-2-2.4-3.5c-0.1-0.2-0.1-0.5-0.2-0.8c0-0.2,0-0.4,0-0.6
				c-0.1-1.5,0.2-3,1-4.3c0.2-0.4,0.6-0.8,0.9-1.1c0.2,0,0.3-0.2,0.4-0.2c0.3-0.2,0.5-0.5,0.8-0.6c2-1.4,4.2-1.9,6.6-1.6
				c1.6,0.2,3,0.8,4.3,2c0.1,0.1,0.2,0.2,0.4,0.2l0,0l0,0.1l0,0c0,0,0,0.1,0.1,0.1l0,0c0,0,0,0.1,0.1,0.1l0,0c0,0,0,0.1,0.1,0.1l0,0
				c0,0,0,0.1,0.1,0.1l0,0c0,0,0,0.1,0.1,0.1l0,0c0,0,0,0.1,0.1,0.1l0,0c0,0,0,0.1,0.1,0.1l0,0c0,0,0,0.1,0.1,0.1l0,0
				c0,0,0,0.1,0.1,0.1l0,0l0,0.1l0,0.1c0,0.1,0,0.1-0.1,0.1c-0.3,0.3-0.6,0.6-0.9,1c-0.2,0.1-0.3,0.3-0.5,0.5l0,0l0,0l0,0l0,0l0,0
				l0,0l0,0l0,0c-0.2,0.1-0.3,0.2-0.4,0.3c-0.1,0.1-0.1,0.1-0.2,0.1c-1.4,1.3-2.9,2.7-4.3,4c-0.2,0.2-0.4,0.4-0.6,0.6
				c0.1,0.2,0.3,0.1,0.4,0.1c0.4,0,0.8,0,1.2-0.1c0.7-0.2,1.4-0.3,1.9-0.8l0,0c0.1,0,0.1,0,0.1-0.1c0.1-0.1,0.2-0.1,0.3-0.2
				c0.3-0.1,0.6-0.4,0.8-0.6c0.1-0.1,0.2-0.1,0.4,0c0.2,0.3,0.5,0.5,0.8,0.8c0.1,0.2,0.3,0.4,0.6,0.5c0,0,0,0,0,0.1c0,0,0,0,0,0.1
				c0,0,0,0.1,0.1,0.1c0,0.1,0.1,0.1,0.1,0.1c0,0.1,0.1,0.1,0.1,0.1c0.3,0.4,0.7,0.8,1.1,1.1c0.3,0.3,0.3,0.2,0,0.5
				c-0.2,0.2-0.6,0.4-0.8,0.6c-0.7,0.6-1.5,1-2.3,1.3c-0.1,0.1-0.2,0.1-0.3,0.2c-0.1,0-0.1,0-0.1,0
				C339.6,92.5,339.6,92.5,339.5,92.6z M361.1,102.3c-0.1,0-0.1,0-0.1,0c-0.1,0-0.2,0-0.3-0.1c-0.3-0.1-0.6-0.1-0.9-0.2
				c-1.2-0.3-2.3-0.5-3.5-0.7c-0.4-0.1-0.4-0.1-0.5-0.5c0-0.2,0-0.4-0.1-0.5c0-0.1-0.1-0.1-0.1-0.1c0-0.1,0-0.1,0-0.2
				c-0.1-1.2-0.2-2.4-0.3-3.6c-0.1-0.5-0.1-1-0.1-1.5c0-0.4,0-0.7-0.1-1.1c0-0.7-0.1-1.4-0.1-2c0-0.1,0-0.1-0.1,0l0,0
				c-0.1,0.1-0.1,0.1-0.1,0.3c-0.4,0.8-0.8,1.7-1.2,2.5c-0.1,0.1-0.1,0.2,0,0.2c-0.2,0.2-0.3,0.5-0.4,0.7c-0.1,0.3-0.3,0.6-0.5,1
				c-0.1-0.2-0.2-0.4-0.3-0.6c0-0.1-0.1-0.2-0.1-0.3c-0.2-0.3-0.3-0.7-0.4-1c0-0.1,0-0.1,0-0.1c-0.5-1.4-1.1-2.9-1.7-4.3
				c0-0.1-0.1-0.2-0.1-0.2c-0.1,0.1-0.1,0.3-0.2,0.4c-0.3,1.3-0.6,2.6-0.9,3.9c0,0.1,0,0.2,0,0.3l0,0c-0.1,0.1-0.1,0.3-0.1,0.4
				c-0.2,0.7-0.3,1.4-0.5,2.1c0,0.1-0.1,0.3-0.3,0.3c-0.2-0.1-0.4-0.1-0.7-0.1c-0.6-0.1-1.2-0.3-1.9-0.4c-0.7-0.2-1.4-0.3-2-0.5
				c-0.1,0-0.2,0-0.1-0.2l0,0l0,0c0.2-0.1,0.2-0.2,0.1-0.3c0.1-0.5,0.2-1,0.3-1.5c0.1-0.4,0.2-0.9,0.3-1.4c0-0.1,0-0.1,0-0.1
				c0-0.1,0.1-0.3,0.1-0.4c0-0.2,0.1-0.3,0.2-0.4c0.7-0.6,1.3-1.2,2-1.8c0.1-0.1,0.2-0.1,0-0.2c-0.5-0.5-0.9-0.9-1.4-1.4
				c0-0.1,0-0.1,0-0.1c0.2-0.7,0.3-1.5,0.5-2.3c0.1-0.5,0.2-0.9,0.3-1.4c0.1-0.1,0.1-0.3,0.1-0.4l0,0c0.1-0.3,0.1-0.5,0.2-0.7
				c0.1-0.5,0.2-0.9,0.3-1.4c0.1-0.1,0-0.2,0.1-0.3c0-0.1,0-0.1,0-0.1s0-0.2,0.1-0.3c0-0.1,0-0.1,0-0.1c0-0.1,0.1-0.1,0-0.1
				c0.2-0.6,0.3-1.2,0.4-1.8c0.1-0.1,0.1-0.3,0.2-0.5c0.1-0.4,0.1-0.4,0.5-0.4c1.5,0.1,3,0.2,4.4,0.3c0.1,0,0.1,0.1,0.1,0.2
				c0,0.4,0.1,0.7,0.1,1.1c0,0.1,0,0.2,0.1,0.2l0,0l0,0c0,0.3,0.1,0.5,0.1,0.8c0.2,1.5,0.4,2.9,0.5,4.4c0,0.1,0,0.1,0,0.2
				c0-0.1,0.1-0.2,0.1-0.3c0-0.1,0-0.2,0.1-0.3c0.3-1.1,0.6-2.2,0.8-3.3c0.1-0.4,0.3-0.8,0.3-1.2c0.1-0.3,0.2-0.7,0.2-1
				c0.1-0.1,0.1-0.2,0.1-0.3c0,0,0,0,0-0.1c0.1-0.1,0-0.2,0.1-0.3c0-0.1,0-0.1,0-0.1l0.1-0.1c0-0.1,0-0.1,0-0.2l0-0.1l0-0.1
				c0,0,0.1,0,0.1,0.1c0.1-0.1,0-0.1,0.1-0.2c0.1-0.4,0.1-0.4,0.6-0.4c0.8,0.1,1.6,0.1,2.5,0.2c0.5,0,0.5,0,0.5,0.5
				c0,0.1,0,0.1,0.1,0.2c0.1,0,0.1,0,0.1,0s0,0,0,0.1c-0.1,0.1-0.1,0.3-0.1,0.4c0.1,1.2,0.2,2.5,0.4,3.7c0,0.1,0,0.2,0,0.2l0,0
				c0,0.1,0,0.2,0,0.4c0.1,1.3,0.2,2.7,0.4,4c0,0.2,0,0.5-0.2,0.7c-0.2,0.1-0.3,0.3-0.4,0.5c0,0.1-0.1,0.1,0,0.1c0,0,0,0-0.1,0.1
				l-0.1,0.1c0,0,0,0-0.1,0.1l-0.1,0.1c0,0,0,0,0,0.1c-0.1,0.1-0.1,0.1-0.1,0.1c-0.5,0.7-0.9,1.4-1.2,2.2c-0.3,0.8-0.6,1.7-0.6,2.5
				c-0.1,1.2,0.1,2.3,0.6,3.4c0.3,0.6,0.5,1.1,1,1.6l0,0l0.1,0.1c0.5,0.7,1.2,1.3,2,1.7c0.3,0.1,0.5,0.3,0.4,0.7c0,0,0,0,0,0.1
				c0,0,0,0,0,0.1c0,0.1,0,0.2,0,0.3C361,102.2,361,102.2,361.1,102.3C361.1,102.2,361.2,102.2,361.1,102.3z M365.6,100
				c-1.5,0.2-2.9,0-4.3-0.9c-0.1-0.1-0.1-0.1-0.3-0.1l-0.1,0l-0.1-0.1c-0.9-0.7-1.5-1.7-1.9-2.8c-0.1-0.4-0.2-0.9-0.2-1.3
				c0-0.1,0-0.1,0-0.2c0-1.3,0.4-2.5,1.1-3.7c0.3-0.5,0.7-1,1.1-1.4c0.1,0,0.1-0.1,0.1-0.1l0,0c0.1,0,0.1,0,0.1-0.1l-0.1,0l0.1,0
				c0.1,0,0.1-0.1,0.1-0.1l0,0c0.1,0,0.1,0,0.1,0c0.3-0.2,0.6-0.5,0.9-0.7c1.8-1.2,3.7-1.8,5.8-1.4c1.2,0.2,2.1,0.7,2.9,1.7
				c0.3,0.3,0.4,0.7,0.8,0.9c0,0,0,0,0.1,0l0,0c0.7,1.3,0.8,2.8,0.4,4.3c-0.1,0.5-0.3,0.9-0.5,1.4c-0.1,0.1-0.1,0.1-0.1,0.1
				c-0.4,0.8-0.9,1.4-1.5,2c-0.2,0.2-0.4,0.5-0.7,0.6c-0.3,0.3-0.7,0.5-1,0.7c-0.3,0.2-0.7,0.3-1,0.5l0,0l0,0l0,0l0,0l0,0l0,0
				c-0.5,0.2-0.9,0.3-1.3,0.4c-0.1,0-0.1,0-0.2,0C365.8,100,365.7,100,365.6,100z M368.4,103.3L368.4,103.3
				C368.4,103.3,368.4,103.3,368.4,103.3z M379.7,108c-0.1,0.1-0.1,0.4-0.3,0.5c-0.2,0-0.4-0.1-0.6-0.2c-0.3-0.1-0.7-0.3-1.1-0.4
				c-0.6-0.2-1.3-0.4-1.8-0.7c0-0.1-0.1-0.1-0.1-0.1c0-0.1,0-0.1,0-0.2c0-0.5,0-1,0.1-1.4c0-0.1,0-0.2,0-0.3c0-0.9,0.1-1.7,0.1-2.6
				c0-0.6,0.1-1.3,0.1-1.9c0-0.1,0-0.1,0-0.2c0-0.1,0-0.1,0-0.1c0-0.1,0-0.2,0-0.3c0.1-1.9,0.2-3.8,0.2-5.7
				c-0.1-0.1,0.1-0.3-0.1-0.3c0,0.1,0,0.2-0.1,0.4c-0.4,1.7-0.8,3.3-1.2,5c-0.1,0.4-0.2,0.9-0.3,1.3c0,0.1-0.1,0.1,0,0.1
				c-0.2,0.6-0.3,1.1-0.4,1.7c-0.1,0.5-0.2,0.9-0.4,1.4c-0.1,0-0.1,0.1-0.1,0.1c-0.1,0.1-0.2,0.1-0.3,0c-0.1-0.1-0.3-0.1-0.5-0.1
				c-0.1,0-0.2,0-0.4-0.1c-0.5-0.1-1-0.2-1.5-0.3c-0.1-0.1-0.1,0-0.2,0c-0.4-0.1-0.7-0.1-1.1-0.3c-0.1,0-0.1-0.1-0.1-0.2
				c0-0.2,0.1-0.5,0.1-0.7c0.1-0.6,0.2-1.2,0.2-1.8l0,0c0-0.2,0.2-0.4,0.4-0.6c1-0.8,1.8-1.8,2.4-2.9c0.2-0.3,0.3-0.6,0.5-1
				c0.1,0,0.1-0.1,0-0.1c0,0,0,0,0-0.1c0.1,0,0.1-0.1,0-0.1c0.4-1.2,0.7-2.4,0.5-3.7c0-0.7-0.2-1.4-0.4-2l0,0c0.1-0.2,0-0.4-0.1-0.5
				c-0.3-0.6-0.6-1.2-1.1-1.8c-0.1-0.2-0.2-0.3-0.1-0.6c0.1-0.3,0-0.5,0.1-0.8c0-0.1,0-0.2,0-0.2c0-0.1,0-0.2,0-0.4l0,0l0,0l0,0l0,0
				l0,0l0,0l0,0l0,0l0,0l0,0c0.1-0.2,0.1-0.4,0.1-0.7c0.1-0.3,0.1-0.7,0.2-1c0-0.1,0-0.2-0.1-0.2c-0.4-0.1-0.9-0.3-1.3-0.4
				c0-0.1,0-0.2,0-0.3c0.1-0.1,0-0.2,0-0.2l0,0c0.1,0,0.1-0.1,0.2-0.2c0-0.2,0-0.4,0-0.6c0-0.4,0.1-0.4,0.5-0.4
				c1.4,0.4,2.8,0.7,4.2,1.1c0.1,0,0.3,0.1,0.4,0.1l0,0l0.1,0.1c0.1,0.1,0.2,0,0.3,0.1c0,0,0.1,0,0.1,0.1c0.1,0,0.2,0,0.2,0
				c0,0,0.1,0,0.1,0.1c0.1,0,0.1,0,0.2,0c0,0,0.1,0,0.1,0.1c0.1,0,0.1,0,0.2,0c0,0,0.1,0,0.1,0.1c0.1,0,0.1,0,0.2,0
				c0,0,0.1,0,0.1,0.1c0.1,0,0.1,0,0.2,0c0,0,0,0.1,0.1,0.1c0,0.1,0,0.1,0,0.2l0,0.1c0,0.1,0,0.1,0,0.2c0,0.1,0,0.1,0,0.1
				c0,0.1,0,0.1,0,0.2c0,0.1,0,0.1,0,0.1c0,0.1,0,0.1,0,0.2c0,0.1,0,0.1,0,0.1c0,0.1,0,0.1,0,0.2l0,0.1c0,0.1,0,0.1,0,0.2
				c0,0.1,0,0.2,0,0.4c0,0.1,0,0.1,0,0.2c0,0.1,0,0.1,0,0.1c0,0.1,0,0.1,0,0.2c0,0.1,0,0.1,0,0.1c0,0.1,0,0.1,0,0.2
				c0,0.1,0,0.1,0.1,0.1c0,0.1,0,0.1,0,0.1c0.4,2.4,0.7,4.8,1.1,7.3c0,0.3,0,0.6,0.2,0.9c0.1-0.1,0-0.2,0.1-0.3
				c0.6-2.1,1.3-4.2,1.9-6.4c0.1-0.4,0.3-0.9,0.4-1.4l0,0c0.2-0.1,0.2-0.4,0.3-0.6c0-0.1,0-0.1,0-0.1c0-0.1,0.1-0.1,0-0.1
				c0-0.1,0-0.1,0-0.2c0-0.1,0.1-0.1,0-0.1c0-0.1,0.1-0.1,0-0.1c0.1-0.4,0.1-0.4,0.6-0.3c0.9,0.2,1.7,0.5,2.6,0.8
				c0.5,0.1,1,0.4,1.5,0.4l0.1,0l0,0c0.1,0.1,0.1,0,0.3,0.1c0,0,0.1,0,0.1,0.1c0.1,0,0.1,0,0.2,0c0,0,0.1,0,0.1,0.1
				c0.1,0.1,0,0.1,0,0.2c-0.5,1.2-1,2.5-1.5,3.7c-0.1,0.1,0,0.2,0,0.2l0,0l-0.1,0c-0.1,0.1-0.1,0.1-0.1,0.3c-0.5,1.3-1,2.7-1.6,4
				c0,0.1-0.1,0.2-0.1,0.3l0,0c-0.1,0-0.2,0.1-0.2,0.3c-0.5,1.3-1.1,2.7-1.6,4c0,0.1-0.1,0.3-0.1,0.4l0,0l0,0
				c-0.1,0.1-0.1,0.1,0,0.1c0,0,0,0.1-0.1,0.1c0,0.1-0.1,0.1,0,0.1c0,0,0,0.1-0.1,0.1c0,0.1-0.1,0.1,0,0.1c0,0,0,0.1-0.1,0.1
				c0,0.1-0.1,0.1-0.1,0.1c-0.5,1.1-1,2.3-1.4,3.5c-0.1,0.1,0,0.2,0,0.2l0,0l0,0l0,0c0,0,0,0-0.1,0c-0.1,0.1-0.1,0.1-0.1,0.1
				c0,0,0,0.1-0.1,0.1c0,0.1,0,0.1-0.1,0.2c-0.5,1-0.9,2.1-1.3,3.2c-0.1,0.1,0,0.1,0,0.2C379.7,107.9,379.7,108,379.7,108z"/>
			<path class="st5" d="M281.9,93.5c0-0.1,0-0.1-0.1-0.1C281.8,93.5,281.8,93.5,281.9,93.5z"/>
			<path class="st5" d="M296.3,98.2c0-0.1,0-0.1-0.1-0.1C296.2,98.2,296.3,98.2,296.3,98.2z"/>
			<path class="st5" d="M276,85.2C276.1,85.3,276.1,85.3,276,85.2C276,85.2,276,85.2,276,85.2z"/>
			<path class="st5" d="M275.2,83.5C275.2,83.6,275.2,83.6,275.2,83.5C275.2,83.5,275.2,83.6,275.2,83.5z"/>
			<path class="st5" d="M325.9,76.7L325.9,76.7L325.9,76.7L325.9,76.7z"/>
			<path class="st5" d="M335.9,69.3c0.1,0,0.1-0.1,0.1-0.1C336,69.3,335.9,69.3,335.9,69.3L335.9,69.3
				C335.9,69.3,335.9,69.3,335.9,69.3C335.9,69.4,336,69.4,335.9,69.3z"/>
			<path class="st5" d="M380.8,83c-0.1,0-0.1,0-0.1,0.1C380.7,83.1,380.8,83,380.8,83z"/>
			<path class="st5" d="M321.7,77.2L321.7,77.2L321.7,77.2z"/>
			<path class="st5" d="M303.6,91.2L303.6,91.2L303.6,91.2z"/>
			<path class="st5" d="M309.6,88.3c-0.1,0.5-0.2,1-0.5,1.3c-0.2,0.1-0.4,0.3-0.6,0.4c-0.1,0.1-0.2,0.1-0.3,0.2
				c-0.2,0-0.3,0-0.5,0.1c-0.5,0-1-0.1-1.4-0.4c-0.3-0.3-0.6-0.6-0.8-1c0-0.1,0-0.1,0-0.1l0-0.1c0-0.2,0-0.5,0-0.7
				c0.1-0.1,0.1-0.1,0.1-0.3l0,0l0,0c0.1-0.1,0.1-0.1,0.2-0.2c0.4-0.4,0.8-0.8,1.4-0.9c0.1,0,0.1,0,0.1-0.1c0.1,0,0.1,0,0.2,0
				c-0.3-0.2-0.6-0.2-1-0.1c-0.1,0-0.2,0-0.4,0c-0.7,0.1-1.4,0.4-1.9,0.9c0,0.1-0.2,0.1-0.2,0.3c-0.3,0.3-0.4,0.5-0.6,0.9l0,0
				c-0.1,0-0.1,0.1,0,0.1c-0.2,0.4-0.3,0.8-0.1,1.3c0,0.5,0.2,0.9,0.4,1.3l0,0c0,0,0,0.1,0.1,0.1l0.1,0.1l0,0l0,0l0,0l0,0
				c0-0.1,0-0.1-0.1-0.1c0,0.1,0,0.1,0.1,0.1c0,0.1,0,0.1,0.1,0.1l0,0l0.1,0.1l0,0l0.1,0.1l0,0l0.1,0.1c0.1,0.2,0.3,0.4,0.5,0.5
				c1.3,0.9,3,0.9,4.3,0c0.1-0.1,0.2-0.1,0.2-0.1c0.2-0.2,0.4-0.3,0.5-0.5c0.2-0.2,0.3-0.4,0.4-0.7c0.1,0,0.1-0.1,0-0.1
				c0,0,0,0,0-0.1c0.3-0.8,0.3-1.7-0.1-2.4C309.7,88.2,309.7,88.2,309.6,88.3z"/>
			<path class="st5" d="M337.7,83.6c0.2-0.2,0.2-0.2,0-0.4c-1-1.1-2.4-1.5-3.9-1.1c-0.6,0.1-1.1,0.5-1.6,0.9
				c-0.5,0.3-0.7,0.8-0.9,1.3l0,0.1c-0.1,0.1-0.2,0.2-0.2,0.3c-0.3,1.2-0.1,2.3,0.7,3.4c0.1,0.2,0.2,0.3,0.5,0.4
				c0.2,0.2,0.2,0.2,0.4-0.1c0.7-0.8,1.5-1.5,2.2-2.2c0.5-0.5,1-1,1.5-1.5C336.9,84.4,337.3,84,337.7,83.6z M334,85.3
				c-0.4,0.4-0.8,0.8-1.2,1.2c-0.1,0.1-0.2,0.1-0.2,0c-0.1-0.4-0.2-0.9,0-1.3c0-0.2,0.1-0.3,0.1-0.5c0.1,0,0.1-0.1,0.1-0.1
				c0.1-0.2,0.3-0.3,0.4-0.5c0.7-0.6,1.5-0.8,2.4-0.5l0.1,0.1l0,0l-0.1,0.1l-0.1,0.1c-0.1,0.1-0.1,0.1-0.2,0.2c0,0,0,0-0.1,0
				l-0.1,0.1c0,0,0,0,0,0.1l0,0l-0.1,0C334.8,84.4,334.5,84.9,334,85.3z"/>
			<path class="st5" d="M320.6,87.7L320.6,87.7C320.6,87.7,320.6,87.7,320.6,87.7z"/>
			<path class="st5" d="M290.2,82.8c0,0.1,0.1,0.1,0.1,0.2c0,0.1,0,0.1,0,0.2c0.2,0.8,0.4,1.5,0.5,2.3c0.1,0.4,0.2,0.8,0.3,1.2
				c0,0.1-0.1,0.1,0,0.1c0,0.5,0.2,1,0.3,1.5c0,0.4,0.1,0.6,0.2,1c0.1,0.2,0.2,0.3,0.4,0.1c0.1,0,0.1-0.1,0.2-0.1
				c0.1-0.1,0.2-0.1,0.3-0.2c0.6-0.4,1.2-0.7,1.7-1.2c0.3-0.3,0.6-0.6,0.8-1l0.1-0.1c0.6-1,0.8-2.1,0.5-3.2c0-0.3-0.1-0.5-0.3-0.7
				c-0.2-0.4-0.6-0.8-1-1.1c-0.8-0.5-1.8-0.6-2.8-0.5c-0.5,0.1-1,0.3-1.6,0.4c-0.1,0.1-0.2,0.1-0.1,0.3
				C290.1,82.2,290.2,82.5,290.2,82.8z M295,86.5L295,86.5C295,86.5,295,86.5,295,86.5L295,86.5z M292.7,82.9c0.2,0,0.5,0.2,0.7,0.1
				l0,0l0.1,0.1c0,0,0.1,0,0.1,0.1c0,0,0.1,0,0.1,0.1c0,0,0.1,0,0.1,0.1c0,0,0.1,0,0.1,0.1l0,0c0,0,0,0.1,0.1,0.1l0,0
				c0,0,0,0.1,0.1,0.1l0,0c0,0,0,0.1,0.1,0.1l0,0c0,0,0,0.1,0.1,0.1c0,0,0,0,0,0.1l0,0.1c0,0,0,0,0,0.1l0,0.1
				c0.2,0.6,0.2,1.2-0.1,1.8c0,0.1,0,0.1,0,0.1s0,0.1-0.1,0.1c0,0.1-0.1,0.1-0.1,0.1l-0.1,0.1c-0.1,0.1,0,0.1-0.1,0.2
				c-0.1,0.1-0.2,0.1-0.1,0.3l0,0c0,0,0,0-0.1,0c0,0,0,0-0.1,0c0,0-0.1,0-0.1,0.1c0,0,0,0-0.1,0l-0.1,0c0,0-0.1,0-0.1,0.1
				c-0.1,0.1-0.2,0.2-0.3,0.2c-0.1-0.2-0.1-0.3-0.2-0.4c0-0.1,0-0.2,0-0.3c-0.2-0.9-0.4-1.7-0.6-2.6c-0.1-0.2,0-0.4-0.2-0.5
				C292.2,82.9,292.5,82.8,292.7,82.9z"/>
			<path class="st5" d="M368.7,93.9c0.1-0.1,0.1-0.1,0.2-0.2c0.3-0.2,0.4-0.5,0.6-0.9c0.1,0,0.1-0.1,0-0.1c0,0,0,0,0-0.1
				c0-0.1,0.1-0.1,0-0.1c0.3-0.8,0.2-1.5-0.2-2.3c-0.1,0-0.1,0-0.1,0.1c0,0,0,0.1-0.1,0.1c0,0.7-0.3,1.2-0.9,1.5
				c-0.1,0.1-0.1,0.1-0.2,0.1c-0.5,0.2-1,0.3-1.5,0.1c-0.4-0.1-0.8-0.4-1.1-0.7c-0.1-0.2-0.3-0.5-0.4-0.8c0-0.4,0-0.7,0-1
				c0.1-0.1,0.1-0.1,0.2-0.2c0.4-0.5,0.9-0.9,1.6-0.9c0.1,0,0.2,0,0.2-0.1c-0.4-0.1-0.8-0.1-1.2-0.1c-0.8,0.1-1.5,0.4-2.1,0.9
				c-0.1,0.1,0,0.1-0.1,0.1c-0.3,0.3-0.6,0.7-0.6,1.1c-0.1,0.1-0.1,0.3-0.1,0.4l0,0l0,0c-0.1,0.4-0.1,0.8,0,1.3l0,0
				c0,0.1,0,0.1,0,0.2l0,0c0,0.1,0,0.1,0,0.1c0.1,0.3,0.2,0.5,0.4,0.7l0,0l0.1,0.1l0,0l0.1,0.1l0,0c0.1,0,0.1,0.1,0.1,0.1
				c0,0.1,0.1,0.1,0.1,0.2c1,1.1,2.6,1.5,4,0.9C368,94.5,368.4,94.2,368.7,93.9z"/>
			<polygon class="st5" points="367.5,99.6 367.5,99.6 367.4,99.6 			"/>
		</g>
		<g>
			<path class="st6" d="M309.7,88.3L309.7,88.3c0-0.1,0-0.2,0-0.2C309.6,88.1,309.6,88.2,309.7,88.3z"/>
			<path class="st6" d="M376.4,93.6C376.4,93.5,376.3,93.5,376.4,93.6C376.3,93.5,376.3,93.5,376.4,93.6c0,0.1-0.2,0.2-0.1,0.4
				c0.1,0.1,0,0.2,0.1,0.3C376.4,94,376.3,93.8,376.4,93.6z"/>
			<path class="st6" d="M369.3,90.2c0,0.1,0,0.1,0,0.2l0.1-0.1C369.4,90.2,369.3,90.2,369.3,90.2z"/>
			<path class="st6" d="M335.8,83.5L335.8,83.5L335.8,83.5L335.8,83.5c-0.4-0.2-0.9-0.2-1.4-0.1c-0.5,0.1-0.9,0.3-1.2,0.6
				c0.1,0,0.3,0,0.4-0.1c0.6-0.1,1.1-0.1,1.6,0.2c0,0,0.1,0,0.1-0.1l0,0l0.1-0.1c0.1-0.1,0.2-0.1,0.3-0.3c0.1,0,0.1,0,0.1-0.1
				C335.9,83.6,335.9,83.5,335.8,83.5L335.8,83.5z"/>
			<path class="st6" d="M294.1,83.6L294.1,83.6C294.1,83.6,294.1,83.5,294.1,83.6L294.1,83.6l-0.1-0.1l0,0l-0.1-0.1l0,0l-0.1-0.1
				l0,0c0,0,0-0.1-0.1-0.1l0,0c0-0.1-0.1-0.1-0.1-0.1c0-0.1-0.1-0.1-0.1,0l0,0c0-0.1-0.1-0.1-0.1,0l0,0c-0.1,0-0.3-0.1-0.3-0.1
				c-0.3-0.1-0.7-0.2-1-0.1c-0.1,0-0.2,0.1-0.2,0.2c0,0.2,0.1,0.3,0.1,0.5c0.2,0,0.4,0.1,0.6,0.2c0.4,0.2,0.7,0.4,0.8,0.9
				c0.1,0.6,0.1,1.2-0.1,1.8c-0.2,0.2-0.2,0.2,0,0.3l0.1,0l0.1-0.1l0,0l0.1-0.1l0,0l0.1-0.1l0,0c0.1-0.1,0.1-0.1,0.2-0.2
				s0.2-0.1,0.1-0.3c0.1,0,0.1-0.1,0-0.1c0.1,0,0.1-0.1,0.1-0.1l0,0l0,0c0.1-0.1,0.1-0.2,0.1-0.3c0.2-0.6,0.2-1.2,0-1.7
				C294.2,83.6,294.2,83.6,294.1,83.6z"/>
		</g>
		<path class="st3" d="M286.8,95.1"/>
	</g>
</g>
</svg>
