<?xml version="1.0" encoding="utf-8"?>
<!-- Generator: Adobe Illustrator 23.0.4, SVG Export Plug-In . SVG Version: 6.00 Build 0)  -->
<svg version="1.1" id="Layer_1" xmlns="http://www.w3.org/2000/svg" xmlns:xlink="http://www.w3.org/1999/xlink" x="0px" y="0px"
	 viewBox="0 0 425.9 595.3" style="enable-background:new 0 0 425.9 595.3;" xml:space="preserve">
<style type="text/css">
	.st0{fill:#E54A52;stroke:#000000;stroke-width:5.6693;stroke-miterlimit:10;}
	.st1{fill-rule:evenodd;clip-rule:evenodd;fill:#FFE19E;stroke:#000000;stroke-width:5.6693;stroke-miterlimit:10;}
	.st2{fill-rule:evenodd;clip-rule:evenodd;fill:#5063AE;stroke:#000000;stroke-width:5.6693;stroke-miterlimit:10;}
	.st3{fill-rule:evenodd;clip-rule:evenodd;fill:#FFDF98;}
	.st4{fill-rule:evenodd;clip-rule:evenodd;fill:#FFFFFF;}
	.st5{fill-rule:evenodd;clip-rule:evenodd;}
	.st6{fill-rule:evenodd;clip-rule:evenodd;fill:#E2CB98;}
</style>
<g id="img">
	<path class="st0" d="M205.6,91.9l74.5,29h134.7v439c0,12-9.7,21.7-21.7,21.7H32.9c-12,0-21.7-9.7-21.7-21.7v-468L205.6,91.9
		L205.6,91.9z"/>
	<path class="st1" d="M61,354.4h191.6c1.9,0,3.6,1.7,3.6,3.6v52.4c0,2.1-1.7,3.8-3.6,3.8H61c-1.9,0-3.6-1.7-3.6-3.8V358
		C57.5,356.1,59.2,354.4,61,354.4L61,354.4z"/>
	<path class="st1" d="M66.4,157h297.4c6.6,0,11.8,6.2,11.8,13.8v153.3c0,7.6-5.2,13.8-11.8,13.8H66.4c-6.7,0-11.8-6.2-11.8-13.8
		V170.8C54.5,163.2,59.7,157,66.4,157L66.4,157z"/>
	<path class="st2" d="M284.9,386h35c3.1,0,5.7,2.5,5.7,5.6l0,0c0,3.1-2.5,5.6-5.7,5.6h-35c-3.1,0-5.7-2.5-5.7-5.6l0,0
		C279.3,388.5,281.8,386,284.9,386L284.9,386z"/>
	<path class="st2" d="M347.4,386h35c3.1,0,5.6,2.5,5.6,5.6l0,0c0,3.1-2.5,5.6-5.6,5.6h-35c-3.1,0-5.7-2.5-5.7-5.6l0,0
		C341.7,388.5,344.2,386,347.4,386L347.4,386z"/>
	<g>
		<g>
			<path class="st3" d="M328.2,48.5L328.2,48.5L328.2,48.5L328.2,48.5z"/>
			<path class="st3" d="M327.7,51.6c0.1,0,0.1,0,0.2,0c0.1-0.1,0.2,0,0.2-0.1l0,0c0.1-0.1,0.2,0,0.2-0.1l0,0c0.1-0.1,0.2,0,0.2-0.1
				l0,0c0.1-0.1,0.2,0,0.2-0.1l0,0c0.1-0.1,0.2,0,0.2-0.1l0,0c0.1-0.1,0.2,0,0.2-0.1l0,0c0.1-0.1,0.1,0,0.2-0.1l0,0
				c0.1-0.1,0.1,0,0.2-0.1l0,0c0.1-0.1,0.1,0,0.2-0.1l0,0c0.1-0.1,0.1,0,0.2-0.1l0,0c0.1-0.1,0.1,0,0.2-0.1l0,0
				c0.1-0.1,0.1,0,0.2-0.1l0,0l0,0c0.1,0,0.1,0,0.2,0l0,0l0,0c0.1,0,0.1,0,0.2,0l0,0l0,0c0.3,0,0.6-0.1,0.9-0.3l0,0l0,0l0,0
				c0.1,0,0.1,0,0.1,0l0,0l0,0c0.1,0,0.2,0,0.2-0.1l0,0l0,0l0,0c0.1,0,0.2,0,0.2-0.1l0,0l0,0l0,0c0.1,0,0.2,0,0.2-0.1l0,0l0,0l0,0
				c0.1,0,0.2,0,0.2-0.1l0,0l0,0l0,0c0.1,0,0.2,0,0.2-0.1l0,0l0,0l0,0c0.1,0,0.2,0,0.2-0.1l0,0l0,0l0,0c0.1,0,0.2,0,0.2-0.1l0,0
				c0.2-0.1,0.3-0.1,0.5-0.3c0.9-0.4,1.7-0.7,2.6-1.1c0.7-0.3,1.3-0.6,1.9-0.8c0.2,0,0.2-0.1,0.2-0.3c-0.1-0.1,0-0.2-0.1-0.2l0,0
				c0-0.1,0-0.1-0.1-0.1l0,0c-0.1-0.1-0.1-0.2-0.2-0.3l0,0c0-0.1,0-0.1-0.1-0.1l0,0c0,0,0-0.1-0.1-0.1c0,0,0,0,0-0.1
				c0-0.1,0-0.1-0.1-0.2l0,0c0,0,0-0.1-0.1-0.1l0,0c-0.1-0.2-0.2-0.3-0.4-0.5c-0.7-1.1-1.4-2.2-2.1-3.4c-0.1-0.2-0.2-0.3-0.4-0.5
				c-0.5,0.6-1.1,1.1-1.6,1.7c-0.2,0.1-0.3,0.3-0.4,0.5c-0.5,0.6-1.1,1.1-1.7,1.7l0,0c-0.1,0-0.1,0.1-0.2,0.1l0,0l-0.1,0.1l0,0
				l-0.1,0.1l0,0c0,0-0.1,0-0.1,0.1l0,0l0,0l0,0c-0.1,0-0.1,0-0.1,0.1l0,0l0,0l0,0c-0.1,0-0.1,0.1-0.2,0.1l0,0l-0.1,0.1l0,0
				l-0.1,0.1l0,0c-0.1,0-0.1,0-0.1,0.1l0,0c-0.1,0-0.2,0.2-0.3,0.2l0,0l-0.1,0.1l0,0l-0.1,0.1l0,0c-0.1,0-0.1,0-0.1,0.1l0,0
				c-0.1,0-0.2,0.2-0.3,0.2l0,0l-0.1,0.1l0,0l-0.1,0.1l0,0l0,0l0,0c-0.2,0-0.2,0.2-0.4,0.3l0,0l-0.1,0.1l0,0l-0.1,0.1l0,0
				c-0.1,0-0.1,0-0.1,0.1l0,0l0,0l0,0c-0.1,0-0.1,0.1-0.2,0.1l0,0l-0.1,0.1l0,0l-0.1,0.1l0,0c0,0-0.1,0-0.1,0.1l0,0l0,0
				c0,0-0.1,0-0.1,0.1l0,0l0,0l0,0c-0.1,0-0.1,0.1-0.2,0.1l0,0l-0.1,0.1l0,0l-0.1,0.1c-0.3,0.4-0.7,0.8-1.1,1.1
				c-0.4,0.5-0.4,0.5-0.2,1C327,51.8,327,51.8,327.7,51.6z"/>
			<path class="st3" d="M289.6,70.2c-0.1-0.2-0.2-0.4-0.5-0.4c-0.2-0.3-0.5-0.4-0.7-0.7c-2.3-2.1-5-2.9-8-2.7
				c-2.3,0.2-4.4,1-6.4,2.2c-0.2,0.1-0.4,0.2-0.6,0.4c-0.7,0.3-1.1,0.7-1.6,1.2l-0.1,0.1l0,0c-0.6,0.4-0.9,0.8-1.3,1.4
				c-1.3,1.7-2.3,3.5-2.8,5.5c-0.5,2.4-0.4,4.8,0.7,7.1c0.1,0.3,0.3,0.7,0.6,0.8l0,0l0,0l0,0c0,0,0,0.1,0.1,0.1l0,0
				c0.1,0.1,0,0.2,0.1,0.2l0,0l0,0l0,0c0,0.1,0,0.1,0.1,0.1l0,0c0,0,0,0.1,0.1,0.1l0,0c0.1,0.1,0.1,0.2,0.2,0.3l0,0
				c0,0.1,0,0.1,0.1,0.1c0.1,0.1,0.1,0.2,0.2,0.3c1.8,2,3.9,3,6.5,3.3c2,0.2,3.9-0.1,5.8-0.9c1.4-0.6,2.8-1.4,4-2.4
				c0.2,0,0.4-0.3,0.5-0.5c0.3-0.2,0.7-0.4,0.8-0.7c2-2.1,3.2-4.4,3.7-7.2c0.1-0.3,0-0.6,0.1-0.9c0,0,0-0.1,0.1-0.1
				c0.1-2.4-0.4-4.7-1.8-6.6C289.6,70.3,289.6,70.3,289.6,70.2z"/>
			<path class="st3" d="M325.5,84.6c0-0.4,0.1-0.4-0.4-0.6c-2.3-0.4-4.4-1.2-6.4-2.5c-0.9-0.6-1.7-1.2-2.4-1.9c0-0.1,0-0.1-0.1-0.1
				l0,0c0-0.1,0-0.1-0.1-0.1l0,0l0,0l0,0c0-0.1,0-0.1-0.1-0.1l0,0l0,0l0,0c-0.1-0.2-0.3-0.5-0.4-0.7c-0.7-0.9-1.3-1.8-1.9-2.9
				c-0.1-0.3-0.4-0.5-0.7-0.5c-2.1-1-4.4-2.1-6.5-3.1c-0.1,0-0.1-0.1-0.2-0.1c0,0-0.1,0-0.1-0.1l-0.1-0.1c0,0-0.1,0-0.1-0.1
				c-0.1,0-0.1-0.1-0.2-0.1c0,0-0.1,0-0.1-0.1c-0.1,0-0.1-0.1-0.2-0.1c-0.1-0.1-0.2-0.1-0.3-0.2c-0.1,0-0.1-0.1-0.2-0.1
				c0,0,0,0-0.1,0c0,0,0,0-0.1,0s-0.1-0.1-0.2-0.1c-0.1,0-0.1-0.1-0.1-0.1s-0.1,0-0.1-0.1l-0.1-0.1l-0.1-0.1c-0.1,0-0.1-0.1-0.1-0.1
				c-0.1-0.1-0.2-0.1-0.3-0.2c-0.1,0-0.1-0.1-0.1-0.1l0,0c1.3-1.2,2.5-2.4,3.8-3.6c1.8-1.6,3.5-3.3,5.3-4.9c0.4-0.3,0.7-0.6,1-1l0,0
				c0.3-0.2,0.6-0.5,0.9-0.7c0.2-0.3,0.4-0.5,0.6-0.7c0-0.1-0.1-0.2-0.2-0.4c-1-1.1-2-2.2-3-3.2c-0.6-0.6-1.3-1.2-1.8-2
				c-0.1-0.2-0.2-0.3-0.3-0.4l0,0l-0.1-0.1l0,0l-0.1-0.1l0,0l-0.1-0.1l0,0l-0.1-0.1l0,0l-0.1-0.1l0,0l-0.1-0.1l0,0l-0.1-0.1l0,0
				l-0.1-0.1l0,0l-0.1-0.1l0,0c0,0,0-0.1-0.1-0.1l0,0c0,0,0-0.1-0.1-0.1l0,0c0-0.1,0-0.1-0.1-0.1l0,0c-0.2-0.3-0.6-0.5-0.8-0.8
				c-0.4,0.5-0.7,0.9-1.1,1.3l-0.1,0l-0.1,0.1l0,0c0,0-0.1,0-0.1,0.1l0,0c0,0,0,0.1-0.1,0.1c0,0,0,0,0,0.1c0,0,0,0-0.1,0
				c0,0,0,0-0.1,0c0,0-0.1,0-0.1,0.1l-0.1,0.1l-0.1,0.1l0,0c0,0-0.1,0-0.1,0.1l-0.1,0.1c-0.1,0.1-0.2,0.1-0.2,0.2
				c-2.2,2.7-4.3,5.4-6.6,8.1c0-0.1,0-0.2,0-0.4c0-1.6,0-3.1,0-4.7c0.1-1.1-0.1-2.2,0.1-3.2c-0.2-0.4,0-0.8-0.1-1.2
				c0-0.5,0-1.1,0-1.7c-1.1,0.2-2,0.5-2.9,0.7c-1.2,0.3-2.2,0.6-3.4,0.7c0,0,0,0-0.1,0c-0.1,0.1-0.2,0-0.3,0l0,0
				c-0.1,0.1-0.2,0-0.3,0c0,0,0,0-0.1,0c-0.1,0-0.2,0-0.3,0l-0.1,0c-0.1,0.1-0.2,0-0.3,0l0,0c-0.1,0.1-0.2,0-0.3,0c0,0,0,0-0.1,0
				c-0.1,0-0.2,0-0.2,0l-0.1,0c-0.1,0.1-0.2,0-0.3,0l0,0c-0.1,0.1-0.2,0-0.3,0c0,0,0,0-0.1,0c-0.1,0-0.2,0-0.2,0l-0.1,0
				c-0.1,0.1-0.2,0-0.3,0l0,0c-0.1,0.1-0.2,0-0.3,0c-0.3,0.1-0.8,0-1,0.3c-0.2,0.3-0.1,0.6-0.1,1l-0.1,0c-0.2,0.5-0.2,1-0.1,1.5
				c0.1,0.4,0.3,0.5,0.6,0.4c0.6-0.1,1.3-0.3,1.9-0.3c0.7-0.1,0.7-0.1,0.7,0.6c0,0.9-0.1,1.8,0.2,2.8c0,0.1,0,0.2,0.1,0.4
				c0.1,0.3,0,0.6,0,0.9c0,0.1,0,0.2,0,0.3c0.1,0.3,0,0.6,0,0.9c0,0.3,0.1,0.6,0,0.9c0,1.4,0.1,2.8,0,4.1c0.1,0.4,0.1,0.7,0.3,1
				c0.5,0.4,0.8,1,1.1,1.7c0,0.2,0.1,0.4,0.2,0.6c0.8,1.6,1.3,3.3,1.4,5.1c0,0.9,0.1,1.8-0.1,2.7c-0.2,2.1-1,4.2-2.1,6
				c-0.4,0.7-0.7,1.4-0.4,2.2c0,0.1,0,0.1,0,0.2c0.1,1.4,0,2.7,0.1,4c0.1,0.4,0.1,0.4,0.3,0.4c0.7-0.1,1.5-0.1,2.2-0.2
				c0.9-0.1,1.9-0.1,2.8-0.3c0.4,0,0.8-0.1,1.2-0.1c0.3,0,0.4-0.2,0.4-0.5c0-0.6,0.1-1.1,0.1-1.7c0.2-4,0.5-7.8,0.7-11.8
				c0.2,0,0.3,0.2,0.5,0.2c4.8,2.7,9.5,5.5,14.2,8.3c0.4,0.2,0.9,0.5,1.3,0.7c0.1,0.2,0.2,0.3,0.4,0.3c2.4,1.4,4.7,2.7,7.1,4.1
				c0.2,0.1,0.3,0.3,0.6,0.2l0,0c0.4,0.3,1,0.6,1.4,0.9c0.3,0,0.2-0.2,0.2-0.4C325.3,89,325.4,86.7,325.5,84.6z"/>
			<path class="st3" d="M418.2,68.6C418.2,68.8,418.1,68.7,418.2,68.6c-0.2-0.1-0.3-0.1-0.4-0.1c0,0,0,0-0.1,0
				c-0.1-0.1-0.3-0.1-0.4-0.1l-0.1,0c-0.1,0-0.1,0-0.2,0c-1.6-0.4-3.1-0.9-4.7-1.3c-0.7-0.2-1.6-0.5-2.3-0.7
				c-0.4-0.1-0.4-0.1-0.6,0.4c-0.1,0.2-0.1,0.5-0.2,0.7c0,0,0,0.1-0.1,0.1c0,0.1,0,0.2-0.1,0.3c0,0,0,0.1-0.1,0.1c0,0.1,0,0.1,0,0.2
				c-0.2,0.3-0.2,0.7-0.4,1.1c-0.2,0.1-0.2,0.4-0.3,0.6c-1.1,3.4-2.1,6.8-3.1,10.2c-0.2,0.7-0.4,1.5-0.7,2.2c0-0.1,0-0.3-0.1-0.4
				c-0.6-4.2-1.3-8.3-1.8-12.4c0-0.2-0.1-0.4-0.2-0.6c0-0.1,0-0.1,0-0.2c0-0.1,0-0.2,0-0.2c0-0.1,0-0.1,0-0.2c-0.1-0.1,0-0.2,0-0.3
				s0-0.1,0-0.2c-0.1-0.1,0-0.2,0-0.3c0-0.2-0.2-0.5-0.1-0.7c0-0.1,0-0.2-0.1-0.4l0-0.1c-0.1-0.1,0-0.2,0-0.3s0-0.1,0-0.2
				c-0.1-0.1,0-0.2,0-0.3s0-0.1,0-0.2s0-0.2,0-0.3c0-0.1,0-0.1,0-0.2s0-0.2-0.1-0.4l0-0.1c-0.1-0.1,0.1-0.3-0.1-0.4l0,0l0,0
				c0-0.2-0.3-0.1-0.4-0.1l-0.1,0c-0.1-0.1-0.3,0-0.4-0.1l-0.1,0c-0.1-0.1-0.3,0-0.4-0.1l-0.1,0c-0.1-0.1-0.3,0-0.4-0.1l-0.1,0
				c-0.1-0.1-0.3,0-0.4-0.1l-0.1,0c-0.1-0.1-0.3,0-0.4-0.1l-0.1,0c-1.1-0.3-2.2-0.6-3.3-0.9c-1.7-0.4-3.3-0.9-5-1.4
				c-0.2-0.1-0.3,0-0.4,0.2c0,0.5-0.2,1.1-0.2,1.6c0,0.1-0.1,0.2-0.1,0.3c-0.2,0.1-0.2,0.3-0.2,0.5c0,0.2,0,0.4,0.1,0.5
				c0.5,0.3,1.3,0.4,1.9,0.7c0.3,0.2,0.5,0.3,0.5,0.7c-0.2,0.8-0.3,1.7-0.4,2.4c0,0.1,0,0.1-0.1,0.2c-0.1,0.3,0.1,0.7-0.1,1
				c0,0.5-0.2,1-0.2,1.5c-0.1,0.2,0,0.4,0.2,0.7c0.2,0.3,0.5,0.5,0.7,0.9c0.6,0.9,1.2,1.9,1.6,3c-0.1,0.1,0,0.3,0.1,0.4
				c1,3.1,0.8,6.1-0.4,9.1l-0.1,0.1c0,0.1-0.1,0.2-0.1,0.3c-0.1,0.4-0.3,0.7-0.6,1.2c-1.1,2-2.5,3.6-4.1,5.1
				c-0.5,0.4-0.8,0.7-0.9,1.3c-0.1,1.3-0.5,2.7-0.6,4c0,0.4,0.1,0.6,0.5,0.7c0.6,0.1,1.3,0.2,2,0.5c0.8,0.2,1.7,0.4,2.5,0.6
				c0.2,0.1,0.4,0.1,0.6,0l0,0c0.2,0.2,0.5,0.1,0.8,0.2c0.2,0.1,0.3,0.2,0.5-0.1c0-0.1,0-0.1,0-0.2c0.3-0.3,0.3-0.7,0.4-1.2
				c0.3-1.5,0.7-2.9,1.1-4.4c0.6-2.4,1.1-4.7,1.7-7.1c0.2-1.2,0.6-2.4,0.8-3.6c0,0.1,0,0.2-0.1,0.3c-0.2,3.3-0.2,6.7-0.4,10
				c0,0.1,0,0.2-0.1,0.3c0,0.1,0,0.3,0,0.4c-0.1,2.7-0.1,5.4-0.3,8.1c-0.1,0.8,0,1.6,0,2.3c0,0.2,0,0.5,0.1,0.7
				c0.5,0.1,1.1,0.4,1.6,0.6c1.2,0.4,2.2,0.8,3.4,1.2c0.3,0.2,0.7,0.3,1.2,0.5c0.1-0.4,0.3-0.7,0.6-1.2c0.1-0.2,0.1-0.3,0.1-0.5
				c0.4-1.1,0.8-2,1.2-3.1c0.3-0.7,0.6-1.5,0.9-2.2c0.1-0.1,0.1-0.2,0.2-0.3l0-0.1c0.1-0.1,0.1-0.1,0.1-0.2l0,0
				c0-0.1,0.1-0.2,0.1-0.3c0.5-1.2,0.9-2.3,1.4-3.5c0.4-0.9,0.7-1.8,1.1-2.7c0.1-0.1,0.1-0.2,0.1-0.2l0,0l0,0c0.1-0.1,0-0.2,0.2-0.3
				c0.1-0.1,0.1-0.2,0.2-0.3l0,0c0.1-0.1,0.1-0.2,0.2-0.3c0-0.1,0.1-0.2,0.1-0.3c0.6-1.6,1.3-3.2,1.9-4.8c0.4-0.9,0.7-1.8,1.1-2.7
				c0-0.1,0.1-0.2,0.1-0.3c0.7-1.6,1.3-3.3,2-4.9c0.3-0.8,0.6-1.6,1-2.3c0-0.1,0.1-0.2,0.1-0.3c0.5-1.2,0.9-2.3,1.4-3.4
				c0.4-1,0.8-2,1.2-3C418.4,68.8,418.3,68.7,418.2,68.6z M398.1,81L398.1,81L398.1,81L398.1,81z"/>
			<path class="st3" d="M409.4,91.2L409.4,91.2L409.4,91.2z"/>
			<path class="st3" d="M372.6,95.3c-0.1-0.2,0-0.4-0.1-0.6l0-0.1c0.1-0.7,0.1-0.8-0.6-1.2c-1.4-0.7-2.5-1.8-3.5-3l-0.1-0.1
				l-0.1-0.1c-1.7-2.5-2.7-5.2-2.4-8.3c0.2-2.5,1-4.9,2.3-7.1c0.3-0.3,0.5-0.7,0.7-1.1c0,0,0-0.1,0.1-0.1c0,0,0-0.1,0.1-0.1l0,0
				l0.1-0.1l0,0l0,0l0,0c0.1,0,0.1-0.1,0.1-0.1c0.2-0.4,0.5-0.7,0.9-1c0.3-0.2,0.3-0.5,0.3-0.8c-0.2-1.7-0.3-3.3-0.4-5
				c-0.1-0.9-0.2-1.7-0.2-2.6c0-0.1,0-0.2,0-0.2c-0.1-1.5-0.3-3.1-0.4-4.6c-0.1-0.8-0.2-1.7-0.2-2.5c-0.1-0.3-0.1-0.6-0.1-1
				c0-0.2-0.1-0.3-0.3-0.4c-0.6,0-1.3,0-1.9-0.2c-1.1-0.1-2.2-0.1-3.4-0.2c-0.5,0-0.4,0-0.6,0.4c-0.1,0.2,0,0.5-0.2,0.7l-0.1,0.1
				c0,0.1,0,0.2,0,0.2s-0.1,0-0.1,0.1c-0.1,0.1-0.1,0.1-0.1,0.2c0,0.1-0.1,0.3-0.1,0.4c0,0,0,0.1-0.1,0.1c0,0.2-0.1,0.3-0.1,0.5
				c-0.1,0.5-0.3,1.1-0.4,1.7c-0.7,2.7-1.3,5.4-2,8.1l0,0c-0.2-2.7-0.6-5.5-0.9-8.1c0-0.1,0-0.2-0.1-0.3c-0.2-0.8-0.2-1.5-0.3-2.3
				c0-0.2,0-0.4-0.2-0.5c-0.2,0-0.4,0.1-0.6,0c-2.4-0.2-4.9-0.3-7.3-0.5c-0.1,0-0.2,0-0.3-0.1c-0.2,0-0.3,0-0.3,0.2
				c-0.1,0.4-0.2,0.9-0.3,1.4l-0.1,0c-0.2,0.2-0.1,0.4-0.2,0.6c-0.2,0.8-0.4,1.8-0.6,2.6c0,0.1-0.1,0.1-0.1,0.2
				c0,0.1-0.1,0.3-0.1,0.4c0,0.1-0.1,0.1-0.1,0.2c0,0.2-0.1,0.3-0.1,0.4c-0.3,1.1-0.5,2.3-0.8,3.4c0,0,0,0.1-0.1,0.1
				c-0.1,0.2,0,0.4-0.1,0.6c-0.2,0.8-0.4,1.7-0.6,2.5c-0.2,1.2-0.7,2.5-0.8,3.7c0,0.3,0.4,0.5,0.5,0.7c0.6,0.5,1,1.1,1.6,1.6
				c0.2,0.2,0.2,0.4,0,0.5c-1,0.8-2,1.8-3,2.6c-0.5,0.4-0.7,0.8-0.8,1.4c-0.1,0.2,0.1,0.4,0,0.6c0,0.1-0.1,0.3,0,0.4
				c-0.3,1-0.5,2.2-0.8,3.2c-0.1,0.6-0.2,1.2-0.5,1.8c-0.2,0.4,0.2,0.5,0.4,0.5c1.4,0.3,2.7,0.7,4.1,1c0.7,0.2,1.6,0.4,2.3,0.5
				c0.1,0,0.2,0,0.2,0c0.3,0.1,0.7,0.1,1,0.3c0.3,0.1,0.3,0.1,0.4-0.2c0.1-0.7,0.3-1.4,0.4-2.1c0.2-0.8,0.3-1.6,0.6-2.4
				c0-0.1,0.1-0.3,0-0.4c0.2-0.7,0.3-1.6,0.5-2.3c0.4-1.6,0.7-3.2,1.1-4.8c0.2,0.2,0.2,0.4,0.4,0.7c0.9,2.3,1.8,4.6,2.7,6.9
				c0.1,0.3,0.2,0.5,0.3,0.8c0.3,0.5,0.3,1,0.7,1.3l0,0c0.2,0.4,0.3,0.8,0.5,1.3c0.2-0.1,0.2-0.3,0.2-0.4c0.4-0.9,0.8-1.8,1.3-2.7
				c0-0.2,0.1-0.3,0.1-0.4c0.4-0.9,0.7-1.6,1.1-2.4c0.3-0.7,0.7-1.4,0.9-2.1l0,0c0.1,0,0,0.1,0,0.2c0,0.2,0,0.3,0.1,0.5
				c0.1,1.5,0.3,3,0.4,4.5c0.2,2.3,0.4,4.6,0.6,6.8c0.1,0.7,0,1.3,0.3,2c0.1,0.4,0.1,0.9,0.2,1.3c0.1,0.5,0.1,0.5,0.5,0.5
				c1,0.3,2.1,0.4,3.1,0.7s2.2,0.4,3.2,0.7c0.5,0.2,1,0.2,1.6,0.4c0.1,0.1,0.3,0.1,0.4,0.1l0.1,0c0.2-0.1,0.1-0.3,0-0.5
				C372.6,95.4,372.6,95.3,372.6,95.3z"/>
			<path class="st3" d="M269.5,60.8c-0.1-0.5-0.1-0.9-0.2-1.4c-0.1-0.1,0-0.2-0.1-0.3l0,0c0-0.1-0.1-0.2-0.1-0.3
				c-0.7-1.9-1.8-3.5-3.2-4.8c-0.5-0.4-1-0.8-1.5-1.2c0-0.1-0.1-0.1-0.2-0.2l0,0c0-0.1-0.1-0.1-0.2-0.1l-0.1-0.1l0,0
				c0-0.1-0.1-0.1-0.2-0.2l0,0l0,0l0,0c0-0.1-0.1-0.1-0.2-0.1l0,0l-0.1-0.1l0,0c0-0.1-0.1-0.1-0.2-0.2l0,0l0,0l0,0
				c0-0.1-0.1-0.1-0.2-0.1l0,0c0-0.1-0.1-0.1-0.2-0.1l0,0l0,0l0,0c0-0.1-0.1-0.1-0.2-0.1l0,0c0-0.1-0.1-0.1-0.2-0.1c0,0,0,0-0.1,0
				c0-0.1-0.1-0.1-0.2-0.1l0,0c-0.1-0.1-0.1-0.1-0.2-0.1l-0.1,0c-0.1-0.1-0.1-0.1-0.2-0.1l0,0l0,0l0,0c-0.1-0.1-0.2-0.1-0.3-0.2l0,0
				c-0.8-0.3-1.8-0.6-2.7-0.8c-3.3-0.8-6.7-0.9-10-0.5c-1.1,0.1-2.1,0.3-3.2,0.4l-0.1,0c-0.1,0.1-0.2,0-0.3,0l-0.1,0
				c-0.1,0.1-0.2,0-0.3,0c0,0,0,0-0.1,0c-0.1,0-0.2,0-0.3,0l-0.1,0c-0.1,0.1-0.2,0-0.3,0l0,0c-0.1,0.1-0.2,0-0.3,0c0,0,0,0-0.1,0
				c-0.1,0-0.2,0-0.2,0l-0.1,0c-0.1,0-0.2,0-0.2,0l-0.1,0c-0.1,0-0.2,0-0.2,0c-0.1,0-0.2,0-0.2,0.1c-3.5,1-6.9,2.3-10.1,3.9
				c-0.1,0-0.2,0.1-0.3,0.1l0,0c0,0-0.1,0-0.1,0.1c0,0,0,0-0.1,0c-0.1,0-0.1,0-0.2,0.1c0.1,0.2,0.2,0.5,0.3,0.7l0,0
				c0.1,0.2-0.6,0.5-0.5,0.7c0.4,0.9,0.5,1.6,0.9,2.5l0.5,0.1l-0.2,0.6l0.5-0.2c0,0.1,0,0.5,0,0.6l0.5-0.1c0,0.1-0.5,0.9-0.4,0.9
				c0.8,1.5,0.8,1.8,1.6,3.2c0.3,0.6,0,2,0.6,1.8c0.2,0,1.7,0.4,1.8,0.4c0.8-0.3,1.8-0.2,2.5-0.6c0.3-0.1,0.6-1.4,0.8-1.1
				c0.3,1.1,0.6,1.1,1.1,2.1c0.9,2.5,1.9,5,2.8,7.5c0.9,2.5,2,5,2.8,7.6c0,0.2-0.8,1.8,0.6,1.4c0.1,0-2.5,4.2-2.5,2.6
				c0.9,2.3,2.6,1.1,3.5,3.4c0.2,0.5-0.3,1.2-0.2,1.7c0.1,0.1,1.5,0.5,1.5,0.6c0.5,1.4,0,2.2,0.5,3.7c0.2,0.5,2.3,1.3,2.3,1.8
				c0.1,0.1-2.6,1.3-2.4,1.2c0.1,0,1.1,0.4,1.1,0.4c0.2-0.1,0.7,0.7,0.8,0.7c1.6-0.4,1.9,0.4,3.4,0c0.6-0.2,2.5-1.2,3.1-1.4
				c0.2,0,2,0.2,2,0c0-0.1,0.6-3.1,0.6-3.2c-0.1-0.8-1.6-1.6-1.7-2.4c-0.1-0.1,0-0.2,0-0.3l0-0.1c0-0.1,0-0.2-0.1-0.2
				c-0.3-1.4-0.5-2.7-0.8-4c-0.2-0.9-0.4-1.7-0.4-2.6c-0.1-0.1,0-0.2,0-0.2c-0.5-2.4-0.4-3.4-0.9-5.9c0.9-0.6,1.5-0.8,2.4-1.4
				C268.5,76.6,269.7,63.1,269.5,60.8z"/>
			<path class="st3" d="M391.5,76.9c-0.2-0.8-0.4-1.7-1-2.3c-0.5-0.8-1.1-1.6-1.9-2.3c-2.3-1.9-4.9-2.6-7.8-2.3
				c-2.7,0.2-5.1,1.4-7.2,3.1c-0.3,0.2-0.6,0.4-0.7,0.7l-0.1,0c-0.1,0-0.2,0-0.2,0.1c-0.1,0-0.1,0.1-0.2,0.1l-0.1,0.1
				c-0.1,0.1-0.1,0.1-0.2,0.2c-2.3,2.5-3.5,5.4-3.5,8.8c0,0.2,0.1,0.4,0.1,0.7c0.3,2.5,1.3,4.6,3.2,6.1c0.1,0.2,0.3,0.3,0.5,0.3
				c0,0,0.1,0,0.1,0.1c1.7,1.2,3.7,1.7,5.7,1.8c0.8,0,1.6-0.1,2.4-0.2c0.9,0,1.7-0.3,2.4-0.6l0.1,0c0.7-0.3,1.3-0.7,2-1.1
				c0.5-0.4,1-0.6,1.5-1.1c0.2,0,0.3-0.1,0.5-0.3c1.4-1.3,2.6-2.8,3.4-4.6C391.7,81.8,392,79.4,391.5,76.9z"/>
			<path class="st3" d="M340.6,72.8C340.6,72.7,340.6,72.7,340.6,72.8c-0.1-0.1-0.1-0.2-0.2-0.2l-0.1-0.1l0,0l-0.1-0.1l0,0
				c-0.9-0.9-1.7-1.8-2.7-2.7c-0.5,0.6-1.1,1-1.6,1.5l0,0c-0.3,0-0.5,0.2-0.7,0.4l-0.1,0.1l-0.1,0.1c-1.3,0.8-2.7,1.2-4.2,1.3
				c-0.6,0.1-1.1,0.1-1.6,0c0.9-0.8,1.7-1.6,2.6-2.5c2-1.9,4-3.7,5.9-5.6c0.2-0.2,0.5-0.4,0.6-0.6l0.1-0.1c0.2-0.3,0.5-0.5,0.7-0.9
				c0.6-0.5,1.2-1.1,1.7-1.6c-0.1-0.1,0-0.2-0.1-0.2l0,0l0,0l0,0c0-0.1,0-0.1-0.1-0.1l0,0l0,0l0,0c0-0.1,0-0.1-0.1-0.1l0,0
				c0-0.1,0-0.1-0.1-0.1l0,0c0-0.1,0-0.1-0.1-0.1l0,0c0,0,0-0.1-0.1-0.1l0,0l-0.1-0.1l0,0l-0.1-0.1l0,0l-0.1-0.1l0,0l-0.1-0.1l0,0
				l-0.1-0.1l0,0l-0.1-0.1l0,0c-0.1-0.2-0.3-0.3-0.5-0.4c-1.3-1.1-2.7-2.1-4.3-2.7c-2.2-0.8-4.5-1-6.8-0.7c-2.7,0.3-5.3,1.2-7.5,2.8
				c-0.5,0.4-0.9,0.7-1.3,1.2c-0.2,0.1-0.4,0.2-0.5,0.4c-0.5,0.3-0.8,0.7-1.1,1.1c-2,2.7-2.5,5.7-2.1,8.8c0.3,2.3,1.3,4.4,2.9,6
				c0.6,0.5,1.1,1.2,1.9,1.5c0.1,0.1,0.2,0.1,0.3,0.2c1.9,1.3,4.1,1.9,6.3,2.1c2.2,0.2,4.4-0.1,6.7-0.7c1-0.2,1.9-0.6,3-0.9
				c0.2-0.1,0.4-0.1,0.5-0.2c1.4-0.6,2.6-1.3,3.9-2.1c0.1-0.1,0.2-0.1,0.2-0.2c0,0,0,0,0-0.1c0.7-0.4,1.2-1,1.7-1.4
				C342.2,74.4,341.4,73.6,340.6,72.8z"/>
		</g>
		<g>
			<path class="st4" d="M324.7,65.9c0.3-0.3,0.5-0.8,0.9-1c1.2-0.5,2.4-0.5,3.4,0.1l0,0.1c-0.3,0.4-0.8,0.8-1.1,1.3
				c-1.1,1-2.1,2.1-3.1,3.1c-0.4-0.6-0.4-1.2-0.4-1.8C324.3,67.1,324.5,66.6,324.7,65.9z"/>
			<path class="st4" d="M329.1,65C329.2,65.1,329.2,65.1,329.1,65c0,0.1-0.1,0.1-0.1,0.1L329.1,65C329,65,329,65,329.1,65z"/>
			<path class="st4" d="M257.7,68.9c-0.1-0.9-0.4-1.8-0.7-2.7c-0.2-0.8-0.4-1.5-0.5-2.3c0.1-0.1,0.3,0,0.4-0.1
				c1.2,0.2,2.1,1.1,2.1,2.4c0,0.8,0.1,1.6-0.3,2.3c-0.1,0.2-0.3,0.3-0.1,0.6c-0.2,0.2-0.4,0.5-0.7,0.6
				C257.8,69.5,257.8,69.2,257.7,68.9z"/>
		</g>
		<g>
			<path class="st5" d="M422.6,66.9c-0.1,0-0.2-0.1-0.3-0.1c-4.8-1.5-9.7-3-14.5-4.5c-0.1,0-0.2-0.1-0.3,0c-0.2,0.5-0.4,1.2-0.6,1.7
				c-0.1,0.4-0.2,0.7-0.4,1.2c-0.1,0.3-0.1,0.5-0.3,0.8c0,0.1-0.1,0.2-0.1,0.3c0,0,0,0.1-0.1,0.1c-0.1,0.2-0.1,0.4-0.1,0.6
				c0,0.1-0.1,0.2-0.1,0.3c0,0,0,0.1-0.1,0.1c0,0.1,0,0.1-0.1,0.2l0,0.1c-0.1,0,0-0.1,0-0.1l0-0.1c0-0.1,0-0.2,0-0.3s0-0.1,0-0.2
				c0-0.1,0-0.2,0-0.3c0-0.1,0-0.1,0-0.2c0-0.1,0-0.2,0-0.3s0-0.2,0-0.3c-0.1-0.5-0.2-1-0.2-1.5c0-0.3-0.1-0.7-0.2-1l0,0
				c0,0,0.1,0,0.1-0.1c-0.1,0-0.1-0.1-0.2-0.1c0-0.1,0-0.1,0-0.2c0-0.4-0.1-0.8-0.2-1.3c0-0.3-0.2-0.5-0.5-0.5
				c-5.1-1.5-10.3-2.9-15.4-4.4c-0.7-0.2-1.4-0.4-2.1-0.5c-0.3,0.6-0.2,1.3-0.2,2c0,0.2,0.1,0.5,0,0.7c-0.1,1-0.1,2-0.2,3.2
				c0,0.1,0,0.3,0.2,0.4c0,0.4-0.1,0.8,0,1.2c0,0.6-0.1,1.1-0.1,1.7c0,0.3-0.1,0.6,0,0.9c0.6,0.4,1.2,0.5,1.8,0.7c0.1,0,0.2,0,0.3,0
				l0,0c-0.1,0.2,0.2,0.2,0.2,0.4c0.1,0.4-0.1,0.7-0.2,1.1c0,0.2-0.2,0.3-0.4,0.2c-0.4-0.2-0.9-0.4-1.2-0.7
				c-3.9-2.1-9.8-0.9-13.4,1.3c-0.1,0-0.2,0.1-0.3,0.1c-0.1-1.1-0.2-2.3-0.3-3.4c-0.1-0.8-0.1-1.6-0.2-2.4c0-0.2,0-0.3-0.1-0.5
				c-0.1-1.7-0.3-3.3-0.4-5c-0.1-0.8-0.1-1.6-0.3-2.4c0-1.1-0.2-2.2-0.3-3.3c-0.1-0.4-0.1-0.4-0.5-0.4c-3.8-0.2-7.5-0.4-11.3-0.7
				c-0.1,0-0.3-0.1-0.4,0.1c-0.3,0.3-0.3,0.7-0.4,1.2c-0.1,0.6-0.2,0.6-0.8,0.6c-0.7,0-1.4-0.1-2.2-0.1c-0.2,0.1-0.4,0.1-0.6,0.1
				c-2.1-0.1-4.3-0.3-6.3-0.4c-0.9-0.1-1.8-0.1-2.7-0.2c-0.1,0-0.2,0-0.2,0c0.1,0,0.1,0.1,0.1,0.1c0,0.1-0.1,0.1-0.1,0.2
				c0,0.1-0.1,0.1-0.1,0.2c0,0.1-0.1,0.3,0,0.4c0,0.1-0.1,0.2-0.1,0.3s-0.1,0.3,0,0.4c0,0.1,0,0.1,0,0.2l0,0c0,0.1-0.1,0.1-0.1,0.2
				c-0.1,0.3-0.1,0.6-0.3,0.9c-0.1,0.8-0.3,1.7-0.5,2.5c0,0.4-0.1,0.8-0.3,1.3c0,0.2,0,0.4,0,0.6c-0.2,0.3-0.2,0.7-0.4,1.2
				c-0.2-0.3-0.5-0.5-0.6-0.8l0,0l0,0l0,0c-0.4-0.9-1-1.6-1.7-2.2c-0.2,0-0.3-0.2-0.4-0.3c-1.5-1.5-3.3-2.6-5.2-3.5
				c-1.2-0.5-2.3-0.8-3.6-1c-0.4-0.1-0.8-0.1-1.2-0.1c-0.1,0-0.2-0.1-0.1-0.2c0.1,0,0.2,0,0.2-0.1c0.1,0,0.2,0,0.2-0.1
				c0.1,0,0.2,0,0.2-0.1l0,0c0.1,0,0.2,0,0.2-0.1l0,0c0,0,0.1-0.1,0.2-0.1l0,0l0,0l0.1-0.1l0,0c0,0-0.1,0-0.1,0.1c0.1,0,0.1,0,0.1,0
				c0.1,0,0.2,0,0.2-0.1c0.1,0,0.2,0,0.2-0.1c0.1,0,0.2,0,0.2-0.1c0.1,0,0.2,0,0.2-0.1c0.1,0,0.2,0,0.2-0.1l0,0
				c0.1,0,0.1-0.1,0.2-0.1l0,0l0,0l0.1-0.1l0,0c0,0-0.1,0-0.1,0.1c0.1,0,0.1,0,0.1,0c0.1,0,0.2,0,0.2-0.1c0.1,0,0.2,0,0.2-0.1
				c0.1,0,0.2,0,0.2-0.1c0.1,0,0.2,0,0.2-0.1l0,0c0.1,0,0.2,0,0.2-0.1l0,0c0.1,0,0.1-0.1,0.2-0.1l0,0l0,0l0.1-0.1l0,0
				c-0.1,0-0.1,0-0.1,0.1c0.1,0,0.1,0,0.1,0c0.1,0,0.2,0,0.2-0.1c0.1,0,0.2,0,0.2-0.1c0.1,0,0.2,0,0.2-0.1c0.1,0,0.2,0,0.2-0.1l0,0
				l0,0l0,0l0,0l0,0l0,0c0.1,0,0.2,0,0.2-0.1l0,0c0,0,0.1-0.1,0.2-0.1l0,0l0,0l0.1-0.1l0,0c-0.1,0-0.1,0-0.1,0.1c0.1,0,0.1,0,0.1,0
				c0.1,0,0.2,0,0.2-0.1c0.1,0,0.2,0,0.2-0.1c0.1,0,0.2,0,0.2-0.1c0.1,0,0.2,0,0.2-0.1c0.3,0,0.5-0.2,0.8-0.4l0,0
				c0.1,0,0.2,0,0.2-0.1l0,0c0.1,0,0.2,0,0.3-0.1c1.1-0.4,2.1-1,3-1.4c0.1,0,0.2-0.1,0.2-0.1c0.1,0,0.2-0.1,0.1-0.3
				c-0.5-0.7-0.9-1.6-1.4-2.3c0-0.2-0.2-0.4-0.3-0.5c-1.6-2.7-3.2-5.4-4.8-8.3c-0.1-0.2-0.2-0.3-0.3-0.5l-0.1,0l0,0.1
				c-0.1,0-0.2,0-0.2,0.1c0,0,0,0,0.1,0l0,0c-0.7,0.7-1.4,1.4-2.2,2.1l-0.1,0.1c0,0,0,0-0.1,0l-0.1,0.1c0,0,0,0-0.1,0l-0.1,0.1
				l-0.1,0.1c-0.4,0.3-0.7,0.7-1,1c-0.3,0.2-0.3,0.4-0.6,0.7l-0.1,0.1c0,0,0,0-0.1,0c0,0-0.1,0-0.1,0.1c0,0,0,0-0.1,0
				c0,0-0.1,0-0.1,0.1l-0.1,0.1c-0.3,0.3-0.6,0.6-0.9,0.9c-0.4,0.3-0.6,0.7-1,0.9c-0.3,0.2-0.5,0.6-0.8,0.8c0,0-0.1,0-0.1,0.1
				l-0.1,0.1c-0.3,0.3-0.6,0.7-1,1c-0.2,0.2-0.5,0.5-0.7,0.7l-0.1,0.1l0,0l-0.1,0.1c0,0-0.1,0-0.1,0.1c-0.1,0.1-0.4,0.2-0.3,0.4
				c-0.3,0.1-0.3,0.4-0.6,0.6c-0.3,0.3-0.4,0.6-0.8,0.8c0,0.1-0.1,0.2-0.1,0.2c-0.4,0.2-0.6,0.6-1,0.9c-0.6,0.6-1.2,1.2-1.8,1.7
				c-0.1,0.1-0.1,0.2-0.2,0.3c0,0.5,0.4,0.9,0.7,1.2c0.1,0.2,0.3,0.6,0.6,0.6l0,0c-0.1,0.1,0,0.2,0,0.3c0,0.2,0.1,0.3,0.2,0.4
				c0.2,0.3,0.3,0.5-0.1,0.6c-0.7,0.2-1.2,0.6-1.9,0.9l-0.1,0l-0.1,0c-0.2,0.1-0.5,0.2-0.8,0.4c0,0.1-0.2,0.2-0.3,0.2
				c-0.2,0.1-0.4,0.2-0.6,0.3c-0.6,0.2-1.2,0.5-1.6,0.7c-0.2,0-0.3-0.1-0.4-0.2c-0.3-0.3-0.6-0.6-0.9-0.9c-0.9-0.9-1.7-1.8-2.7-2.6
				c0,0,0-0.1-0.1-0.1l0,0c0-0.1-0.1-0.1-0.1-0.2l0,0c-0.1,0-0.1-0.1-0.1-0.1l-0.1-0.1l0,0l-0.1-0.1l0,0l-0.1-0.1l0,0l-0.1-0.1l0,0
				c0,0,0-0.1-0.1-0.1c-1.9-1.9-3.8-3.8-5.7-5.7c-0.1-0.1-0.1-0.2-0.3-0.2c-0.3,0.3-0.5,0.7-0.7,1c0,0.1-0.1,0.1-0.1,0.2l-0.1,0.1
				l-0.1,0.1l-0.1,0.1c-0.1,0.2-0.2,0.3-0.3,0.5c-0.1,0.2-0.2,0.3-0.3,0.4l-0.1,0.1l-0.1,0.1c-0.1,0.2-0.2,0.3-0.3,0.5
				c0,0.1-0.1,0.1-0.1,0.2l-0.1,0.1c-0.1,0.2-0.2,0.3-0.3,0.5c-0.2,0.2-0.3,0.4-0.4,0.7c0,0.1-0.1,0.1-0.1,0.2l-0.1,0.1
				c-0.1,0.2-0.2,0.3-0.2,0.5c-0.2,0-0.3,0.2-0.2,0.4l0,0.1l-0.1,0c-0.2,0-0.3,0.3-0.5,0.4c-0.1-0.1-0.1-0.2-0.1-0.3
				c0,0,0-0.1,0.1-0.1c0.2-0.9,0.1-1.8,0.2-2.7c0-0.2,0-0.3,0-0.4c0-0.1,0.1-0.1,0.1-0.2l0-0.1c-0.1-0.2-0.1-0.4-0.1-0.6
				c0-0.6,0-1.2,0.2-1.8c-0.2,0-0.4,0.1-0.6,0.1c-4.2,1-8.5,2.1-12.7,3.2c-1.8,0.4-3.5,0.9-5.2,1.4c0,0.1,0,0.1,0,0.2
				c0,0.2,0,0.3,0.1,0.5c0,0.2,0,0.4,0,0.7c0.1,0.1,0,0.3,0.1,0.4c0,0.6-0.1,1.1-0.1,1.7c0.1,0.2,0,0.3,0.1,0.5c0,0.5-0.1,1-0.1,1.4
				c0.1,0.2,0,0.3,0.1,0.5c0,0.5-0.1,1.1-0.1,1.6c0.1,0.1,0.1,0.2,0,0.3L283,59c-0.1,0.4-0.1,0.9-0.1,1.4c0,0.2,0.1,0.4,0.3,0.5
				c0.3,0.1,0.6-0.1,0.9-0.1c0.6-0.1,1.2-0.3,1.8-0.3c0.3,0,0.2,0.3,0.3,0.5c0.1,1.2,0.1,2.4,0.2,3.7c0,0.3-0.2,0.3-0.4,0.2
				c-0.1-0.1-0.2-0.1-0.3-0.2l-0.1-0.1c-0.4-0.1-0.7-0.3-1.2-0.5c-0.5-0.1-0.9-0.3-1.4-0.4c-0.1,0.2-0.2,0.1-0.3,0.1
				c-1.6-0.3-3.2-0.3-4.8-0.1c-2.2,0.3-4.2,1-6.1,2.1c-0.1,0.1-0.2,0.2-0.4,0.2c0-0.1,0-0.2,0.1-0.3c0.3-1.4,0.6-2.7,0.5-4
				c0-0.9,0-1.8-0.3-2.7c0-0.1,0-0.2-0.1-0.4c-0.4-1.9-1.3-3.5-2.5-5c-0.7-0.9-1.4-1.8-2.3-2.5l0-0.1c-1.6-1.2-3.1-2.4-5-3.2
				c-2.1-0.9-4.5-1.3-6.8-1.7c-2.5-0.3-5-0.3-7.5,0c-3.2,0.3-6.2,1-9.3,2c-1.2,0.4-2.4,0.7-3.6,1.3c-0.3,0-0.6,0.2-0.9,0.3
				c-2.8,1.1-5.3,2.6-7.9,3.9c-0.1,0-0.1,0.1-0.2,0.1c0.3,0.2,0.3,0.6,0.5,0.7c0,0.2,0.2,0.4,0.3,0.6l0,0.1c0,0.1,0.1,0.3,0.2,0.4
				c0,0.1,0,0.2,0.1,0.2l0,0c0.2,0.4,0.5,0.8,0.7,1.2c0.1,0.2,0.2,0.4,0.4,0.6c0.2,0.4,0.3,0.8,0.5,1c0,0.1,0,0.1,0,0.2
				c0.4,0.5,0.6,1,0.8,1.6c0.4,0.5,0.5,0.9,0.7,1.5c0.2,0.4,0.5,0.7,0.7,1.2c0,0.1,0,0.2,0.1,0.2l0,0c0.4,0.5,0.5,1,0.8,1.6
				c0.2,0.4,0.4,0.7,0.5,1c0,0.1,0,0.2,0.1,0.2l0,0l0.1,0c0,0.2,0.1,0.3,0.2,0.5c0.2,0.4,0.4,0.7,0.4,1c0.4,0.5,0.5,1,0.8,1.6
				c0.9-0.3,1.7-0.6,2.6-1c0.1,0,0.2,0,0.3-0.1c0.1,0,0.2,0,0.2-0.1c0.1,0,0.1,0,0.2,0c0.1-0.1,0.1-0.1,0.2-0.1
				c0.2,0.4,0.3,0.7,0.4,1.1c0.3,0.8,0.6,1.5,0.8,2.3c0.3,0.7,0.6,1.3,0.8,2.1c0.2,0.5,0.4,1,0.6,1.4l0,0.1l0,0.1c0,0,0,0.1,0.1,0.1
				l0,0l0,0.1c0,0.1,0,0.2,0.1,0.2c0.3,0.5,0.4,0.9,0.5,1.4c0.3,0.9,0.7,1.7,0.9,2.6l0,0c0,0.1,0,0.2,0.1,0.2c0,0.1,0.1,0.1,0.1,0.2
				c0.3,0.9,0.6,1.7,0.9,2.6l0,0.1l0,0c0,0.1,0,0.2,0,0.2l0,0l0,0c0,0.1,0,0.2,0.1,0.2c0.3,0.6,0.4,1.1,0.6,1.6l0,0
				c0,0.1,0,0.2,0.1,0.2l0,0.1c0,0.1,0,0.1,0.1,0.1c0.2,0.4,0.4,0.8,0.5,1.3l0,0c0,0.1,0,0.2,0.1,0.2c0.2,0.4,0.3,0.9,0.6,1.3
				c0.3,0.9,0.6,1.8,1.1,2.7c0.1,0.5,0.3,1.1,0.5,1.5c0.5,1.4,0.9,2.6,1.5,3.9c0,0.1,0,0.2,0.1,0.2l0,0c0,0.1,0,0.2,0.1,0.2l0,0.1
				c0,0,0,0.1,0.1,0.1l0,0.1l0.1,0.1l0,0.1c0,0.1,0,0.2,0.1,0.2l0,0c0,0.1,0,0.2,0.1,0.2l0,0c0.1,0.5,0.3,1.1,0.5,1.5
				c0.3,1,0.7,1.8,1.1,2.8c0.1,0.2,0.2,0.3,0.4,0.2c0.7-0.2,1.4-0.4,2.1-0.6c1.4-0.4,2.8-0.7,4.2-1c1-0.2,2-0.5,2.9-0.8
				c0.1,0,0.1,0,0.2,0l0.1,0c0.1,0,0.1,0,0.2,0l0,0l0.1,0c0.1,0,0.1,0,0.2,0c0.1,0,0.2,0,0.2,0l0.1,0c0.1,0,0.2,0,0.2,0
				c0.1,0,0.1,0,0.2,0c0.1,0,0.1,0,0.1,0c0.1,0,0.1,0,0.2,0c0.1,0,0.1,0,0.1,0c0.1,0,0.1,0,0.2,0c0.1,0,0.1,0,0.1,0
				c0.1,0,0.2,0,0.3,0c0.1,0,0.2,0.1,0.3,0c0.1,0,0.2,0.1,0.3,0l0,0c0.2,0.1,0.4-0.2,0.6,0c0.3,0,0.4-0.2,0.2-0.5
				c-0.2-1-0.4-2-0.6-2.9c-0.2-0.7-0.2-1.4-0.5-2.1c0-0.1,0-0.2,0-0.3l0-0.1c0-0.1,0-0.2,0-0.3c-0.3-1.5-0.6-2.9-0.9-4.3
				c0-0.2,0-0.3,0-0.5l0,0c0,0,0,0,0-0.1s0-0.1,0-0.2c0-0.3-0.1-0.6-0.1-1c0-0.1,0-0.2,0-0.3s0-0.2,0-0.2c0-0.1,0-0.3-0.2-0.3
				c0.2-0.1,0.1-0.3,0-0.5c-0.1-0.5-0.1-0.9-0.3-1.4c-0.2-0.6-0.2-1.1-0.3-1.7c-0.1-0.6-0.3-1.2-0.3-1.8c0-0.3,0-0.5,0.2-0.6
				c0.9-0.5,1.8-1.2,2.6-1.8c-0.3,0.9-0.1,1.9-0.1,2.8c0,0.1,0,0.1,0,0.1c0,0.2,0,0.3,0.1,0.5c0.1,0.5,0.1,0.9,0.2,1.4l0,0.1
				c0,0.1,0,0.2,0,0.3c0.1,0.4,0.2,0.9,0.4,1.3c0,0.2,0.1,0.4,0.2,0.4c0,0,0,0-0.1,0.1c0,0,0,0.1,0,0.2c0,0.1,0,0.2,0.1,0.3
				c0.3,0.8,0.7,1.4,1.2,2.1c0.6,0.9,1.4,1.7,2.2,2.5c1.1,1,2.4,1.7,3.8,2.2c0,0,0.1,0,0.1,0.1c0.1,0,0.2,0.1,0.4,0.1
				c1.4,0.4,2.7,0.7,4.1,0.7c0.6-0.1,1.2-0.1,1.8-0.1c1.9-0.2,3.7-0.7,5.5-1.5l0.1,0c0,0,0,0,0,0.1c0.1,0,0.2-0.1,0.2-0.1
				c0.1,0,0.2-0.1,0.3-0.2c0,0,0.1,0,0.1-0.1c0.2-0.1,0.4-0.2,0.6-0.3c0.3-0.1,0.6-0.4,0.8-0.5c0,0,0.1,0,0.1-0.1c0,0,0.1,0,0.1-0.1
				c0.2-0.2,0.5-0.4,0.7-0.5c0.1,0,0.1-0.1,0.2-0.1c0.1-0.1,0.3-0.2,0.4-0.2c0.1,0.1,0.1,0.3,0.1,0.4c0,0.5,0,1.1,0,1.6
				c0,1,0.1,2,0.1,3c0.1,0.4,0.2,0.6,0.6,0.6c4.1-0.3,8.1-0.6,12.2-1.1c0.1,0,0.2,0,0.2-0.1c0.2-0.1,0.2-0.3,0.1-0.5
				c0.2-2.5,0.4-5,0.4-7.5c0.2-0.1,0.1-0.4,0.1-0.5c0-0.7,0.1-1.3,0.1-2c0-0.6,0-0.6,0.6-0.3c1.7,1,3.5,2,5.2,3
				c0.2,0.1,0.3,0.3,0.5,0.2c0.1,0,0.1,0,0.2,0c0.5,0.3,1.1,0.7,1.6,0.9l0,0.1c0.1,0,0.1,0,0.2,0c0.1,0.2,0.3,0.3,0.5,0.3
				c2,1.2,3.9,2.2,5.9,3.4c0.1,0.1,0.3,0.2,0.4,0.3c0.2,0,0.3,0.2,0.4,0.2c1.4,0.8,2.9,1.7,4.4,2.6c0.3,0.2,0.7,0.3,1,0.6
				c0.1,0,0.2,0.1,0.2,0.1c1.5,0.9,3,1.7,4.6,2.6c0,0,0,0.1,0.1,0.1c0.2-0.1,0.1-0.3,0.1-0.5c0.2-3,0.4-5.9,0.6-8.9
				c0-0.5,0.1-1.1,0.1-1.6c0,0,0,0,0-0.1c0.1-0.2,0-0.4,0-0.6c0.1-0.3-0.1-0.7,0.2-0.9c0.3-0.1,0.5-0.1,0.8-0.1
				c3.4-0.2,6.6-1.2,9.7-2.6c0.2-0.1,0.3-0.1,0.5-0.3c0.1,0.1-0.1,0.2-0.1,0.3c0,0.1-0.1,0.1-0.1,0.2c0,0.1-0.1,0.3,0,0.4
				s-0.1,0.1-0.1,0.2s-0.1,0.3,0,0.4c0,0.1-0.1,0.1-0.1,0.2c0,0.2-0.1,0.3-0.1,0.5c0,0.1-0.1,0.1-0.1,0.2s-0.1,0.3-0.1,0.4
				c0,0.1,0,0.2,0,0.2l0,0l0,0.1c-0.3,1-0.4,2.1-0.7,3.1c-0.1,0.3,0.2,0.4,0.4,0.5c0.3,0.1,0.5,0.1,0.8,0.2c1.2,0.2,2.4,0.5,3.6,0.8
				c0.9,0.2,2,0.5,2.9,0.6c0.5,0.1,1,0.2,1.5,0.4c0.2,0.1,0.5,0,0.7,0.1c0.5,0.1,1,0.3,1.6,0.3c0.8,0.2,1.6,0.4,2.4,0.6
				c0.3,0.2,0.5,0,0.6-0.3c0.3-1.5,0.6-2.9,1-4.4c0.6,1.3,1.3,2.8,1.9,4.1c0.2,0.4,0.2,0.8,0.5,1c0.4,0.5,0.4,1.1,0.8,1.6
				c0.4-0.3,0.5-0.9,0.9-1.2c0.7-0.8,1.2-1.8,1.6-2.5c0.1,0.4-0.2,0.9,0.2,1.5l0,0c0,0-0.1,0-0.1,0.1c-0.1,0.4,0,0.8,0,1.2
				c0,0.9,0.1,1.8,0.1,2.7c0,0.1,0,0.1,0,0.2c0,0.2,0.1,0.4,0,0.7c0,0.5,0.1,0.9,0.7,1c5,1.2,10,2.3,14.9,3.6c0.2,0.1,0.4,0.1,0.7,0
				c0,0,0.1,0,0.1-0.1c-0.1-1-0.2-2-0.3-3c0-0.2,0.1-0.3-0.1-0.5l0,0c0-0.1,0-0.1,0-0.2c0-0.2,0.1-0.3,0.3-0.3c-0.1,0-0.1,0-0.2,0
				c0,0,0-0.1,0.1-0.1c0-0.2-0.1-0.4,0-0.6c-0.1-0.5,0-0.5,0.4-0.5c0.5,0,1,0.1,1.4,0.1c0.2,0,0.4,0,0.6-0.2
				c0.8,0.1,1.6-0.1,2.5-0.2s1.8-0.4,2.7-0.8c0.2-0.1,0.4-0.2,0.6-0.2c0,0.3,0,0.5-0.1,0.8c-0.2,0.9-0.4,1.8-0.5,2.7
				c-0.2,0.7-0.3,1.6-0.4,2.3c0.1,0,0.2,0.1,0.3,0.1c0,0.1,0.1,0.1,0.2,0.1c0.7,0.1,1.5,0.3,2.2,0.4c1,0.2,2.2,0.4,3.2,0.7
				c0.8,0.2,1.8,0.4,2.6,0.6c0.6,0.1,1.3,0.3,2,0.4c0.1,0.1,0.2,0.1,0.3,0.2c0,0.1,0,0.1,0,0.2c0,0.1,0,0.2-0.1,0.3
				c0,0.1,0,0.2-0.1,0.3l0,0.1l0,0c0,0,0,0-0.1,0c-0.2,0.2-0.1,0.4-0.1,0.6c0,0.6,0.1,1.2-0.1,1.8c-0.1,0.3-0.1,0.7,0,1
				c0.1,0.3,0.4,0.2,0.7,0.4c2.7,1.1,5.2,2.1,7.8,3c0.8,0.3,1.7,0.8,2.5,0.9c0.2,0,0.2-0.1,0.2-0.2c0.1-0.4,0.4-0.9,0.5-1.3
				c0.5-1.2,0.9-2.4,1.5-3.6c0.1,0,0.1-0.1,0.1-0.2c0,0,0,0,0-0.1c0.5-1.1,0.9-2.1,1.3-3.2c0.3-0.8,0.7-1.6,1-2.4
				c0.1,0,0.1-0.1,0.1-0.2c0,0,0,0,0-0.1c0.5-1.1,0.8-2.1,1.3-3.2c0.3-0.7,0.6-1.5,0.8-2.2c0.1,0,0.1-0.1,0.1-0.2c0,0,0,0,0-0.1
				c0.1,0,0.1-0.1,0.1-0.2l0,0c0,0,0,0,0-0.1c0.1,0,0.1-0.1,0.1-0.2c0,0,0,0,0-0.1c0.1-0.1,0.1-0.2,0.2-0.3c0.1-0.1,0.1-0.2,0.2-0.3
				c0.1-0.1,0.2-0.3,0.2-0.4c0.8-1.9,1.5-3.8,2.4-5.9c0.3-0.7,0.6-1.4,0.8-2.2c0.1-0.1,0.2-0.3,0.2-0.4c0.6-1.5,1.2-3.1,1.8-4.6
				c0.3-0.8,0.7-1.6,1-2.4c0.1,0,0.1-0.1,0.1-0.2l0-0.1c0.1-0.1,0.2-0.3,0.2-0.4c0.8-1.9,1.5-3.8,2.3-5.7c0.2-0.3,0.3-0.6,0.4-1
				c0.3-0.5,0.5-1.1,0.7-1.6C422.8,67.1,422.8,67,422.6,66.9z M417.9,76L417.9,76L417.9,76z M400.9,62.2
				C400.9,62.2,400.9,62.3,400.9,62.2C400.9,62.3,400.9,62.2,400.9,62.2L400.9,62.2z M372.5,74.1L372.5,74.1L372.5,74.1L372.5,74.1
				C372.5,74.1,372.6,74.1,372.5,74.1C372.6,74.1,372.5,74.1,372.5,74.1L372.5,74.1z M343.9,64.4L343.9,64.4L343.9,64.4
				c0,0.1,0,0.2-0.1,0.3c0,0.1-0.1,0.1-0.1,0.2c-0.1,0.1-0.1,0.2-0.2,0.3c-0.1,0.6-0.3,1.1-0.4,1.8c-0.2,0.7-0.3,1.6-0.5,2.3
				c-0.6-0.6-1.2-1.2-1.7-1.7c-0.2-0.2-0.2-0.4,0-0.5c0.4-0.5,1-0.9,1.4-1.4c0.4-0.3,0.8-0.6,1-1.1
				C343.6,64.6,343.7,64.5,343.9,64.4z M331.9,44.9c0.5-0.6,1.1-1.1,1.6-1.7c0.3-0.4,0.8-0.8,1.1-1.3c0.3-0.3,0.4-0.2,0.6,0
				c0.6,1.1,1.4,2.1,2.1,3.3c0.1,0.2,0.2,0.4,0.5,0.4l0,0l0,0.1l0,0l0,0.1l0,0.1l0,0.1l0,0c0,0,0,0.1,0.1,0.1c0,0,0,0.1,0.1,0.1
				c0,0,0,0.1,0.1,0.1l0,0.1l0,0.1l0,0.1c0,0.1,0,0.1,0,0.2c-0.7,0.4-1.3,0.6-2.1,1c-0.9,0.3-1.7,0.7-2.5,1
				c-0.2,0.1-0.4,0.2-0.5,0.4l-0.1,0l0,0l-0.1,0l-0.1,0l0,0l0,0l-0.1,0l0,0l0,0l0,0l-0.1,0l0,0l0,0l0,0l-0.1,0l0,0l0,0l0,0l-0.1,0
				c0,0,0,0-0.1,0l0,0c0,0,0,0-0.1,0l-0.1,0c-0.1,0-0.1,0-0.2,0l-0.1,0c0,0-0.1,0-0.1,0.1l0,0c-0.2,0-0.5,0.2-0.7,0.3l0,0l-0.1,0
				c-0.1,0-0.1,0-0.2,0l-0.1,0c0,0-0.1,0-0.2,0l-0.1,0l-0.1,0l-0.1,0l-0.1,0l-0.1,0l-0.1,0l-0.1,0l-0.1,0l-0.1,0l-0.1,0l-0.1,0
				l-0.1,0l-0.1,0l-0.1,0l-0.1,0l-0.1,0l-0.1,0l-0.1,0l-0.1,0l-0.1,0l-0.1,0c-0.1,0-0.1,0-0.2,0l-0.1,0c-0.1,0-0.2,0-0.2,0
				c-0.1,0-0.1,0-0.2,0c-0.3,0.1-0.6,0.2-0.8-0.2c-0.3-0.6-0.4-0.7,0.1-1c0.4-0.3,0.7-0.7,1.1-1.1l0.1-0.1l0,0l0.1-0.1l0.1-0.1
				l0.1-0.1l0,0c0,0,0.1,0,0.1-0.1l0,0c0,0,0.1,0,0.1-0.1l0,0c0,0,0.1,0,0.1-0.1l0,0c0,0,0.1,0,0.1-0.1c0,0,0,0,0.1-0.1
				c0,0,0-0.1,0.1-0.1l0,0c0,0,0.1,0,0.1-0.1l0,0c0,0,0.1,0,0.1-0.1l0,0c0,0,0.1,0,0.1-0.1l0.1-0.1l0,0c0.1-0.1,0.1-0.1,0.2-0.2
				c0,0,0,0,0.1,0c0,0,0.1,0,0.1-0.1l0,0c0,0,0.1,0,0.1-0.1l0.1-0.1l0.1-0.1l0,0c0,0,0.1,0,0.1-0.1l0,0c0,0,0.1,0,0.1-0.1l0,0
				c0,0,0.1,0,0.1-0.1l0.1-0.1l0.1-0.1l0,0c0,0,0.1,0,0.1-0.1l0,0c0,0,0.1,0,0.1-0.1l0,0c0,0,0.1,0,0.1-0.1c0,0,0.1,0,0.1-0.1
				c0,0,0-0.1,0.1-0.1l0,0l0,0l0,0l0,0l0,0c0,0,0.1,0,0.1-0.1l0,0c0,0,0.1,0,0.1-0.1l0,0c0,0,0.1,0,0.1-0.1c0,0,0.1,0,0.1-0.1
				c0,0,0-0.1,0.1-0.1l0,0C331.6,45.2,331.8,45,331.9,44.9z M310.6,70.6c0-0.1-0.1-0.2-0.2-0.2c-0.2-0.1-0.4-0.2-0.6-0.3
				c-0.5-0.2-0.5-0.2-0.1-0.7c0.5-0.4,0.9-0.8,1.4-1.2c0.5-0.4,0.8-0.7,1.4-1.2c-0.2,1-0.1,2-0.1,2.9c0,0.3,0,0.7,0.2,1
				c-0.2,0.2-0.3,0.2-0.6,0.1C311.5,70.9,311.1,70.6,310.6,70.6z M232.8,54.9c1.7-0.9,3.5-1.7,5.3-2.4c1.4-0.6,2.9-1,4.3-1.5
				c0.1,0,0.2-0.1,0.3-0.1l0.1,0c0.1,0,0.2,0,0.2,0l0.1,0c0.1,0,0.2,0,0.2,0l0.1,0c0.1,0,0.2,0,0.2,0l0.1,0c0.1,0,0.2,0,0.2,0l0.1,0
				c0.1,0,0.2,0,0.2,0l0.1,0c0.1,0,0.2,0,0.3,0l0.1,0c0.1,0,0.2,0,0.3,0l0,0c0,0,0,0,0.1,0c0.3,0.1,0.5,0,0.8,0
				c2.1-0.4,4.1-0.5,6.2-0.6c2.8,0,5.7,0.5,8.4,1.3c0.2,0.1,0.3,0.1,0.5,0l0,0l0,0c0,0,0.1,0,0.1,0.1l0,0c0,0,0.1,0,0.1,0.1
				c0,0,0.1,0,0.1,0.1l0.1,0.1c0,0,0.1,0,0.1,0.1l0.1,0.1c0,0,0.1,0,0.1,0.1l0.1,0.1c0,0,0.1,0,0.1,0.1c0,0,0.1,0,0.1,0.1
				c0,0,0.1,0,0.1,0.1l0.1,0.1c0,0,0.1,0,0.1,0.1c0,0,0.1,0,0.1,0.1c0,0,0.1,0,0.1,0.1c0,0,0.1,0,0.1,0.1c0,0,0.1,0,0.1,0.1l0,0l0,0
				l0,0l0,0c0,0,0,0.1,0.1,0.1c0,0,0,0,0.1,0.1l0.1,0.1c0,0,0,0,0.1,0.1c0,0,0,0,0.1,0.1l0,0c0,0,0,0.1,0.1,0.1c0,0,0,0,0.1,0.1
				l0.1,0.1c0,0,0,0.1,0.1,0.1c0,0.1,0.1,0.1,0.1,0.2c0.1,0.1,0.1,0.2,0.2,0.3c2,1.5,3.4,3.3,4.2,5.6c0,0.1,0,0.2,0.2,0.3l0,0
				c0,0.1,0,0.3,0.1,0.4c0,0.2,0,0.3,0.1,0.5c0.3,1.6,0.2,3-0.1,4.6c-0.3,1.1-0.7,2.2-1.2,3.4c0,0.1-0.1,0.1-0.1,0.2l-0.1,0.1
				c0,0.1-0.1,0.1-0.1,0.2l0,0c-0.1,0.1-0.2,0.2-0.2,0.2c-0.7,1.1-1.3,2.1-2.2,3.1c-0.4,0.6-0.9,1.1-1.5,1.5
				c-0.3,0.4-0.8,0.8-1.2,1.2c-0.7,0.6-1.5,1.2-2.2,1.8l-0.1,0c-1,0.5-1.9,1.1-2.8,1.7c-0.1,0-0.2,0.1-0.2,0.3c0,0.1,0,0.1,0,0.2
				c0.4,2.3,0.9,4.5,1.3,6.8c0,0.1,0,0.3,0.2,0.4l0,0c0,0.1,0,0.2,0,0.3c0.4,2.1,0.8,4.1,1.2,6.2c0,0.1,0,0.3,0.2,0.4l0,0
				c0,0-0.1,0-0.1,0.1s0,0.3,0.1,0.4c0.1,0.8,0.3,1.6,0.4,2.4c0.1,0.4,0,0.5-0.4,0.7c-0.5,0.1-0.9,0.2-1.4,0.3
				c-1.5,0.4-3,0.8-4.5,1.2c-0.2,0-0.5,0.1-0.6,0.3c-0.2-0.1-0.4-0.1-0.5-0.2c0.1-0.2-0.1-0.5-0.1-0.7c-0.6-1.6-1.2-3.3-1.8-4.9
				c0-0.2-0.1-0.4-0.3-0.4c0,0-0.1,0-0.1-0.1l0.1,0c0.1-0.3-0.1-0.5-0.1-0.8c-0.8-1.9-1.4-3.9-2.2-5.8c-0.3-0.8-0.5-1.5-0.9-2.2l0,0
				c0-0.1,0-0.3-0.2-0.4c-0.6-1.7-1.4-3.6-2-5.3c-0.3-0.8-0.5-1.6-0.9-2.4c0-0.2,0-0.3-0.2-0.5c-0.6-1.8-1.4-3.7-2-5.5
				c-0.2-0.5-0.4-1.1-0.6-1.5c-0.4-1.2-0.9-2.3-1.3-3.5c-0.1-0.3-0.1-0.3-0.4-0.1c-1.1,0.4-2,0.9-3.1,1.3c-0.5,0.2-0.4,0.2-0.6-0.2
				c-0.4-0.9-0.9-1.8-1.3-2.6c-0.4-0.7-0.7-1.3-1.1-2c0-0.1,0-0.2-0.1-0.2c0-0.1,0-0.2-0.1-0.2l0,0c0,0,0-0.1-0.1-0.1l0,0l0,0.1
				c0-0.1,0-0.1,0-0.1l0,0c0.1-0.2-0.1-0.4-0.2-0.6c-0.4-0.9-0.9-1.8-1.3-2.6c-0.1-0.2-0.2-0.4-0.3-0.6l0-0.1c0,0,0,0,0.1-0.1
				c0,0,0.1,0,0.1-0.1l0,0C232.3,55.1,232.6,55,232.8,54.9z M282,88.7c-2.9,1.1-5.8,1.1-8.7,0c-1.4-0.5-2.5-1.5-3.6-2.6l-0.1-0.1
				l-0.1-0.1c-0.1-0.1-0.1-0.1-0.1-0.2l0-0.1c0,0,0-0.1-0.1-0.1l0,0c0,0,0-0.1-0.1-0.1l0-0.1c0-0.1,0-0.1-0.1-0.2c0,0,0-0.1-0.1-0.1
				l0,0c0-0.1-0.1-0.2-0.1-0.3c-0.9-1.6-1.3-3.3-1.3-5.1c0-0.8,0.2-1.7,0.3-2.6c0.1-0.5,0.3-0.9,0.5-1.5c0.7-2,1.9-3.8,3.6-5.3
				c0.1-0.2,0.3-0.2,0.4-0.3c0.4-0.3,0.8-0.7,1.2-1.1l0,0l0,0c0.3,0,0.5-0.3,0.8-0.4c2.7-1.7,5.6-2.5,8.9-2.1c2.2,0.3,4,1.3,5.5,2.8
				c0.1,0.2,0.2,0.3,0.4,0.3l0,0c0.1,0.2,0.2,0.3,0.3,0.4c0,0,0,0.1,0.1,0.1c0,0.1,0.1,0.2,0.1,0.2c0.7,1.1,1.2,2.5,1.5,3.8
				c0.1,0.9,0.1,1.8,0.1,2.7l0,0c-0.2,0.3-0.1,0.7-0.2,1c-0.1,0.1-0.1,0.2-0.1,0.4c-0.5,2.5-1.7,4.7-3.4,6.6
				c-0.3,0.2-0.5,0.6-0.8,0.8l-0.1,0c-0.3,0.1-0.5,0.4-0.6,0.5C284.8,87.4,283.4,88.2,282,88.7z M314.8,86.7L314.8,86.7L314.8,86.7z
				 M323.4,90.6c-0.2-0.1-0.3-0.2-0.5-0.2c-2.4-1.4-4.8-2.8-7.2-4.1c-0.1-0.1-0.2-0.2-0.4-0.2l0,0c-0.1-0.3-0.3-0.4-0.7-0.5
				c-4.9-2.8-9.7-5.7-14.6-8.5c-0.1-0.1-0.3-0.2-0.5-0.2c-0.2-0.1-0.4,0-0.5,0.2c-0.1,0.3-0.1,0.6-0.1,0.8
				c-0.2,3.9-0.5,7.8-0.7,11.7c-0.1,0.3-0.1,0.7-0.2,1l0,0c-0.4,0-0.8,0-1.3,0.1c-1.4,0.1-2.8,0.2-4.2,0.3c-1,0.1-1,0-1-1
				c0-1.1,0-2.2-0.1-3.3c0-0.1,0-0.3-0.2-0.4c0-0.1,0-0.3-0.1-0.4c0-0.3,0-0.6,0.2-0.8c0.6-1,1.2-2,1.5-3c0.5-1.2,0.8-2.3,0.9-3.6
				c0.1-0.1,0.1-0.3,0.1-0.5c0.2-1.7,0-3.5-0.5-5.2c-0.3-1-0.7-1.9-1.3-2.8c0,0,0,0-0.1,0l0.1,0c-0.1-0.7-0.5-1-0.9-1.5
				c-0.2-0.4-0.4-0.8-0.5-1.2c0.1-1-0.1-2-0.1-3c0-0.6,0-1.3-0.1-1.9c-0.1-0.3,0-0.6,0-0.9c0-0.1,0-0.2,0-0.3c0-0.3-0.1-0.5,0-0.8
				c0-0.1,0-0.3-0.1-0.4c0-0.1,0-0.1-0.1-0.2c0.1-1.1,0-2.3,0-3.4c-1.1,0.2-2.1,0.4-3.1,0.6c0-0.6-0.1-1.2,0.1-1.8
				c0.1-0.1,0.1-0.2,0.2-0.3c-0.1-0.6,0.3-0.8,0.8-0.9c0.1,0,0.2-0.1,0.3-0.1l0.1,0c0.1,0,0.2,0,0.2,0l0.1,0c0.1,0,0.2,0,0.2,0
				l0.1,0c0.1,0,0.2,0,0.2,0l0.1,0c0.1,0,0.2,0,0.2,0l0.1,0c0.1,0,0.2,0,0.2,0l0.1,0c0.1,0,0.2,0,0.2,0l0.1,0c0.1,0,0.2,0,0.2,0
				l0.1,0c0.1,0,0.2,0,0.2,0l0.1,0c0.1,0,0.2,0,0.2,0l0.1,0c0.1,0,0.2,0,0.2,0s0,0,0.1,0l0,0c0.2,0.1,0.5,0,0.7-0.1
				c1.7-0.4,3.3-0.7,5-1.1c0.5-0.2,0.5-0.1,0.6,0.4c0.1,0.6,0,1.1,0,1.7c-0.1,0.3,0,0.3,0.2,0.4l0,0.1c-0.2,0.1-0.2,0.3-0.1,0.5
				c0,0.5,0,1.1,0,1.6c-0.1,1.9,0,3.8-0.1,5.8c0,0.2,0,0.4,0.2,0.5c0.1-0.1,0.2-0.2,0.3-0.3c2-2.5,4-5,6-7.4
				c0.1-0.1,0.3-0.3,0.3-0.4c0.1-0.1,0.2-0.1,0.3-0.3c0.1,0,0.1,0,0.1-0.1l-0.1,0.1l0,0l0.1-0.1l0,0c0.1,0,0.1-0.1,0.2-0.2
				c0.1,0,0.1,0,0.1-0.1c-0.1,0-0.1,0-0.1,0.1l0,0l0,0l0,0l0,0c0-0.1,0.1-0.1,0.1-0.1l0.1-0.1l0,0c0,0,0,0,0-0.1
				c0.1,0,0.1-0.1,0.1-0.1l0.1-0.1l0,0c0.1,0,0.1-0.1,0.2-0.1c0.4-0.2,0.5-0.5,0.8-0.8c0.3-0.3,0.4-0.2,0.7-0.1
				c0.1,0.2,0.2,0.4,0.4,0.3l0,0c0,0,0,0,0,0.1c0,0,0,0.1,0.1,0.1l0,0c0,0,0,0.1,0.1,0.1l0,0c0,0,0,0.1,0.1,0.1l0,0
				c0,0,0,0.1,0.1,0.1l0,0c0,0,0,0.1,0.1,0.1l0,0c0,0,0,0.1,0.1,0.1l0,0c0,0,0,0.1,0.1,0.1l0,0c0,0,0,0.1,0.1,0.1l0,0
				c0,0,0,0.1,0.1,0.1l0,0c0,0,0,0.1,0.1,0.1l0,0c0,0,0,0.1,0.1,0.1l0.1,0.1c0.1,0.1,0.2,0.2,0.2,0.3c0.5,0.7,1.1,1.4,1.7,2
				c1,1.1,2,2.2,3,3.2c0.2,0.2,0.2,0.4,0,0.5c-0.1,0.1-0.3,0.2-0.2,0.4l0,0c-0.5,0.1-0.8,0.4-0.9,0.8c-0.1,0.1-0.1,0.1-0.2,0.2
				c-3.3,3.1-6.7,6.2-9.9,9.2c0,0.1,0,0.1,0.1,0.1c0,0,0,0.1,0.1,0.1c0.1,0.1,0.2,0.2,0.4,0.1c0,0,0,0.1,0.1,0.1
				c0.1,0,0.1,0.1,0.2,0.1l0.1,0.1l0.1,0c0,0,0,0.1,0.1,0.1c0.1,0.1,0.2,0.1,0.3,0.2l0.1,0c0,0,0,0.1,0.1,0.1c0,0-0.1,0-0.1-0.1l0,0
				c0,0,0,0.1,0.1,0.1c0.1,0.1,0.2,0.2,0.4,0.1c0,0.1,0.1,0.1,0.2,0.1l0,0l0,0c0,0.1,0.1,0.1,0.2,0.1l0,0l0,0c0,0.1,0.1,0.1,0.1,0.1
				l0,0l0,0c0,0.1,0,0.1,0.1,0.1c0.2,0.1,0.3,0.2,0.5,0.2c2,0.9,4.1,1.9,6.1,2.8c0.3,0.2,0.5,0.3,0.7,0.6c0.4,0.8,0.8,1.5,1.4,2.2
				c0.2,0.4,0.5,0.7,0.8,1c0,0,0,0,0,0.1c0,0,0,0.1,0.1,0.1c0,0,0,0,0,0.1c0,0,0,0.1,0.1,0.1c0,0,0,0,0,0.1c0,0,0,0.1,0.1,0.1
				c1.1,1.2,2.3,2,3.6,2.7c1.5,0.8,3.2,1.4,4.9,1.7c0.3,0.1,0.5,0.1,0.5,0.5c-0.2,2.2-0.2,4.6-0.5,6.9l0,0
				C324.5,91.1,324,90.8,323.4,90.6z M336.1,79.3c-1.3,0.5-2.5,0.8-3.8,1c-3.4,0.7-6.9,0.6-10.1-0.9c-0.5-0.2-1.1-0.7-1.6-0.9
				l-0.1,0c-0.1-0.1-0.2-0.2-0.3-0.3c-2-1.5-3.4-3.4-4-5.8c-0.2-0.4-0.2-0.9-0.3-1.3c0-0.3-0.1-0.6,0-1c-0.2-2.6,0.4-5,1.7-7.2
				c0.4-0.7,0.9-1.3,1.5-1.9c0.3,0,0.5-0.3,0.7-0.4c0.5-0.4,0.8-0.8,1.3-1.1c3.3-2.3,7.1-3.2,11.1-2.7c2.8,0.3,5.1,1.4,7.2,3.3
				c0.2,0.2,0.3,0.4,0.6,0.3l0,0l0,0.1l0,0c0,0,0,0.1,0.1,0.1l0,0c0,0,0,0.1,0.1,0.1l0,0c0,0,0,0.1,0.1,0.1l0,0c0,0,0,0.1,0.1,0.1
				l0,0c0,0,0,0.1,0.1,0.1l0,0c0,0,0,0.1,0.1,0.1l0,0c0,0,0,0.1,0.1,0.1l0,0c0,0,0,0.1,0.1,0.1l0,0c0,0,0,0.1,0.1,0.1l0,0l0,0.1
				l0,0.1c0,0.1,0,0.1-0.1,0.1c-0.4,0.6-1.1,0.9-1.5,1.6c-0.3,0.2-0.5,0.6-0.8,0.8l0,0l0,0l0,0l0,0l0,0l0,0l0,0l0,0
				c-0.3,0.1-0.5,0.4-0.6,0.6c-0.1,0.1-0.2,0.1-0.3,0.2c-2.4,2.2-4.9,4.6-7.3,6.8c-0.4,0.3-0.7,0.7-1.1,1c0.1,0.3,0.4,0.2,0.6,0.2
				c0.7,0,1.4-0.1,2.1-0.2c1.2-0.3,2.4-0.5,3.3-1.3l0,0c0.1,0,0.1,0,0.1-0.1c0.2-0.1,0.4-0.2,0.6-0.4c0.6-0.2,0.9-0.6,1.4-1.1
				c0.2-0.2,0.4-0.2,0.6,0c0.4,0.6,0.9,0.9,1.3,1.3c0.2,0.3,0.5,0.6,1,0.8c0,0,0,0,0,0.1c0,0,0,0,0,0.1c0,0,0,0.1,0.1,0.1
				c0,0.1,0.1,0.1,0.1,0.2c0,0.1,0.1,0.1,0.1,0.2c0.6,0.6,1.2,1.3,1.9,1.9c0.5,0.4,0.4,0.3,0,0.8c-0.4,0.3-0.9,0.6-1.3,1.1
				c-1.2,1-2.5,1.6-3.8,2.2c-0.2,0.1-0.4,0.2-0.6,0.3c-0.1,0-0.1,0-0.2-0.1C336.4,79.2,336.3,79.2,336.1,79.3z M372.5,95.7
				c-0.1,0-0.1,0-0.2,0c-0.1,0-0.3-0.1-0.4-0.1c-0.4-0.2-1-0.2-1.5-0.4c-2-0.5-3.9-0.9-5.9-1.3c-0.7-0.1-0.7-0.1-0.8-0.9
				c0-0.3-0.1-0.6-0.1-0.9c0-0.1-0.1-0.1-0.1-0.2c0-0.1,0-0.2,0-0.3c-0.2-2-0.3-4-0.6-6c-0.1-0.8-0.1-1.7-0.2-2.5
				c0-0.6-0.1-1.2-0.1-1.9c0-1.1-0.2-2.3-0.2-3.4c0-0.1,0-0.2-0.2-0.1l0,0c-0.1,0.1-0.2,0.2-0.2,0.4c-0.7,1.4-1.3,2.9-2,4.3
				c-0.1,0.1-0.2,0.3,0,0.4c-0.4,0.3-0.5,0.9-0.7,1.2c-0.2,0.5-0.6,1.1-0.8,1.7c-0.2-0.4-0.3-0.7-0.5-0.9c0-0.2-0.1-0.3-0.2-0.5
				c-0.3-0.6-0.5-1.2-0.7-1.6c0-0.1,0-0.2,0-0.2c-0.9-2.4-1.9-4.8-2.8-7.2c0-0.1-0.1-0.3-0.2-0.4c-0.2,0.2-0.2,0.4-0.3,0.6
				c-0.5,2.2-1,4.4-1.5,6.6c-0.1,0.2-0.1,0.3,0,0.5l0,0c-0.2,0.1-0.1,0.4-0.2,0.6c-0.3,1.1-0.5,2.4-0.8,3.5
				c-0.1,0.2-0.1,0.5-0.4,0.5c-0.3-0.2-0.7-0.1-1.1-0.2c-1-0.2-2.1-0.4-3.1-0.7c-1.1-0.3-2.3-0.5-3.4-0.8c-0.2-0.1-0.3-0.1-0.2-0.3
				l0,0l0,0c0.3-0.1,0.3-0.3,0.2-0.5c0.2-0.8,0.4-1.8,0.6-2.6c0.2-0.7,0.4-1.5,0.5-2.3c0-0.1,0-0.1,0-0.2c0.1-0.2,0.1-0.5,0.2-0.7
				c0.1-0.3,0.1-0.5,0.4-0.7c1.2-1.1,2.3-2,3.4-3.1c0.2-0.1,0.3-0.2,0-0.4c-0.8-0.8-1.5-1.5-2.3-2.3c0-0.1,0-0.2,0.1-0.2
				c0.3-1.3,0.6-2.5,0.9-3.8c0.2-0.8,0.4-1.6,0.5-2.4c0.2-0.2,0.1-0.4,0.1-0.6l0,0c0.1-0.4,0.2-0.8,0.3-1.3c0.2-0.8,0.4-1.6,0.5-2.4
				c0.1-0.1,0.1-0.3,0.1-0.4c0-0.1,0-0.1,0.1-0.2c0.1-0.1,0.1-0.3,0.1-0.4c0-0.1,0-0.1,0.1-0.2c0-0.1,0.1-0.1,0.1-0.2
				c0.3-1,0.5-2,0.7-3c0.2-0.2,0.2-0.5,0.3-0.8c0.1-0.6,0.2-0.7,0.8-0.6c2.4,0.2,5,0.3,7.4,0.5c0.2,0,0.2,0.2,0.2,0.4
				c0,0.6,0.2,1.2,0.1,1.9c0,0.1,0,0.3,0.2,0.4l0,0l0,0c0,0.5,0.1,0.9,0.2,1.4c0.3,2.5,0.6,4.9,0.8,7.4c0,0.1-0.1,0.2,0,0.3
				c0.1-0.2,0.2-0.3,0.1-0.5c0.1-0.2,0.1-0.3,0.1-0.5c0.5-1.9,0.9-3.6,1.3-5.5c0.2-0.7,0.4-1.4,0.4-2.1c0.2-0.5,0.4-1.2,0.4-1.7
				c0.1-0.1,0.2-0.3,0.1-0.5c0,0,0,0,0-0.1c0.1-0.1,0.1-0.3,0.1-0.4c0-0.1,0-0.1,0.1-0.2l0.1-0.1c0-0.1,0-0.2,0-0.3l0-0.1l0-0.1
				c0,0,0.1,0,0.1,0.1c0.1-0.1,0.1-0.2,0.2-0.3c0.2-0.7,0.2-0.7,1-0.6c1.4,0.1,2.7,0.2,4.2,0.3c0.9,0.1,0.9,0.1,0.9,0.8
				c0,0.1,0,0.2,0.1,0.3c0.1,0,0.1,0,0.1,0s0,0,0,0.1c-0.2,0.2-0.1,0.4-0.1,0.6c0.2,2.1,0.3,4.2,0.6,6.3c0,0.1,0,0.3,0.1,0.4l0,0
				c0,0.2,0,0.4,0,0.7c0.2,2.2,0.4,4.5,0.7,6.7c0.1,0.4,0,0.8-0.4,1.2c-0.3,0.2-0.5,0.5-0.7,0.8c0,0.1-0.1,0.1-0.1,0.2
				c0,0,0,0-0.1,0.1l-0.1,0.1c0,0,0,0-0.1,0.1l-0.1,0.1c0,0,0,0,0,0.1c-0.1,0.1-0.1,0.1-0.2,0.2c-0.9,1.1-1.5,2.4-2,3.7
				c-0.5,1.4-0.9,2.8-1,4.3c-0.2,1.9,0.2,3.9,0.9,5.7c0.4,1,0.9,1.9,1.7,2.7l0,0l0.1,0.1c0.9,1.2,2,2.2,3.3,2.9
				c0.4,0.2,0.9,0.5,0.7,1.1c0,0,0,0,0,0.1c0,0,0,0,0,0.1c0,0.2,0.1,0.4,0,0.5c0,0.1,0,0.1,0,0.2C372.5,95.5,372.6,95.6,372.5,95.7z
				 M380,91.8c-2.6,0.3-4.9-0.1-7.1-1.5c-0.1-0.1-0.2-0.2-0.4-0.1l-0.1,0l-0.1-0.1c-1.6-1.2-2.6-2.8-3.1-4.7
				c-0.2-0.7-0.3-1.5-0.4-2.2c0-0.1,0.1-0.2,0.1-0.3c0-2.2,0.7-4.2,1.8-6.2c0.5-0.9,1.2-1.7,1.8-2.4c0.1,0,0.1-0.1,0.2-0.1l0,0
				c0.1,0,0.1,0,0.1-0.1l-0.1,0l0.1,0c0.1,0,0.2-0.1,0.2-0.1l0,0c0.1,0,0.1,0,0.2,0c0.6-0.4,1-0.8,1.5-1.2c3-2.1,6.2-3,9.8-2.4
				c2,0.4,3.6,1.3,4.9,2.8c0.5,0.5,0.7,1.1,1.3,1.5c0,0,0,0,0.1,0l0,0c1.2,2.3,1.4,4.7,0.7,7.2c-0.2,0.8-0.5,1.6-0.8,2.3
				c-0.1,0.1-0.1,0.1-0.2,0.2c-0.6,1.3-1.5,2.4-2.5,3.4c-0.4,0.3-0.7,0.8-1.2,1.1c-0.5,0.5-1.1,0.8-1.8,1.2
				c-0.6,0.4-1.1,0.5-1.7,0.9l0,0l0,0l0,0l0,0l0,0l0,0c-0.8,0.3-1.4,0.5-2.2,0.7c-0.1,0-0.2,0-0.4,0C380.4,91.8,380.2,91.8,380,91.8
				z M384.7,97.4L384.7,97.4C384.7,97.4,384.7,97.4,384.7,97.4z M403.7,105.2c-0.2,0.2-0.1,0.7-0.5,0.8c-0.3,0-0.6-0.2-0.9-0.3
				c-0.5-0.2-1.2-0.5-1.8-0.7c-1.1-0.4-2.1-0.7-3.1-1.1c0-0.1-0.1-0.1-0.1-0.2s0-0.2,0-0.3c0-0.8,0-1.6,0.1-2.4c0-0.2,0-0.4,0-0.5
				c0-1.5,0.1-2.9,0.1-4.5c0.1-1,0.1-2.1,0.1-3.1c0-0.1,0.1-0.2,0.1-0.3c0-0.1,0-0.1,0-0.2c0-0.2,0-0.4,0-0.5
				c0.1-3.2,0.3-6.4,0.4-9.6c-0.1-0.2,0.1-0.4-0.2-0.6c-0.1,0.2,0,0.4-0.1,0.6c-0.6,2.8-1.4,5.6-2,8.4c-0.2,0.7-0.4,1.5-0.5,2.2
				c0,0.1-0.1,0.1-0.1,0.2c-0.3,0.9-0.5,1.9-0.6,2.8c-0.2,0.8-0.4,1.6-0.6,2.4c-0.1,0-0.1,0.1-0.1,0.1c-0.2,0.2-0.3,0.1-0.5,0.1
				c-0.2-0.2-0.5-0.2-0.8-0.1c-0.2,0-0.4,0-0.6-0.1c-0.8-0.2-1.7-0.4-2.5-0.5c-0.1-0.1-0.2-0.1-0.3-0.1c-0.6-0.1-1.2-0.2-1.9-0.5
				c-0.2-0.1-0.2-0.2-0.2-0.3c0-0.4,0.1-0.8,0.2-1.2c0.2-1,0.3-2.1,0.4-3.1l0,0c0-0.4,0.3-0.6,0.7-1c1.7-1.3,3-3,4.1-4.9
				c0.3-0.5,0.6-1,0.8-1.6c0.1,0,0.1-0.1,0.1-0.2c0,0,0,0,0-0.1c0.1,0,0.1-0.1,0.1-0.2c0.7-2,1.1-4,0.9-6.2
				c-0.1-1.2-0.3-2.3-0.7-3.4l0,0c0.2-0.3-0.1-0.6-0.1-0.8c-0.5-1-1.1-2.1-1.9-3c-0.2-0.3-0.4-0.6-0.2-1s0.1-0.9,0.1-1.3
				c0-0.2,0-0.3-0.1-0.4c0-0.2,0-0.4,0-0.6l0,0l0,0l0,0l0,0l0,0l0,0l0,0l0,0l0,0l0,0c0.2-0.3,0.1-0.7,0.2-1.1
				c0.1-0.5,0.2-1.1,0.3-1.7c0.1-0.2,0.1-0.3-0.2-0.4c-0.7-0.2-1.5-0.5-2.2-0.7c0-0.2,0-0.3,0-0.5c0.1-0.1,0.1-0.3,0-0.4l0,0
				c0.2,0,0.2-0.2,0.3-0.3c0.1-0.3,0-0.7,0.1-1c0-0.7,0.1-0.7,0.8-0.6c2.3,0.6,4.7,1.2,7,1.9c0.2,0.1,0.5,0.2,0.7,0.1l0,0l0.1,0.1
				c0.1,0.1,0.3,0.1,0.4,0.1c0,0,0.1,0,0.1,0.1c0.1,0,0.3,0.1,0.4,0c0,0,0.1,0,0.1,0.1c0.1,0,0.2,0.1,0.4,0c0,0,0.1,0,0.1,0.1
				c0.1,0,0.2,0.1,0.4,0c0,0,0.1,0,0.1,0.1c0.1,0,0.2,0.1,0.4,0c0,0,0.1,0,0.1,0.1c0.1,0,0.2,0.1,0.3,0.1c0,0,0,0.1,0.1,0.1
				c0,0.1,0,0.2,0.1,0.4l0,0.1c0,0.1,0,0.2,0,0.3s0,0.1,0,0.2c0,0.1,0,0.2,0,0.3s0,0.1,0,0.2s0,0.2,0,0.3c0,0.1,0,0.1,0,0.2
				s0,0.2,0,0.3l0,0.1c0,0.1,0,0.2,0,0.3c0,0.2,0,0.4,0.1,0.6c0,0.1,0,0.2,0,0.3s0,0.1,0,0.2c0,0.1,0,0.2,0,0.3s0,0.1,0,0.2
				c0,0.1,0,0.2,0,0.3s0,0.1,0.1,0.2c0,0.1,0,0.1,0,0.2c0.6,4.1,1.1,8.1,1.8,12.3c0.1,0.5,0,1,0.3,1.5c0.1-0.1,0.1-0.3,0.1-0.4
				c1.1-3.6,2.2-7.1,3.3-10.7c0.2-0.7,0.5-1.5,0.7-2.3l0,0c0.4-0.2,0.3-0.7,0.5-1.1c0-0.1,0-0.1,0.1-0.2c0-0.1,0.1-0.1,0.1-0.2
				c0-0.1,0.1-0.2,0.1-0.3s0.1-0.1,0.1-0.2c0-0.1,0.1-0.1,0.1-0.2c0.2-0.7,0.2-0.7,0.9-0.5c1.5,0.4,2.8,0.8,4.3,1.3
				c0.8,0.2,1.7,0.6,2.5,0.7l0.1,0l0,0c0.1,0.1,0.2,0.1,0.4,0.1c0,0,0.1,0,0.1,0.1c0.1,0,0.2,0.1,0.3,0.1c0,0,0.1,0,0.1,0.1
				c0.1,0.1,0,0.2-0.1,0.3c-0.8,2-1.7,4.1-2.5,6.3c-0.1,0.1-0.1,0.3,0,0.4l0,0l-0.1,0c-0.2,0.1-0.2,0.2-0.2,0.4
				c-0.9,2.2-1.7,4.5-2.7,6.7c-0.1,0.2-0.2,0.3-0.1,0.5l0,0c-0.2,0-0.3,0.2-0.3,0.4c-0.9,2.2-1.8,4.5-2.7,6.7
				c-0.1,0.2-0.2,0.4-0.1,0.6l0,0l0,0c-0.1,0.1-0.1,0.1-0.1,0.2c0,0,0,0.1-0.1,0.1c0,0.1-0.1,0.1-0.1,0.2c0,0,0,0.1-0.1,0.1
				c0,0.1-0.1,0.1-0.1,0.2c0,0,0,0.1-0.1,0.1c0,0.1-0.1,0.1-0.2,0.2c-0.9,1.9-1.6,3.9-2.4,5.9c-0.1,0.1-0.1,0.3,0.1,0.4l0,0l0,0l0,0
				c0,0,0,0-0.1,0c-0.1,0.1-0.1,0.1-0.2,0.2c0,0,0,0.1-0.1,0.1c0,0.1-0.1,0.2-0.2,0.3c-0.8,1.7-1.5,3.6-2.1,5.3
				c-0.1,0.1-0.1,0.2-0.1,0.3C403.8,105.1,403.7,105.2,403.7,105.2z"/>
			<path class="st5" d="M239.2,81c0-0.1,0-0.2-0.1-0.2C239.1,80.9,239.1,80.9,239.2,81z"/>
			<path class="st5" d="M263.5,88.8c0-0.1,0-0.2-0.1-0.2C263.4,88.8,263.5,88.7,263.5,88.8z"/>
			<path class="st5" d="M229.5,67c0,0.1,0,0.1,0.1,0.1C229.5,67,229.5,67,229.5,67z"/>
			<path class="st5" d="M228,64.1c0,0.1,0,0.1,0.1,0.1C228.1,64.2,228,64.2,228,64.1z"/>
			<path class="st5" d="M313.2,52.7L313.2,52.7L313.2,52.7L313.2,52.7z"/>
			<path class="st5" d="M330.2,40.2c0.1,0,0.1-0.1,0.2-0.1C330.3,40.1,330.2,40.2,330.2,40.2L330.2,40.2c-0.1,0-0.1,0-0.1,0.1
				C330.1,40.4,330.2,40.3,330.2,40.2z"/>
			<path class="st5" d="M405.5,63.2c-0.1,0-0.2,0-0.2,0.1C405.5,63.3,405.6,63.3,405.5,63.2z"/>
			<path class="st5" d="M306.2,53.5L306.2,53.5L306.2,53.5z"/>
			<path class="st5" d="M275.8,77.1L275.8,77.1L275.8,77.1z"/>
			<path class="st5" d="M285.9,72.2c-0.1,0.8-0.3,1.7-0.9,2.2c-0.3,0.2-0.7,0.5-1,0.7c-0.2,0.1-0.4,0.2-0.6,0.3
				c-0.3,0-0.5,0.1-0.8,0.1c-0.8,0-1.6-0.2-2.3-0.6c-0.6-0.4-1-1-1.3-1.7c0-0.1,0-0.2,0-0.2l0-0.1c-0.1-0.4,0-0.8-0.1-1.2
				c0.1-0.1,0.2-0.2,0.1-0.4l0,0l0,0c0.1-0.1,0.2-0.2,0.3-0.3c0.6-0.7,1.3-1.4,2.3-1.5c0.1,0,0.2,0,0.2-0.1c0.1,0,0.2,0,0.3,0.1
				c-0.5-0.3-1-0.3-1.6-0.2c-0.2,0-0.4,0.1-0.6,0.1c-1.2,0.2-2.3,0.7-3.2,1.5c-0.1,0.2-0.3,0.2-0.3,0.4c-0.4,0.5-0.7,0.9-0.9,1.4
				l0,0c-0.1,0-0.1,0.1-0.1,0.2c-0.3,0.6-0.4,1.4-0.2,2.1c0,0.8,0.3,1.5,0.7,2.1l0,0c0,0,0,0.1,0.1,0.1l0.1,0.1l0,0l0,0l0,0l0,0
				c0-0.1,0-0.1-0.1-0.1c0,0.1,0,0.1,0.1,0.1c0,0.1,0,0.2,0.1,0.2l0,0l0.1,0.1l0,0l0.1,0.1l0,0l0.1,0.1c0.2,0.4,0.6,0.6,0.9,0.9
				c2.1,1.5,5,1.6,7.3,0.1c0.1-0.1,0.3-0.1,0.4-0.2c0.3-0.3,0.6-0.6,0.8-0.9c0.4-0.3,0.5-0.7,0.7-1.2c0.1,0,0.1-0.1,0.1-0.2
				c0,0,0,0,0-0.1c0.5-1.4,0.4-2.8-0.2-4.1C286,72,286,72,285.9,72.2z"/>
			<path class="st5" d="M333.1,64.2c0.3-0.3,0.3-0.3,0-0.6c-1.8-1.9-4-2.5-6.5-1.8c-1.1,0.2-1.9,0.9-2.6,1.5
				c-0.8,0.5-1.2,1.4-1.5,2.2l0,0.1c-0.2,0.1-0.3,0.3-0.3,0.5c-0.5,2.1-0.1,3.9,1.2,5.7c0.2,0.3,0.4,0.6,0.8,0.6
				c0.3,0.3,0.3,0.3,0.7-0.1c1.2-1.3,2.5-2.4,3.8-3.7c0.8-0.8,1.7-1.6,2.5-2.5C331.7,65.6,332.5,64.9,333.1,64.2z M327,67.1
				c-0.7,0.7-1.3,1.4-2,2c-0.2,0.2-0.4,0.2-0.4,0c-0.2-0.7-0.3-1.5,0-2.1c0.1-0.3,0.2-0.5,0.2-0.8c0.1,0,0.2-0.1,0.2-0.2
				c0.2-0.3,0.4-0.6,0.7-0.8c1.2-1.1,2.6-1.3,4-0.8l0.1,0.1l0,0l-0.1,0.1l-0.1,0.1c-0.1,0.1-0.2,0.2-0.4,0.3c0,0,0,0-0.1,0l-0.1,0.1
				c0,0,0,0,0,0.1l0,0l-0.1,0C328.3,65.6,327.7,66.4,327,67.1z"/>
			<path class="st5" d="M304.4,71.2l-0.1-0.1C304.3,71.2,304.4,71.2,304.4,71.2z"/>
			<path class="st5" d="M253.4,62.9c0,0.1,0.1,0.2,0.2,0.3c0,0.1,0,0.2,0,0.3c0.3,1.3,0.6,2.5,0.9,3.8c0.2,0.7,0.3,1.4,0.6,2
				c0,0.1-0.1,0.1-0.1,0.2c0,0.9,0.4,1.7,0.5,2.6c0.1,0.6,0.2,1.1,0.4,1.7c0.2,0.4,0.3,0.5,0.6,0.2c0.1,0,0.2-0.1,0.3-0.1
				c0.2-0.1,0.4-0.2,0.6-0.4c1-0.6,2-1.3,2.9-2.1c0.5-0.5,1.1-1,1.4-1.7l0.1-0.1c1-1.6,1.3-3.5,0.9-5.4c-0.1-0.5-0.2-0.9-0.6-1.2
				c-0.4-0.8-1.1-1.4-1.7-1.8c-1.4-0.8-3-1-4.7-0.9c-0.9,0.1-1.8,0.4-2.6,0.7c-0.2,0.1-0.3,0.2-0.1,0.4
				C253.1,61.9,253.3,62.4,253.4,62.9z M261.4,69.1L261.4,69.1C261.3,69.2,261.3,69.1,261.4,69.1L261.4,69.1z M257.5,63.1
				c0.4,0,0.8,0.3,1.2,0.2l0,0l0.1,0.1c0,0,0.1,0,0.1,0.1c0,0,0.1,0,0.1,0.1c0,0,0.1,0,0.1,0.1c0,0,0.1,0,0.1,0.1l0,0
				c0,0,0,0.1,0.1,0.1l0,0c0,0,0,0.1,0.1,0.1l0,0c0,0,0,0.1,0.1,0.1l0,0c0,0,0,0.1,0.1,0.1c0,0,0,0,0,0.1l0,0.1c0,0,0,0,0,0.1l0,0.1
				c0.3,1.1,0.3,2.1-0.2,3.1c0,0.1-0.1,0.2-0.1,0.2s0,0.1-0.1,0.1c0,0.1-0.1,0.1-0.1,0.1l-0.1,0.1c-0.1,0.1-0.1,0.2-0.2,0.3
				c-0.1,0.1-0.3,0.2-0.1,0.4l0,0c0,0,0,0-0.1,0c0,0,0,0-0.1,0c0,0-0.1,0-0.1,0.1c0,0,0,0-0.1,0l-0.1,0c0,0-0.1,0-0.1,0.1
				c-0.2,0.1-0.3,0.3-0.6,0.4c-0.1-0.3-0.2-0.6-0.3-0.7c0.1-0.2,0-0.4,0-0.5c-0.3-1.5-0.7-2.9-1.1-4.4c-0.1-0.3-0.1-0.6-0.3-0.8
				C256.7,63,257.1,63,257.5,63.1z"/>
			<path class="st5" d="M385.3,81.6c0.1-0.1,0.2-0.2,0.3-0.3c0.5-0.4,0.7-0.9,0.9-1.4c0.1,0,0.1-0.1,0.1-0.2c0,0,0,0,0-0.1
				s0.1-0.1,0.1-0.2c0.4-1.4,0.4-2.6-0.3-3.9c-0.1,0-0.1,0-0.2,0.1c0,0,0,0.1-0.1,0.1c-0.1,1.1-0.6,2-1.6,2.5
				c-0.1,0.1-0.2,0.1-0.3,0.2c-0.9,0.4-1.8,0.4-2.6,0.1c-0.7-0.2-1.3-0.6-1.9-1.2c-0.2-0.4-0.5-0.8-0.7-1.3c-0.1-0.6,0-1.1,0.1-1.7
				c0.1-0.1,0.2-0.2,0.3-0.3c0.7-0.8,1.5-1.5,2.6-1.5c0.1,0,0.3,0,0.3-0.2c-0.7-0.1-1.3-0.2-2-0.1c-1.4,0.2-2.5,0.7-3.5,1.6
				c-0.1,0.1-0.1,0.2-0.2,0.2c-0.5,0.6-1,1.1-1.1,1.9c-0.2,0.2-0.1,0.4-0.1,0.6l0,0l0,0c-0.2,0.7-0.1,1.4,0.1,2.2l0,0
				c0,0.1,0,0.2,0,0.3l0,0c0,0.1,0,0.2,0,0.2c0.2,0.5,0.3,0.9,0.7,1.2l0,0l0.1,0.1l0,0l0.1,0.1l0,0c0.1,0,0.1,0.1,0.1,0.1
				c0,0.1,0.1,0.2,0.1,0.3c1.6,1.8,4.4,2.5,6.8,1.6C384.1,82.5,384.7,82.1,385.3,81.6z"/>
			<polygon class="st5" points="383.2,91.1 383.2,91.1 383.1,91.1 			"/>
		</g>
		<g>
			<path class="st6" d="M286,72.1l0.1-0.1c0-0.1,0-0.2-0.1-0.2C285.9,71.9,285.9,72.1,286,72.1z"/>
			<path class="st6" d="M398.2,81C398.1,80.9,398,80.9,398.2,81C398,80.9,398,80.9,398.2,81c-0.1,0.2-0.3,0.3-0.2,0.6
				c0.2,0.2,0,0.4,0.2,0.6C398.2,81.8,398.1,81.4,398.2,81z"/>
			<path class="st6" d="M386.2,75.3c0,0.1-0.1,0.2,0,0.3l0.1-0.1C386.4,75.4,386.3,75.4,386.2,75.3z"/>
			<path class="st6" d="M329.9,64.1L329.9,64.1L329.9,64.1L329.9,64.1c-0.7-0.3-1.6-0.4-2.3-0.2s-1.4,0.5-2,1.1
				c0.2,0,0.5-0.1,0.7-0.1c1-0.1,1.9-0.1,2.8,0.3c0,0,0.1,0,0.1-0.1l0,0l0.1-0.1c0.2-0.1,0.4-0.2,0.4-0.5c0.1,0,0.1,0,0.1-0.1
				C330.1,64.3,330,64.2,329.9,64.1L329.9,64.1z"/>
			<path class="st6" d="M259.9,64.2L259.9,64.2c0,0,0-0.1-0.1-0.1l0,0l-0.1-0.1l0,0l-0.1-0.1l0,0l-0.1-0.1l0,0c0,0,0-0.1-0.1-0.1
				l0,0c0-0.1-0.1-0.1-0.2-0.2c0-0.1-0.1-0.1-0.2-0.1l0,0c0-0.1-0.1-0.1-0.2-0.1l0,0c-0.2-0.1-0.4-0.1-0.5-0.2
				c-0.5-0.1-1.1-0.3-1.7-0.2c-0.2,0-0.3,0.1-0.3,0.3c0,0.3,0.2,0.5,0.2,0.8c0.4,0,0.7,0.1,1,0.3c0.6,0.3,1.2,0.8,1.4,1.5
				c0.2,1,0.2,2-0.2,3c-0.3,0.3-0.3,0.3,0,0.5l0.1,0l0.1-0.1l0,0l0.1-0.1l0,0l0.1-0.1l0,0c0.1-0.1,0.2-0.2,0.3-0.3
				c0.1-0.1,0.3-0.2,0.2-0.4c0.1,0,0.1-0.1,0.1-0.2c0.1,0,0.1-0.1,0.2-0.2l0,0l0,0c0.1-0.1,0.2-0.3,0.2-0.4c0.3-0.9,0.4-2-0.1-2.9
				C260,64.2,260,64.2,259.9,64.2z"/>
		</g>
		<path class="st3" d="M247.5,83.5"/>
	</g>
</g>
</svg>
